  0
SECTION
  2
HEADER
  9
$ACADVER
  1
AC1015
  9
$ACADMAINTVER
 70
20
  9
$DWGCODEPAGE
  3
ANSI_1252
  9
$LASTSAVEDBY
  1
unknown
  9
$INSBASE
 10
0.0
 20
0.0
 30
0.0
  9
$EXTMIN
 10
1e+20
 20
1e+20
 30
1e+20
  9
$EXTMAX
 10
-1e+20
 20
-1e+20
 30
-1e+20
  9
$LIMMIN
 10
0.0
 20
0.0
  9
$LIMMAX
 10
12.0
 20
9.0
  9
$ORTHOMODE
 70
0
  9
$REGENMODE
 70
1
  9
$FILLMODE
 70
1
  9
$QTEXTMODE
 70
0
  9
$MIRRTEXT
 70
0
  9
$LTSCALE
 40
1.0
  9
$ATTMODE
 70
1
  9
$TEXTSIZE
 40
0.2
  9
$TRACEWID
 40
0.05
  9
$TEXTSTYLE
  7
Notes
  9
$CLAYER
  8
0
  9
$CELTYPE
  6
ByLayer
  9
$CECOLOR
 62
256
  9
$CELTSCALE
 40
1.0
  9
$DISPSILH
 70
0
  9
$DIMSCALE
 40
1.0
  9
$DIMASZ
 40
3.0
  9
$DIMEXO
 40
1.5
  9
$DIMDLI
 40
6.0
  9
$DIMRND
 40
0.0
  9
$DIMDLE
 40
0.0
  9
$DIMEXE
 40
3.0
  9
$DIMTP
 40
0.0
  9
$DIMTM
 40
0.0
  9
$DIMTXT
 40
3.0
  9
$DIMCEN
 40
3.0
  9
$DIMTSZ
 40
0.0
  9
$DIMTOL
 70
0
  9
$DIMLIM
 70
0
  9
$DIMTIH
 70
0
  9
$DIMTOH
 70
0
  9
$DIMSE1
 70
0
  9
$DIMSE2
 70
0
  9
$DIMTAD
 70
1
  9
$DIMZIN
 70
3
  9
$DIMBLK
  1

  9
$DIMASO
 70
1
  9
$DIMSHO
 70
1
  9
$DIMPOST
  1

  9
$DIMAPOST
  1

  9
$DIMALT
 70
0
  9
$DIMALTD
 70
2
  9
$DIMALTF
 40
25.4
  9
$DIMLFAC
 40
1.0
  9
$DIMTOFL
 70
0
  9
$DIMTVP
 40
0.0
  9
$DIMTIX
 70
0
  9
$DIMSOXD
 70
0
  9
$DIMSAH
 70
0
  9
$DIMBLK1
  1

  9
$DIMBLK2
  1

  9
$DIMSTYLE
  2
Civil-Metric
  9
$DIMCLRD
 70
0
  9
$DIMCLRE
 70
0
  9
$DIMCLRT
 70
0
  9
$DIMTFAC
 40
1.0
  9
$DIMGAP
 40
2.0
  9
$DIMJUST
 70
0
  9
$DIMSD1
 70
0
  9
$DIMSD2
 70
0
  9
$DIMTOLJ
 70
1
  9
$DIMTZIN
 70
0
  9
$DIMALTZ
 70
0
  9
$DIMALTTZ
 70
0
  9
$DIMUPT
 70
0
  9
$DIMDEC
 70
2
  9
$DIMTDEC
 70
2
  9
$DIMALTU
 70
2
  9
$DIMALTTD
 70
2
  9
$DIMTXSTY
  7
Standard
  9
$DIMAUNIT
 70
0
  9
$DIMADEC
 70
2
  9
$DIMALTRND
 40
0.0
  9
$DIMAZIN
 70
2
  9
$DIMDSEP
 70
46
  9
$DIMATFIT
 70
3
  9
$DIMFRAC
 70
1
  9
$DIMLDRBLK
  1

  9
$DIMLUNIT
 70
2
  9
$DIMLWD
 70
-2
  9
$DIMLWE
 70
-2
  9
$DIMTMOVE
 70
0
  9
$LUNITS
 70
2
  9
$LUPREC
 70
4
  9
$SKETCHINC
 40
0.1
  9
$FILLETRAD
 40
0.0
  9
$AUNITS
 70
4
  9
$AUPREC
 70
5
  9
$MENU
  1
.
  9
$ELEVATION
 40
0.0
  9
$PELEVATION
 40
0.0
  9
$THICKNESS
 40
0.0
  9
$LIMCHECK
 70
0
  9
$CHAMFERA
 40
0.0
  9
$CHAMFERB
 40
0.0
  9
$CHAMFERC
 40
0.0
  9
$CHAMFERD
 40
0.0
  9
$SKPOLY
 70
0
  9
$TDCREATE
 40
2459278.4228
  9
$TDUPDATE
 40
2459278.4228
  9
$TDINDWG
 40
0.0
  9
$TDUSRTIMER
 40
0.0
  9
$USRTIMER
 70
1
  9
$ANGBASE
 50
0.0
  9
$ANGDIR
 70
0
  9
$PDMODE
 70
0
  9
$PDSIZE
 40
0.0
  9
$PLINEWID
 40
0.0
  9
$SPLFRAME
 70
0
  9
$SPLINETYPE
 70
6
  9
$SPLINESEGS
 70
8
  9
$HANDSEED
  5
5C8
  9
$SURFTAB1
 70
6
  9
$SURFTAB2
 70
6
  9
$SURFTYPE
 70
6
  9
$SURFU
 70
6
  9
$SURFV
 70
6
  9
$UCSBASE
  2

  9
$UCSNAME
  2

  9
$UCSORG
 10
0.0
 20
0.0
 30
0.0
  9
$UCSXDIR
 10
1.0
 20
0.0
 30
0.0
  9
$UCSYDIR
 10
0.0
 20
1.0
 30
0.0
  9
$UCSORTHOREF
  2

  9
$UCSORTHOVIEW
 70
0
  9
$UCSORGTOP
 10
0.0
 20
0.0
 30
0.0
  9
$UCSORGBOTTOM
 10
0.0
 20
0.0
 30
0.0
  9
$UCSORGLEFT
 10
0.0
 20
0.0
 30
0.0
  9
$UCSORGRIGHT
 10
0.0
 20
0.0
 30
0.0
  9
$UCSORGFRONT
 10
0.0
 20
0.0
 30
0.0
  9
$UCSORGBACK
 10
0.0
 20
0.0
 30
0.0
  9
$PUCSBASE
  2

  9
$PUCSNAME
  2

  9
$PUCSORG
 10
0.0
 20
0.0
 30
0.0
  9
$PUCSXDIR
 10
1.0
 20
0.0
 30
0.0
  9
$PUCSYDIR
 10
0.0
 20
1.0
 30
0.0
  9
$PUCSORTHOREF
  2

  9
$PUCSORTHOVIEW
 70
0
  9
$PUCSORGTOP
 10
0.0
 20
0.0
 30
0.0
  9
$PUCSORGBOTTOM
 10
0.0
 20
0.0
 30
0.0
  9
$PUCSORGLEFT
 10
0.0
 20
0.0
 30
0.0
  9
$PUCSORGRIGHT
 10
0.0
 20
0.0
 30
0.0
  9
$PUCSORGFRONT
 10
0.0
 20
0.0
 30
0.0
  9
$PUCSORGBACK
 10
0.0
 20
0.0
 30
0.0
  9
$USERI1
 70
0
  9
$USERI2
 70
0
  9
$USERI3
 70
0
  9
$USERI4
 70
0
  9
$USERI5
 70
0
  9
$USERR1
 40
0.0
  9
$USERR2
 40
0.0
  9
$USERR3
 40
0.0
  9
$USERR4
 40
0.0
  9
$USERR5
 40
0.0
  9
$WORLDVIEW
 70
1
  9
$SHADEDGE
 70
3
  9
$SHADEDIF
 70
70
  9
$TILEMODE
 70
1
  9
$MAXACTVP
 70
64
  9
$PINSBASE
 10
0.0
 20
0.0
 30
0.0
  9
$PLIMCHECK
 70
0
  9
$PEXTMIN
 10
0.628866766397
 20
0.799999952316
 30
0.0
  9
$PEXTMAX
 10
9.02886638493
 20
7.19999957085
 30
0.0
  9
$PLIMMIN
 10
-0.700541819174
 20
-0.228100386192
  9
$PLIMMAX
 10
10.2994579405
 20
8.27189937351
  9
$UNITMODE
 70
0
  9
$VISRETAIN
 70
1
  9
$PLINEGEN
 70
0
  9
$PSLTSCALE
 70
1
  9
$TREEDEPTH
 70
3020
  9
$CMLSTYLE
  2
Standard
  9
$CMLJUST
 70
0
  9
$CMLSCALE
 40
1.0
  9
$PROXYGRAPHICS
 70
1
  9
$MEASUREMENT
 70
1
  9
$CELWEIGHT
370
-1
  9
$ENDCAPS
280
0
  9
$JOINSTYLE
280
0
  9
$LWDISPLAY
290
0
  9
$INSUNITS
 70
4
  9
$HYPERLINKBASE
  1

  9
$STYLESHEET
  1

  9
$XEDIT
290
1
  9
$CEPSNTYPE
380
0
  9
$PSTYLEMODE
290
1
  9
$FINGERPRINTGUID
  2
3C430CEE-7CC9-11EB-BC69-B469211BEFD5
  9
$VERSIONGUID
  2
3C4AFC30-7CC9-11EB-862F-B469211BEFD5
  9
$EXTNAMES
290
1
  9
$PSVPSCALE
 40
0.0
  9
$OLESTARTUP
290
0
  0
ENDSEC
  0
SECTION
  2
CLASSES
  0
CLASS
  1
ACDBDICTIONARYWDFLT
  2
AcDbDictionaryWithDefault
  3
ObjectDBX Classes
 90
0
280
0
281
0
  0
CLASS
  1
ACDBPLACEHOLDER
  2
AcDbPlaceHolder
  3
ObjectDBX Classes
 90
0
280
0
281
0
  0
CLASS
  1
LAYOUT
  2
AcDbLayout
  3
ObjectDBX Classes
 90
0
280
0
281
0
  0
CLASS
  1
DICTIONARYVAR
  2
AcDbDictionaryVar
  3
ObjectDBX Classes
 90
0
280
0
281
0
  0
CLASS
  1
TABLESTYLE
  2
AcDbTableStyle
  3
ObjectDBX Classes
 90
4095
280
0
281
0
  0
CLASS
  1
MATERIAL
  2
AcDbMaterial
  3
ObjectDBX Classes
 90
1153
280
0
281
0
  0
CLASS
  1
VISUALSTYLE
  2
AcDbVisualStyle
  3
ObjectDBX Classes
 90
4095
280
0
281
0
  0
CLASS
  1
SCALE
  2
AcDbScale
  3
ObjectDBX Classes
 90
1153
280
0
281
0
  0
CLASS
  1
MLEADERSTYLE
  2
AcDbMLeaderStyle
  3
ACDB_MLEADERSTYLE_CLASS
 90
4095
280
0
281
0
  0
CLASS
  1
CELLSTYLEMAP
  2
AcDbCellStyleMap
  3
ObjectDBX Classes
 90
1152
280
0
281
0
  0
CLASS
  1
EXACXREFPANELOBJECT
  2
ExAcXREFPanelObject
  3
EXAC_ESW
 90
33793
280
0
281
0
  0
CLASS
  1
NPOCOLLECTION
  2
AcDbImpNonPersistentObjectsCollection
  3
ObjectDBX Classes
 90
33921
280
0
281
0
  0
CLASS
  1
LAYER_INDEX
  2
AcDbLayerIndex
  3
ObjectDBX Classes
 90
32768
280
0
281
0
  0
CLASS
  1
SPATIAL_INDEX
  2
AcDbSpatialIndex
  3
ObjectDBX Classes
 90
32768
280
0
281
0
  0
CLASS
  1
IDBUFFER
  2
AcDbIdBuffer
  3
ObjectDBX Classes
 90
32768
280
0
281
0
  0
CLASS
  1
DIMASSOC
  2
AcDbDimAssoc
  3
"AcDbDimAssoc|Product Desc:     AcDim ARX App For Dimension|Company:          Autodesk, Inc.|WEB Address:      www.autodesk.com"
 90
32768
280
0
281
0
  0
CLASS
  1
IMAGEDEF
  2
AcDbRasterImageDef
  3
ISM
 90
0
280
0
281
0
  0
CLASS
  1
RASTERVARIABLES
  2
AcDbRasterVariables
  3
ISM
 90
0
280
0
281
0
  0
CLASS
  1
IMAGEDEF_REACTOR
  2
AcDbRasterImageDefReactor
  3
ISM
 90
1
280
0
281
0
  0
CLASS
  1
IMAGE
  2
AcDbRasterImage
  3
ISM
 90
2175
280
0
281
1
  0
CLASS
  1
PDFDEFINITION
  2
AcDbPdfDefinition
  3
ObjectDBX Classes
 90
1153
280
0
281
0
  0
CLASS
  1
PDFUNDERLAY
  2
AcDbPdfReference
  3
ObjectDBX Classes
 90
4095
280
0
281
1
  0
CLASS
  1
DWFDEFINITION
  2
AcDbDwfDefinition
  3
ObjectDBX Classes
 90
1153
280
0
281
0
  0
CLASS
  1
DWFUNDERLAY
  2
AcDbDwfReference
  3
ObjectDBX Classes
 90
1153
280
0
281
1
  0
CLASS
  1
DGNDEFINITION
  2
AcDbDgnDefinition
  3
ObjectDBX Classes
 90
1153
280
0
281
0
  0
CLASS
  1
DGNUNDERLAY
  2
AcDbDgnReference
  3
ObjectDBX Classes
 90
1153
280
0
281
1
  0
ENDSEC
  0
SECTION
  2
TABLES
  0
TABLE
  2
VPORT
  5
8
330
0
100
AcDbSymbolTable
 70
0
  0
ENDTAB
  0
TABLE
  2
LTYPE
  5
5
330
0
100
AcDbSymbolTable
 70
7
  0
LTYPE
  5
14
330
5
100
AcDbSymbolTableRecord
100
AcDbLinetypeTableRecord
  2
ByBlock
 70
0
  3

 72
65
 73
0
 40
0.0
  0
LTYPE
  5
15
330
5
100
AcDbSymbolTableRecord
100
AcDbLinetypeTableRecord
  2
ByLayer
 70
0
  3

 72
65
 73
0
 40
0.0
  0
LTYPE
  5
16
330
5
100
AcDbSymbolTableRecord
100
AcDbLinetypeTableRecord
  2
Continuous
 70
0
  3
Solid line
 72
65
 73
0
 40
0.0
  0
LTYPE
  5
1B1
330
5
100
AcDbSymbolTableRecord
100
AcDbLinetypeTableRecord
  2
CENTER
 70
0
  3
Center ____ _ ____ _ ____ _ ____ _ ____ _ ____
 72
65
 73
4
 40
2.0
 49
1.25
 74
0
 49
-0.25
 74
0
 49
0.25
 74
0
 49
-0.25
 74
0
  0
LTYPE
  5
1B2
330
5
100
AcDbSymbolTableRecord
100
AcDbLinetypeTableRecord
  2
DASHED
 70
0
  3
Dashed __ __ __ __ __ __ __ __ __ __ __ __ __ _
 72
65
 73
2
 40
0.75
 49
0.5
 74
0
 49
-0.25
 74
0
  0
LTYPE
  5
1B3
330
5
100
AcDbSymbolTableRecord
100
AcDbLinetypeTableRecord
  2
PHANTOM
 70
0
  3
Phantom ______  __  __  ______  __  __  ______
 72
65
 73
6
 40
2.5
 49
1.25
 74
0
 49
-0.25
 74
0
 49
0.25
 74
0
 49
-0.25
 74
0
 49
0.25
 74
0
 49
-0.25
 74
0
  0
LTYPE
  5
39E
330
5
100
AcDbSymbolTableRecord
100
AcDbLinetypeTableRecord
  2
HIDDEN
 70
0
  3
Hidden __ __ __ __ __ __ __ __ __ __ __ __ __ __
 72
65
 73
2
 40
9.525
 49
6.35
 74
0
 49
-3.175
 74
0
  0
ENDTAB
  0
TABLE
  2
LAYER
  5
2
330
0
100
AcDbSymbolTable
 70
7
  0
LAYER
  5
10
330
2
100
AcDbSymbolTableRecord
100
AcDbLayerTableRecord
  2
0
 70
0
 62
7
  6
Continuous
370
-3
390
4AA
  0
LAYER
  5
1B4
330
2
100
AcDbSymbolTableRecord
100
AcDbLayerTableRecord
  2
View Port
 70
0
 62
7
  6
Continuous
290
0
370
-3
390
4AA
  0
LAYER
  5
21D
330
2
100
AcDbSymbolTableRecord
100
AcDbLayerTableRecord
  2
Defpoints
 70
0
 62
7
  6
Continuous
290
0
370
-3
390
4AA
  0
LAYER
  5
59E
330
2
100
AcDbSymbolTableRecord
100
AcDbLayerTableRecord
  2
DESCRIPTION
 70
0
 62
1
  6
Continuous
290
1
390
4AB
  0
LAYER
  5
59F
330
2
100
AcDbSymbolTableRecord
100
AcDbLayerTableRecord
  2
BENDS
 70
0
 62
2
  6
DASHED
290
1
390
4AB
  0
LAYER
  5
5A0
330
2
100
AcDbSymbolTableRecord
100
AcDbLayerTableRecord
  2
OUTLINE
 70
0
 62
3
  6
Continuous
290
1
390
4AB
  0
LAYER
  5
5A1
330
2
100
AcDbSymbolTableRecord
100
AcDbLayerTableRecord
  2
ENGRAVING
 70
0
 62
4
  6
Continuous
290
1
390
4AB
  0
ENDTAB
  0
TABLE
  2
STYLE
  5
3
330
0
100
AcDbSymbolTable
 70
3
  0
STYLE
  5
11
330
3
100
AcDbSymbolTableRecord
100
AcDbTextStyleTableRecord
  2
Standard
 70
0
 40
0.0
 41
1.0
 50
0.0
 71
0
 42
0.2
  3
arial.ttf
  4

  0
STYLE
  5
DC
330
3
100
AcDbSymbolTableRecord
100
AcDbTextStyleTableRecord
  2
Annotative
 70
0
 40
0.0
 41
1.0
 50
0.0
 71
0
 42
0.2
  3
arial.ttf
  4

  0
STYLE
  5
178
330
3
100
AcDbSymbolTableRecord
100
AcDbTextStyleTableRecord
  2
Notes
 70
0
 40
3.0
 41
1.0
 50
0.0
 71
0
 42
0.2
  3
arial.ttf
  4

  0
ENDTAB
  0
TABLE
  2
VIEW
  5
6
330
0
100
AcDbSymbolTable
 70
0
  0
ENDTAB
  0
TABLE
  2
UCS
  5
7
330
0
100
AcDbSymbolTable
 70
0
  0
ENDTAB
  0
TABLE
  2
APPID
  5
9
330
0
100
AcDbSymbolTable
 70
11
  0
APPID
  5
12
330
9
100
AcDbSymbolTableRecord
100
AcDbRegAppTableRecord
  2
ACAD
 70
0
  0
APPID
  5
DD
330
9
100
AcDbSymbolTableRecord
100
AcDbRegAppTableRecord
  2
AcadAnnoPO
 70
0
  0
APPID
  5
DE
330
9
100
AcDbSymbolTableRecord
100
AcDbRegAppTableRecord
  2
AcadAnnotative
 70
0
  0
APPID
  5
DF
330
9
100
AcDbSymbolTableRecord
100
AcDbRegAppTableRecord
  2
ACAD_DSTYLE_DIMJAG
 70
0
  0
APPID
  5
E0
330
9
100
AcDbSymbolTableRecord
100
AcDbRegAppTableRecord
  2
ACAD_DSTYLE_DIMTALN
 70
0
  0
APPID
  5
107
330
9
100
AcDbSymbolTableRecord
100
AcDbRegAppTableRecord
  2
ACAD_MLEADERVER
 70
0
  0
APPID
  5
1B5
330
9
100
AcDbSymbolTableRecord
100
AcDbRegAppTableRecord
  2
AcAecLayerStandard
 70
0
  0
APPID
  5
1BA
330
9
100
AcDbSymbolTableRecord
100
AcDbRegAppTableRecord
  2
ACAD_EXEMPT_FROM_CAD_STANDARDS
 70
0
  0
APPID
  5
237
330
9
100
AcDbSymbolTableRecord
100
AcDbRegAppTableRecord
  2
ACAD_DSTYLE_DIMBREAK
 70
0
  0
APPID
  5
28E
330
9
100
AcDbSymbolTableRecord
100
AcDbRegAppTableRecord
  2
ACAD_PSEXT
 70
0
  0
APPID
  5
482
330
9
100
AcDbSymbolTableRecord
100
AcDbRegAppTableRecord
  2
HATCHBACKGROUNDCOLOR
 70
0
  0
ENDTAB
  0
TABLE
  2
DIMSTYLE
  5
A
330
0
100
AcDbSymbolTable
 70
3
100
AcDbDimStyleTable
 71
3
340
242
340
27
340
E1
  0
DIMSTYLE
105
27
330
A
100
AcDbSymbolTableRecord
100
AcDbDimStyleTableRecord
  2
Standard
 70
0
 41
3.0
 42
2.0
 43
9.0
 44
5.0
140
3.0
141
2.0
147
2.0
340
11
1001
ACAD_DSTYLE_DIMJAG
1070
388
1040
38.0
1001
ACAD_DSTYLE_DIMBREAK
1070
391
1040
90.0
1001
ACAD_DSTYLE_DIMTALN
1070
392
1070
0
  0
DIMSTYLE
105
E1
330
A
100
AcDbSymbolTableRecord
100
AcDbDimStyleTableRecord
  2
Annotative
 70
0
 40
0.0
 41
3.0
 42
2.5
 43
10.0
 44
5.0
140
3.0
141
2.0
147
2.0
340
11
1001
AcadAnnotative
1000
AnnotativeData
1002
{
1070
1
1070
1
1002
}
1001
ACAD_DSTYLE_DIMJAG
1070
388
1040
38.0
1001
ACAD_DSTYLE_DIMBREAK
1070
391
1040
90.0
1001
ACAD_DSTYLE_DIMTALN
1070
392
1070
0
  0
DIMSTYLE
105
242
330
A
100
AcDbSymbolTableRecord
100
AcDbDimStyleTableRecord
  2
Civil-Metric
 70
0
 41
3.0
 42
1.5
 43
6.0
 44
3.0
 73
0
 74
0
 77
1
 78
3
 79
2
140
3.0
141
3.0
147
2.0
179
2
271
2
272
2
276
1
340
11
1001
ACAD_DSTYLE_DIMBREAK
1070
391
1040
3.0
1001
ACAD_DSTYLE_DIMJAG
1070
388
1040
38.0
1001
ACAD_DSTYLE_DIMTALN
1070
392
1070
0
  0
ENDTAB
  0
TABLE
  2
BLOCK_RECORD
  5
1
330
0
100
AcDbSymbolTable
 70
4
  0
BLOCK_RECORD
  5
1F
330
1
100
AcDbSymbolTableRecord
100
AcDbBlockTableRecord
  2
*Model_Space
340
4AF
  0
BLOCK_RECORD
  5
58
330
1
100
AcDbSymbolTableRecord
100
AcDbBlockTableRecord
  2
*Paper_Space
340
4B0
  0
BLOCK_RECORD
  5
238
330
1
100
AcDbSymbolTableRecord
100
AcDbBlockTableRecord
  2
_ArchTick
340
0
  0
BLOCK_RECORD
  5
23C
330
1
100
AcDbSymbolTableRecord
100
AcDbBlockTableRecord
  2
_Open30
340
0
  0
ENDTAB
  0
ENDSEC
  0
SECTION
  2
BLOCKS
  0
BLOCK
  5
23A
330
238
100
AcDbEntity
  8
0
100
AcDbBlockBegin
  2
_ArchTick
 70
0
 10
0.0
 20
0.0
 30
0.0
  3
_ArchTick
  1

  0
LWPOLYLINE
  5
239
330
238
100
AcDbEntity
  8
0
  6
ByBlock
 62
0
100
AcDbPolyline
 90
2
 70
0
 43
0.15
 10
-0.5
 20
-0.5
 10
0.5
 20
0.5
  0
ENDBLK
  5
23B
330
238
100
AcDbEntity
  8
0
100
AcDbBlockEnd
  0
BLOCK
  5
20
330
1F
100
AcDbEntity
  8
0
100
AcDbBlockBegin
  2
*Model_Space
 70
0
 10
0.0
 20
0.0
 30
0.0
  3
*Model_Space
  1

  0
ENDBLK
  5
21
330
1F
100
AcDbEntity
  8
0
100
AcDbBlockEnd
  0
BLOCK
  5
5A
330
58
100
AcDbEntity
 67
1
  8
0
100
AcDbBlockBegin
  2
*Paper_Space
 70
0
 10
0.0
 20
0.0
 30
0.0
  3
*Paper_Space
  1

  0
ENDBLK
  5
5B
330
58
100
AcDbEntity
 67
1
  8
0
100
AcDbBlockEnd
  0
BLOCK
  5
240
330
23C
100
AcDbEntity
  8
0
100
AcDbBlockBegin
  2
_Open30
 70
0
 10
0.0
 20
0.0
 30
0.0
  3
_Open30
  1

  0
LINE
  5
23D
330
23C
100
AcDbEntity
  8
0
  6
ByBlock
 62
0
370
-2
100
AcDbLine
 10
-1.0
 20
0.26794919
 30
0.0
 11
0.0
 21
0.0
 31
0.0
  0
LINE
  5
23E
330
23C
100
AcDbEntity
  8
0
  6
ByBlock
 62
0
370
-2
100
AcDbLine
 10
0.0
 20
0.0
 30
0.0
 11
-1.0
 21
-0.26794919
 31
0.0
  0
LINE
  5
23F
330
23C
100
AcDbEntity
  8
0
  6
ByBlock
 62
0
370
-2
100
AcDbLine
 10
0.0
 20
0.0
 30
0.0
 11
-1.0
 21
0.0
 31
0.0
  0
ENDBLK
  5
241
330
23C
100
AcDbEntity
  8
0
100
AcDbBlockEnd
  0
ENDSEC
  0
SECTION
  2
ENTITIES
  0
TEXT
  5
5A2
330
1F
100
AcDbEntity
  8
DESCRIPTION
 67
0
100
AcDbText
 10
-311.968584
 20
123.549128085
 40
1.0
  1
USERINFO3 = x1
 50
0.0
 51
0.0
  7
STANDARD
 41
1.0
 71
0
 72
0
 11
-311.968584
 21
123.549128085
100
AcDbText
 73
1
  0
TEXT
  5
5A3
330
1F
100
AcDbEntity
  8
DESCRIPTION
 67
0
100
AcDbText
 10
-311.968584
 20
125.049128085
 40
1.0
  1
THICK = 3.00
 50
0.0
 51
0.0
  7
STANDARD
 41
1.0
 71
0
 72
0
 11
-311.968584
 21
125.049128085
100
AcDbText
 73
1
  0
TEXT
  5
5A4
330
1F
100
AcDbEntity
  8
ENGRAVING
 67
0
100
AcDbText
 10
-311.968584
 20
126.549128085
 40
1.0
  1
CYCAD:ENGRAVING
 50
0.0
 51
0.0
  7
STANDARD
 41
1.0
 71
0
 72
0
 11
-311.968584
 21
126.549128085
100
AcDbText
 73
1
  0
TEXT
  5
5A5
330
1F
100
AcDbEntity
  8
OUTLINE
 67
0
100
AcDbText
 10
-311.968584
 20
128.049128085
 40
1.0
  1
CYCAD:OUTLINE
 50
0.0
 51
0.0
  7
STANDARD
 41
1.0
 71
0
 72
0
 11
-311.968584
 21
128.049128085
100
AcDbText
 73
1
  0
TEXT
  5
5A6
330
1F
100
AcDbEntity
  8
BENDS
 67
0
100
AcDbText
 10
-311.968584
 20
129.549128085
 40
1.0
  1
CYCAD:BENDS
 50
0.0
 51
0.0
  7
STANDARD
 41
1.0
 71
0
 72
0
 11
-311.968584
 21
129.549128085
100
AcDbText
 73
1
  0
LWPOLYLINE
  5
5A7
330
1F
100
AcDbEntity
  8
OUTLINE
 67
0
100
AcDbPolyline
 90
62
 70
1
 43
0.0
 10
-136.929289
 20
-389.137167
 10
-136.929289
 20
-382.068583
 10
-136.929289
 20
-214.068583
 10
-134.0
 20
-207.0
 10
-141.068583
 20
-209.929289
 10
-311.968583
 20
-209.929289
 10
-311.968583
 20
-191.5
 10
-183.068583
 20
-191.5
 42
0.414213562373
 10
-158.068583
 20
-166.5
 10
-158.068583
 20
-75.5
 10
-181.068583
 20
-52.5
 10
-181.068583
 20
-25.570711
 10
-141.068583
 20
-25.570711
 10
-134.0
 20
-28.5
 10
-136.929289
 20
-21.431417
 10
-136.929289
 20
18.568583
 10
-85.0
 20
18.568583
 10
-85.0
 20
82.568583
 10
-85.0
 20
89.637167
 10
-85.0
 20
116.637167
 42
-0.414213562373
 10
-80.0
 20
121.637167
 10
-51.0
 20
121.637167
 10
-51.0
 20
89.637167
 10
-51.0
 20
82.568583
 10
-51.0
 20
18.568583
 10
80.0
 20
18.568583
 42
0.414213562373
 10
100.0
 20
38.568583
 10
100.0
 20
82.568583
 10
100.0
 20
89.637167
 10
100.0
 20
121.637167
 10
136.929289
 20
121.637167
 10
136.929289
 20
89.637167
 10
136.929289
 20
82.568583
 10
136.929289
 20
-21.431417
 10
134.0
 20
-28.5
 10
141.068583
 20
-25.570711
 10
146.068583
 20
-25.570711
 10
237.968583
 20
12.5
 10
247.968583
 20
12.5
 10
247.968583
 20
-123.350652
 10
311.968583
 20
-191.5
 10
311.968583
 20
-209.929289
 10
141.068583
 20
-209.929289
 10
134.0
 20
-207.0
 10
136.929289
 20
-214.068583
 10
136.929289
 20
-382.068583
 10
136.929289
 20
-389.137167
 10
136.929289
 20
-404.637167
 10
105.0
 20
-404.637167
 42
-0.414213562373
 10
100.0
 20
-399.637167
 10
100.0
 20
-389.137167
 10
100.0
 20
-382.068583
 10
100.0
 20
-274.068583
 42
0.414213562373
 10
80.0
 20
-254.068583
 10
-92.0
 20
-254.068583
 42
0.414213562373
 10
-112.0
 20
-274.068583
 10
-112.0
 20
-382.068583
 10
-112.0
 20
-389.137167
 10
-112.0
 20
-399.637167
 42
-0.414213562373
 10
-117.0
 20
-404.637167
 10
-136.929289
 20
-404.637167
 10
-136.929289
 20
-389.137167
  0
LWPOLYLINE
  5
5A8
330
1F
100
AcDbEntity
  8
OUTLINE
 67
0
100
AcDbPolyline
 90
5
 70
1
 43
0.0
 10
-123.5
 20
-392.637167
 42
-1.0
 10
-123.5
 20
-401.637167
 10
-128.5
 20
-401.637167
 42
-1.0
 10
-128.5
 20
-392.637167
 10
-123.5
 20
-392.637167
  0
LWPOLYLINE
  5
5A9
330
1F
100
AcDbEntity
  8
OUTLINE
 67
0
100
AcDbPolyline
 90
5
 70
1
 43
0.0
 10
118.5
 20
109.137167
 42
1.0
 10
109.5
 20
109.137167
 10
109.5
 20
99.137167
 42
1.0
 10
118.5
 20
99.137167
 10
118.5
 20
109.137167
  0
LWPOLYLINE
  5
5AA
330
1F
100
AcDbEntity
  8
OUTLINE
 67
0
100
AcDbPolyline
 90
19
 70
1
 43
0.0
 10
159.73525
 20
-79.860133
 42
0.845154254729
 10
159.73525
 20
-60.139867
 42
-0.365977381863
 10
158.068583
 20
-58.16784
 10
158.068583
 20
-56.5
 42
-0.414213562373
 10
162.068583
 20
-52.5
 10
213.968583
 20
-52.5
 42
-0.414213562373
 10
217.968583
 20
-56.5
 10
217.968583
 20
-133.645191
 42
0.190767278164
 10
219.052784
 20
-136.383459
 10
264.485492
 20
-184.761732
 42
-0.65688699591
 10
261.569693
 20
-191.5
 10
162.068583
 20
-191.5
 42
-0.414213562373
 10
158.068583
 20
-187.5
 10
158.068583
 20
-185.83216
 42
-0.365977381863
 10
159.73525
 20
-183.860133
 42
0.845154254729
 10
159.73525
 20
-164.139867
 42
-0.365977381863
 10
158.068583
 20
-162.16784
 10
158.068583
 20
-81.83216
 42
-0.365977381863
 10
159.73525
 20
-79.860133
  0
CIRCLE
  5
5AB
330
1F
100
AcDbEntity
  8
OUTLINE
 67
0
100
AcDbCircle
 10
158.068583471
 20
-70.0
 40
4.375
  0
CIRCLE
  5
5AC
330
1F
100
AcDbEntity
  8
OUTLINE
 67
0
100
AcDbCircle
 10
158.068583471
 20
-174.0
 40
4.375
  0
LWPOLYLINE
  5
5AD
330
1F
100
AcDbEntity
  8
OUTLINE
 67
0
100
AcDbPolyline
 90
5
 70
1
 43
0.0
 10
-75.5
 20
99.137167
 42
1.0
 10
-66.5
 20
99.137167
 10
-66.5
 20
109.137167
 42
1.0
 10
-75.5
 20
109.137167
 10
-75.5
 20
99.137167
  0
LWPOLYLINE
  5
5AE
330
1F
100
AcDbEntity
  8
OUTLINE
 67
0
100
AcDbPolyline
 90
5
 70
1
 43
0.0
 10
111.5
 20
-392.637167
 10
116.5
 20
-392.637167
 42
-1.0
 10
116.5
 20
-401.637167
 10
111.5
 20
-401.637167
 42
-1.0
 10
111.5
 20
-392.637167
  0
CIRCLE
  5
5AF
330
1F
100
AcDbEntity
  8
OUTLINE
 67
0
100
AcDbCircle
 10
-125.0
 20
-57.75
 40
4.5
  0
CIRCLE
  5
5B0
330
1F
100
AcDbEntity
  8
OUTLINE
 67
0
100
AcDbCircle
 10
-125.0
 20
-177.75
 40
4.5
  0
CIRCLE
  5
5B1
330
1F
100
AcDbEntity
  8
OUTLINE
 67
0
100
AcDbCircle
 10
44.3
 20
-59.5
 40
5.5
  0
CIRCLE
  5
5B2
330
1F
100
AcDbEntity
  8
OUTLINE
 67
0
100
AcDbCircle
 10
-38.7
 20
-191.496212067
 40
5.5
  0
LWPOLYLINE
  5
5B3
330
1F
100
AcDbEntity
  8
OUTLINE
 67
0
100
AcDbPolyline
 90
25
 70
1
 43
0.0
 10
107.535534
 20
-175.464466
 10
102.464466
 20
-180.535534
 42
-0.19891236738
 10
98.928932
 20
-182.0
 10
-7.628932
 20
-182.0
 42
-0.19891236738
 10
-11.164466
 20
-180.535534
 10
-16.235534
 20
-175.464466
 42
-0.19891236738
 10
-17.7
 20
-171.928932
 10
-17.7
 20
-89.571068
 42
-0.19891236738
 10
-16.235534
 20
-86.035534
 10
-11.164466
 20
-80.964466
 42
-0.19891236738
 10
-7.628932
 20
-79.5
 10
54.228932
 20
-79.5
 42
0.19891236738
 10
57.764466
 20
-78.035534
 10
62.835534
 20
-72.964466
 42
0.19891236738
 10
64.3
 20
-69.428932
 10
64.3
 20
-63.571068
 42
-0.19891236738
 10
65.764466
 20
-60.035534
 10
70.835534
 20
-54.964466
 42
-0.19891236738
 10
74.371068
 20
-53.5
 10
98.928932
 20
-53.5
 42
-0.19891236738
 10
102.464466
 20
-54.964466
 10
107.535534
 20
-60.035534
 42
-0.19891236738
 10
109.0
 20
-63.571068
 10
109.0
 20
-171.928932
 42
-0.19891236738
 10
107.535534
 20
-175.464466
  0
LWPOLYLINE
  5
5B4
330
1F
100
AcDbEntity
  8
OUTLINE
 67
0
100
AcDbPolyline
 90
17
 70
1
 43
0.0
 10
-76.7
 20
-63.571068
 10
-76.7
 20
-171.928932
 42
-0.19891236738
 10
-78.164466
 20
-175.464466
 10
-83.235534
 20
-180.535534
 42
-0.19891236738
 10
-86.771068
 20
-182.0
 10
-98.928932
 20
-182.0
 42
-0.19891236738
 10
-102.464466
 20
-180.535534
 10
-107.535534
 20
-175.464466
 42
-0.19891236738
 10
-109.0
 20
-171.928932
 10
-109.0
 20
-63.571068
 42
-0.19891236738
 10
-107.535534
 20
-60.035534
 10
-102.464466
 20
-54.964466
 42
-0.19891236738
 10
-98.928932
 20
-53.5
 10
-86.771068
 20
-53.5
 42
-0.19891236738
 10
-83.235534
 20
-54.964466
 10
-78.164466
 20
-60.035534
 42
-0.19891236738
 10
-76.7
 20
-63.571068
  0
CIRCLE
  5
5B5
330
1F
100
AcDbEntity
  8
OUTLINE
 67
0
100
AcDbCircle
 10
-37.7
 20
-59.5
 40
5.5
  0
CIRCLE
  5
5B6
330
1F
100
AcDbEntity
  8
OUTLINE
 67
0
100
AcDbCircle
 10
-20.0
 20
-231.068583471
 40
4.375
  0
CIRCLE
  5
5B7
330
1F
100
AcDbEntity
  8
OUTLINE
 67
0
100
AcDbCircle
 10
101.0
 20
-231.068583471
 40
4.375
  0
LINE
  5
5B8
330
1F
100
AcDbEntity
  8
BENDS
 67
0
100
AcDbLine
 10
100.0
 20
-385.602875
 11
136.929289
 21
-385.602875
  0
TEXT
  5
5B9
330
1F
100
AcDbEntity
  8
BENDS
 67
0
100
AcDbText
 10
118.4646445
 20
-385.602875
 40
1.0
  1
90.00/R=3.00/K=0.50
 50
0.0
 51
0.0
  7
STANDARD
 41
1.0
 71
0
 72
0
 11
118.4646445
 21
-385.602875
100
AcDbText
 73
1
  0
LINE
  5
5BA
330
1F
100
AcDbEntity
  8
BENDS
 67
0
100
AcDbLine
 10
135.464645
 20
-210.534292
 11
-135.464645
 21
-210.534292
  0
TEXT
  5
5BB
330
1F
100
AcDbEntity
  8
BENDS
 67
0
100
AcDbText
 10
0.0
 20
-210.534292
 40
1.0
  1
90.00/R=3.00/K=0.50
 50
0.0
 51
0.0
  7
STANDARD
 41
1.0
 71
0
 72
0
 11
0.0
 21
-210.534292
100
AcDbText
 73
1
  0
LINE
  5
5BC
330
1F
100
AcDbEntity
  8
BENDS
 67
0
100
AcDbLine
 10
-136.929289
 20
-385.602875
 11
-112.0
 21
-385.602875
  0
TEXT
  5
5BD
330
1F
100
AcDbEntity
  8
BENDS
 67
0
100
AcDbText
 10
-124.4646445
 20
-385.602875
 40
1.0
  1
90.00/R=3.00/K=0.50
 50
0.0
 51
0.0
  7
STANDARD
 41
1.0
 71
0
 72
0
 11
-124.4646445
 21
-385.602875
100
AcDbText
 73
1
  0
LINE
  5
5BE
330
1F
100
AcDbEntity
  8
BENDS
 67
0
100
AcDbLine
 10
-137.534292
 20
-27.035355
 11
-137.534292
 21
-208.464645
  0
TEXT
  5
5BF
330
1F
100
AcDbEntity
  8
BENDS
 67
0
100
AcDbText
 10
-137.534292
 20
-117.75
 40
1.0
  1
90.00/R=3.00/K=0.50
 50
0.0
 51
0.0
  7
STANDARD
 41
1.0
 71
0
 72
0
 11
-137.534292
 21
-117.75
100
AcDbText
 73
1
  0
LINE
  5
5C0
330
1F
100
AcDbEntity
  8
BENDS
 67
0
100
AcDbLine
 10
100.0
 20
86.102875
 11
136.929289
 21
86.102875
  0
TEXT
  5
5C1
330
1F
100
AcDbEntity
  8
BENDS
 67
0
100
AcDbText
 10
118.4646445
 20
86.102875
 40
1.0
  1
-90.00/R=3.00/K=0.50
 50
0.0
 51
0.0
  7
STANDARD
 41
1.0
 71
0
 72
0
 11
118.4646445
 21
86.102875
100
AcDbText
 73
1
  0
LINE
  5
5C2
330
1F
100
AcDbEntity
  8
BENDS
 67
0
100
AcDbLine
 10
135.464645
 20
-24.965708
 11
-135.464645
 21
-24.965708
  0
TEXT
  5
5C3
330
1F
100
AcDbEntity
  8
BENDS
 67
0
100
AcDbText
 10
0.0
 20
-24.965708
 40
1.0
  1
90.00/R=3.00/K=0.50
 50
0.0
 51
0.0
  7
STANDARD
 41
1.0
 71
0
 72
0
 11
0.0
 21
-24.965708
100
AcDbText
 73
1
  0
LINE
  5
5C4
330
1F
100
AcDbEntity
  8
BENDS
 67
0
100
AcDbLine
 10
137.534292
 20
-208.464645
 11
137.534292
 21
-27.035355
  0
TEXT
  5
5C5
330
1F
100
AcDbEntity
  8
BENDS
 67
0
100
AcDbText
 10
137.534292
 20
-117.75
 40
1.0
  1
90.00/R=3.00/K=0.50
 50
0.0
 51
0.0
  7
STANDARD
 41
1.0
 71
0
 72
0
 11
137.534292
 21
-117.75
100
AcDbText
 73
1
  0
LINE
  5
5C6
330
1F
100
AcDbEntity
  8
BENDS
 67
0
100
AcDbLine
 10
-85.0
 20
86.102875
 11
-51.0
 21
86.102875
  0
TEXT
  5
5C7
330
1F
100
AcDbEntity
  8
BENDS
 67
0
100
AcDbText
 10
-68.0
 20
86.102875
 40
1.0
  1
-90.00/R=3.00/K=0.50
 50
0.0
 51
0.0
  7
STANDARD
 41
1.0
 71
0
 72
0
 11
-68.0
 21
86.102875
100
AcDbText
 73
1
  0
ENDSEC
  0
SECTION
  2
OBJECTS
  0
DICTIONARY
  5
C
330
0
100
AcDbDictionary
281
1
  3
ACAD_COLOR
350
4A3
  3
ACAD_GROUP
350
4A4
  3
ACAD_LAYOUT
350
4A5
  3
ACAD_MATERIAL
350
4A6
  3
ACAD_MLEADERSTYLE
350
4A7
  3
ACAD_MLINESTYLE
350
4A8
  3
ACAD_PLOTSETTINGS
350
4A9
  3
ACAD_PLOTSTYLENAME
350
4AB
  3
ACAD_SCALELIST
350
4AC
  3
ACAD_TABLESTYLE
350
4AD
  3
ACAD_VISUALSTYLE
350
4AE
  0
DICTIONARY
  5
4A3
330
C
100
AcDbDictionary
281
1
  0
DICTIONARY
  5
4A4
330
C
100
AcDbDictionary
281
1
  0
DICTIONARY
  5
4A5
330
C
100
AcDbDictionary
281
1
  3
Model
350
4AF
  3
Layout1
350
4B0
  0
DICTIONARY
  5
4A6
330
C
100
AcDbDictionary
281
1
  3
ByBlock
350
599
  3
ByLayer
350
59A
  3
Global
350
59B
  0
DICTIONARY
  5
4A7
330
C
100
AcDbDictionary
281
1
  3
Standard
350
59C
  0
DICTIONARY
  5
4A8
330
C
100
AcDbDictionary
281
1
  3
STANDARD
350
59D
  0
DICTIONARY
  5
4A9
330
C
100
AcDbDictionary
281
1
  0
ACDBPLACEHOLDER
  5
4AA
330
4AB
  0
ACDBDICTIONARYWDFLT
  5
4AB
330
C
100
AcDbDictionary
281
1
  3
Normal
350
4AA
100
AcDbDictionaryWithDefault
340
4AA
  0
DICTIONARY
  5
4AC
330
C
100
AcDbDictionary
281
1
  0
DICTIONARY
  5
4AD
330
C
100
AcDbDictionary
281
1
  0
DICTIONARY
  5
4AE
330
C
100
AcDbDictionary
281
1
  0
LAYOUT
  5
4AF
330
4A5
100
AcDbPlotSettings
  1

  2
DWFx ePlot (XPS Compatible).pc3
  4
ANSI_A_(8.50_x_11.00_Inches)
  6

 40
5.8
 41
17.8
 42
5.8
 43
17.8
 44
215.9
 45
279.4
 46
0.0
 47
0.0
 48
0.0
 49
0.0
140
0.0
141
0.0
142
1.0
143
14.53
 70
11952
 72
0
 73
1
 74
0
  7

 75
0
147
0.069
148
114.98
149
300.29
100
AcDbLayout
  1
Model
 70
1
 71
0
 10
0.0
 20
0.0
 11
12.0
 21
9.0
 12
0.0
 22
0.0
 32
0.0
 14
0.0
 24
0.0
 34
0.0
 15
0.0
 25
0.0
 35
0.0
146
0.0
 13
0.0
 23
0.0
 33
0.0
 16
1.0
 26
0.0
 36
0.0
 17
0.0
 27
1.0
 37
0.0
 76
0
330
1F
  0
LAYOUT
  5
4B0
330
4A5
100
AcDbPlotSettings
  1

  2
DWFx ePlot (XPS Compatible).pc3
  4
ANSI_A_(8.50_x_11.00_Inches)
  6

 40
5.8
 41
17.8
 42
5.8
 43
17.8
 44
215.9
 45
279.4
 46
0.0
 47
0.0
 48
0.0
 49
0.0
140
0.0
141
0.0
142
1.0
143
1.0
 70
688
 72
0
 73
1
 74
5
  7
acad.ctb
 75
16
147
1.0
148
0.0
149
0.0
100
AcDbLayout
  1
Layout1
 70
1
 71
1
 10
-0.7
 20
-0.23
 11
10.3
 21
8.27
 12
0.0
 22
0.0
 32
0.0
 14
0.63
 24
0.8
 34
0.0
 15
9.0
 25
7.2
 35
0.0
146
0.0
 13
0.0
 23
0.0
 33
0.0
 16
1.0
 26
0.0
 36
0.0
 17
0.0
 27
1.0
 37
0.0
 76
0
330
58
  0
MATERIAL
  5
599
102
{ACAD_REACTORS
330
4A6
102
}
330
4A6
100
AcDbMaterial
  1
ByBlock
 94
63
  0
MATERIAL
  5
59A
102
{ACAD_REACTORS
330
4A6
102
}
330
4A6
100
AcDbMaterial
  1
ByLayer
 94
63
  0
MATERIAL
  5
59B
102
{ACAD_REACTORS
330
4A6
102
}
330
4A6
100
AcDbMaterial
  1
Global
 94
63
  0
MLEADERSTYLE
  5
59C
102
{ACAD_REACTORS
330
4A7
102
}
330
4A7
100
AcDbMLeaderStyle
179
2
170
2
171
1
172
0
 90
2
 40
0.0
 41
0.0
173
1
 91
-1056964608
340
14
 92
-2
290
1
 42
2.0
291
1
 43
8.0
  3
Standard
341
0
 44
4.0
300

342
11
174
1
178
1
175
1
176
0
 93
-1056964608
 45
4.0
292
0
297
0
 46
4.0
343
0
 94
-1056964608
 47
1.0
 49
1.0
140
1.0
293
1
141
0.0
294
1
177
0
142
1.0
295
0
296
0
143
3.75
271
0
272
9
273
9
  0
MLINESTYLE
  5
59D
102
{ACAD_REACTORS
330
4A8
102
}
330
4A8
100
AcDbMlineStyle
  2
STANDARD
 70
0
  3

 62
256
 51
90.0
 52
90.0
 71
2
 49
0.5
 62
256
  6
BYLAYER
 49
-0.5
 62
256
  6
BYLAYER
  0
ENDSEC
  0
EOF
