  0
SECTION
  2
HEADER
  9
$ACADVER
  1
AC1015
  9
$ACADMAINTVER
 70
20
  9
$DWGCODEPAGE
  3
ANSI_1252
  9
$LASTSAVEDBY
  1
unknown
  9
$INSBASE
 10
0.0
 20
0.0
 30
0.0
  9
$EXTMIN
 10
1e+20
 20
1e+20
 30
1e+20
  9
$EXTMAX
 10
-1e+20
 20
-1e+20
 30
-1e+20
  9
$LIMMIN
 10
0.0
 20
0.0
  9
$LIMMAX
 10
12.0
 20
9.0
  9
$ORTHOMODE
 70
0
  9
$REGENMODE
 70
1
  9
$FILLMODE
 70
1
  9
$QTEXTMODE
 70
0
  9
$MIRRTEXT
 70
0
  9
$LTSCALE
 40
1.0
  9
$ATTMODE
 70
1
  9
$TEXTSIZE
 40
0.2
  9
$TRACEWID
 40
0.05
  9
$TEXTSTYLE
  7
Notes
  9
$CLAYER
  8
0
  9
$CELTYPE
  6
ByLayer
  9
$CECOLOR
 62
256
  9
$CELTSCALE
 40
1.0
  9
$DISPSILH
 70
0
  9
$DIMSCALE
 40
1.0
  9
$DIMASZ
 40
3.0
  9
$DIMEXO
 40
1.5
  9
$DIMDLI
 40
6.0
  9
$DIMRND
 40
0.0
  9
$DIMDLE
 40
0.0
  9
$DIMEXE
 40
3.0
  9
$DIMTP
 40
0.0
  9
$DIMTM
 40
0.0
  9
$DIMTXT
 40
3.0
  9
$DIMCEN
 40
3.0
  9
$DIMTSZ
 40
0.0
  9
$DIMTOL
 70
0
  9
$DIMLIM
 70
0
  9
$DIMTIH
 70
0
  9
$DIMTOH
 70
0
  9
$DIMSE1
 70
0
  9
$DIMSE2
 70
0
  9
$DIMTAD
 70
1
  9
$DIMZIN
 70
3
  9
$DIMBLK
  1

  9
$DIMASO
 70
1
  9
$DIMSHO
 70
1
  9
$DIMPOST
  1

  9
$DIMAPOST
  1

  9
$DIMALT
 70
0
  9
$DIMALTD
 70
2
  9
$DIMALTF
 40
25.4
  9
$DIMLFAC
 40
1.0
  9
$DIMTOFL
 70
0
  9
$DIMTVP
 40
0.0
  9
$DIMTIX
 70
0
  9
$DIMSOXD
 70
0
  9
$DIMSAH
 70
0
  9
$DIMBLK1
  1

  9
$DIMBLK2
  1

  9
$DIMSTYLE
  2
Civil-Metric
  9
$DIMCLRD
 70
0
  9
$DIMCLRE
 70
0
  9
$DIMCLRT
 70
0
  9
$DIMTFAC
 40
1.0
  9
$DIMGAP
 40
2.0
  9
$DIMJUST
 70
0
  9
$DIMSD1
 70
0
  9
$DIMSD2
 70
0
  9
$DIMTOLJ
 70
1
  9
$DIMTZIN
 70
0
  9
$DIMALTZ
 70
0
  9
$DIMALTTZ
 70
0
  9
$DIMUPT
 70
0
  9
$DIMDEC
 70
2
  9
$DIMTDEC
 70
2
  9
$DIMALTU
 70
2
  9
$DIMALTTD
 70
2
  9
$DIMTXSTY
  7
Standard
  9
$DIMAUNIT
 70
0
  9
$DIMADEC
 70
2
  9
$DIMALTRND
 40
0.0
  9
$DIMAZIN
 70
2
  9
$DIMDSEP
 70
46
  9
$DIMATFIT
 70
3
  9
$DIMFRAC
 70
1
  9
$DIMLDRBLK
  1

  9
$DIMLUNIT
 70
2
  9
$DIMLWD
 70
-2
  9
$DIMLWE
 70
-2
  9
$DIMTMOVE
 70
0
  9
$LUNITS
 70
2
  9
$LUPREC
 70
4
  9
$SKETCHINC
 40
0.1
  9
$FILLETRAD
 40
0.0
  9
$AUNITS
 70
4
  9
$AUPREC
 70
5
  9
$MENU
  1
.
  9
$ELEVATION
 40
0.0
  9
$PELEVATION
 40
0.0
  9
$THICKNESS
 40
0.0
  9
$LIMCHECK
 70
0
  9
$CHAMFERA
 40
0.0
  9
$CHAMFERB
 40
0.0
  9
$CHAMFERC
 40
0.0
  9
$CHAMFERD
 40
0.0
  9
$SKPOLY
 70
0
  9
$TDCREATE
 40
2459036.67763
  9
$TDUPDATE
 40
2459036.67763
  9
$TDINDWG
 40
0.0
  9
$TDUSRTIMER
 40
0.0
  9
$USRTIMER
 70
1
  9
$ANGBASE
 50
0.0
  9
$ANGDIR
 70
0
  9
$PDMODE
 70
0
  9
$PDSIZE
 40
0.0
  9
$PLINEWID
 40
0.0
  9
$SPLFRAME
 70
0
  9
$SPLINETYPE
 70
6
  9
$SPLINESEGS
 70
8
  9
$HANDSEED
  5
5B4
  9
$SURFTAB1
 70
6
  9
$SURFTAB2
 70
6
  9
$SURFTYPE
 70
6
  9
$SURFU
 70
6
  9
$SURFV
 70
6
  9
$UCSBASE
  2

  9
$UCSNAME
  2

  9
$UCSORG
 10
0.0
 20
0.0
 30
0.0
  9
$UCSXDIR
 10
1.0
 20
0.0
 30
0.0
  9
$UCSYDIR
 10
0.0
 20
1.0
 30
0.0
  9
$UCSORTHOREF
  2

  9
$UCSORTHOVIEW
 70
0
  9
$UCSORGTOP
 10
0.0
 20
0.0
 30
0.0
  9
$UCSORGBOTTOM
 10
0.0
 20
0.0
 30
0.0
  9
$UCSORGLEFT
 10
0.0
 20
0.0
 30
0.0
  9
$UCSORGRIGHT
 10
0.0
 20
0.0
 30
0.0
  9
$UCSORGFRONT
 10
0.0
 20
0.0
 30
0.0
  9
$UCSORGBACK
 10
0.0
 20
0.0
 30
0.0
  9
$PUCSBASE
  2

  9
$PUCSNAME
  2

  9
$PUCSORG
 10
0.0
 20
0.0
 30
0.0
  9
$PUCSXDIR
 10
1.0
 20
0.0
 30
0.0
  9
$PUCSYDIR
 10
0.0
 20
1.0
 30
0.0
  9
$PUCSORTHOREF
  2

  9
$PUCSORTHOVIEW
 70
0
  9
$PUCSORGTOP
 10
0.0
 20
0.0
 30
0.0
  9
$PUCSORGBOTTOM
 10
0.0
 20
0.0
 30
0.0
  9
$PUCSORGLEFT
 10
0.0
 20
0.0
 30
0.0
  9
$PUCSORGRIGHT
 10
0.0
 20
0.0
 30
0.0
  9
$PUCSORGFRONT
 10
0.0
 20
0.0
 30
0.0
  9
$PUCSORGBACK
 10
0.0
 20
0.0
 30
0.0
  9
$USERI1
 70
0
  9
$USERI2
 70
0
  9
$USERI3
 70
0
  9
$USERI4
 70
0
  9
$USERI5
 70
0
  9
$USERR1
 40
0.0
  9
$USERR2
 40
0.0
  9
$USERR3
 40
0.0
  9
$USERR4
 40
0.0
  9
$USERR5
 40
0.0
  9
$WORLDVIEW
 70
1
  9
$SHADEDGE
 70
3
  9
$SHADEDIF
 70
70
  9
$TILEMODE
 70
1
  9
$MAXACTVP
 70
64
  9
$PINSBASE
 10
0.0
 20
0.0
 30
0.0
  9
$PLIMCHECK
 70
0
  9
$PEXTMIN
 10
0.628866766397
 20
0.799999952316
 30
0.0
  9
$PEXTMAX
 10
9.02886638493
 20
7.19999957085
 30
0.0
  9
$PLIMMIN
 10
-0.700541819174
 20
-0.228100386192
  9
$PLIMMAX
 10
10.2994579405
 20
8.27189937351
  9
$UNITMODE
 70
0
  9
$VISRETAIN
 70
1
  9
$PLINEGEN
 70
0
  9
$PSLTSCALE
 70
1
  9
$TREEDEPTH
 70
3020
  9
$CMLSTYLE
  2
Standard
  9
$CMLJUST
 70
0
  9
$CMLSCALE
 40
1.0
  9
$PROXYGRAPHICS
 70
1
  9
$MEASUREMENT
 70
1
  9
$CELWEIGHT
370
-1
  9
$ENDCAPS
280
0
  9
$JOINSTYLE
280
0
  9
$LWDISPLAY
290
0
  9
$INSUNITS
 70
4
  9
$HYPERLINKBASE
  1

  9
$STYLESHEET
  1

  9
$XEDIT
290
1
  9
$CEPSNTYPE
380
0
  9
$PSTYLEMODE
290
1
  9
$FINGERPRINTGUID
  2
055CE44F-BECA-11EA-8384-3C07542F39CD
  9
$VERSIONGUID
  2
05621221-BECA-11EA-AF9F-3C07542F39CD
  9
$EXTNAMES
290
1
  9
$PSVPSCALE
 40
0.0
  9
$OLESTARTUP
290
0
  0
ENDSEC
  0
SECTION
  2
CLASSES
  0
CLASS
  1
ACDBDICTIONARYWDFLT
  2
AcDbDictionaryWithDefault
  3
ObjectDBX Classes
 90
0
280
0
281
0
  0
CLASS
  1
ACDBPLACEHOLDER
  2
AcDbPlaceHolder
  3
ObjectDBX Classes
 90
0
280
0
281
0
  0
CLASS
  1
LAYOUT
  2
AcDbLayout
  3
ObjectDBX Classes
 90
0
280
0
281
0
  0
CLASS
  1
DICTIONARYVAR
  2
AcDbDictionaryVar
  3
ObjectDBX Classes
 90
0
280
0
281
0
  0
CLASS
  1
TABLESTYLE
  2
AcDbTableStyle
  3
ObjectDBX Classes
 90
4095
280
0
281
0
  0
CLASS
  1
MATERIAL
  2
AcDbMaterial
  3
ObjectDBX Classes
 90
1153
280
0
281
0
  0
CLASS
  1
VISUALSTYLE
  2
AcDbVisualStyle
  3
ObjectDBX Classes
 90
4095
280
0
281
0
  0
CLASS
  1
SCALE
  2
AcDbScale
  3
ObjectDBX Classes
 90
1153
280
0
281
0
  0
CLASS
  1
MLEADERSTYLE
  2
AcDbMLeaderStyle
  3
ACDB_MLEADERSTYLE_CLASS
 90
4095
280
0
281
0
  0
CLASS
  1
CELLSTYLEMAP
  2
AcDbCellStyleMap
  3
ObjectDBX Classes
 90
1152
280
0
281
0
  0
CLASS
  1
EXACXREFPANELOBJECT
  2
ExAcXREFPanelObject
  3
EXAC_ESW
 90
33793
280
0
281
0
  0
CLASS
  1
NPOCOLLECTION
  2
AcDbImpNonPersistentObjectsCollection
  3
ObjectDBX Classes
 90
33921
280
0
281
0
  0
CLASS
  1
LAYER_INDEX
  2
AcDbLayerIndex
  3
ObjectDBX Classes
 90
32768
280
0
281
0
  0
CLASS
  1
SPATIAL_INDEX
  2
AcDbSpatialIndex
  3
ObjectDBX Classes
 90
32768
280
0
281
0
  0
CLASS
  1
IDBUFFER
  2
AcDbIdBuffer
  3
ObjectDBX Classes
 90
32768
280
0
281
0
  0
CLASS
  1
DIMASSOC
  2
AcDbDimAssoc
  3
"AcDbDimAssoc|Product Desc:     AcDim ARX App For Dimension|Company:          Autodesk, Inc.|WEB Address:      www.autodesk.com"
 90
32768
280
0
281
0
  0
CLASS
  1
IMAGEDEF
  2
AcDbRasterImageDef
  3
ISM
 90
0
280
0
281
0
  0
CLASS
  1
RASTERVARIABLES
  2
AcDbRasterVariables
  3
ISM
 90
0
280
0
281
0
  0
CLASS
  1
IMAGEDEF_REACTOR
  2
AcDbRasterImageDefReactor
  3
ISM
 90
1
280
0
281
0
  0
CLASS
  1
IMAGE
  2
AcDbRasterImage
  3
ISM
 90
2175
280
0
281
1
  0
CLASS
  1
PDFDEFINITION
  2
AcDbPdfDefinition
  3
ObjectDBX Classes
 90
1153
280
0
281
0
  0
CLASS
  1
PDFUNDERLAY
  2
AcDbPdfReference
  3
ObjectDBX Classes
 90
4095
280
0
281
1
  0
CLASS
  1
DWFDEFINITION
  2
AcDbDwfDefinition
  3
ObjectDBX Classes
 90
1153
280
0
281
0
  0
CLASS
  1
DWFUNDERLAY
  2
AcDbDwfReference
  3
ObjectDBX Classes
 90
1153
280
0
281
1
  0
CLASS
  1
DGNDEFINITION
  2
AcDbDgnDefinition
  3
ObjectDBX Classes
 90
1153
280
0
281
0
  0
CLASS
  1
DGNUNDERLAY
  2
AcDbDgnReference
  3
ObjectDBX Classes
 90
1153
280
0
281
1
  0
ENDSEC
  0
SECTION
  2
TABLES
  0
TABLE
  2
VPORT
  5
8
330
0
100
AcDbSymbolTable
 70
0
  0
ENDTAB
  0
TABLE
  2
LTYPE
  5
5
330
0
100
AcDbSymbolTable
 70
7
  0
LTYPE
  5
14
330
5
100
AcDbSymbolTableRecord
100
AcDbLinetypeTableRecord
  2
ByBlock
 70
0
  3

 72
65
 73
0
 40
0.0
  0
LTYPE
  5
15
330
5
100
AcDbSymbolTableRecord
100
AcDbLinetypeTableRecord
  2
ByLayer
 70
0
  3

 72
65
 73
0
 40
0.0
  0
LTYPE
  5
16
330
5
100
AcDbSymbolTableRecord
100
AcDbLinetypeTableRecord
  2
Continuous
 70
0
  3
Solid line
 72
65
 73
0
 40
0.0
  0
LTYPE
  5
1B1
330
5
100
AcDbSymbolTableRecord
100
AcDbLinetypeTableRecord
  2
CENTER
 70
0
  3
Center ____ _ ____ _ ____ _ ____ _ ____ _ ____
 72
65
 73
4
 40
2.0
 49
1.25
 74
0
 49
-0.25
 74
0
 49
0.25
 74
0
 49
-0.25
 74
0
  0
LTYPE
  5
1B2
330
5
100
AcDbSymbolTableRecord
100
AcDbLinetypeTableRecord
  2
DASHED
 70
0
  3
Dashed __ __ __ __ __ __ __ __ __ __ __ __ __ _
 72
65
 73
2
 40
0.75
 49
0.5
 74
0
 49
-0.25
 74
0
  0
LTYPE
  5
1B3
330
5
100
AcDbSymbolTableRecord
100
AcDbLinetypeTableRecord
  2
PHANTOM
 70
0
  3
Phantom ______  __  __  ______  __  __  ______
 72
65
 73
6
 40
2.5
 49
1.25
 74
0
 49
-0.25
 74
0
 49
0.25
 74
0
 49
-0.25
 74
0
 49
0.25
 74
0
 49
-0.25
 74
0
  0
LTYPE
  5
39E
330
5
100
AcDbSymbolTableRecord
100
AcDbLinetypeTableRecord
  2
HIDDEN
 70
0
  3
Hidden __ __ __ __ __ __ __ __ __ __ __ __ __ __
 72
65
 73
2
 40
9.525
 49
6.35
 74
0
 49
-3.175
 74
0
  0
ENDTAB
  0
TABLE
  2
LAYER
  5
2
330
0
100
AcDbSymbolTable
 70
7
  0
LAYER
  5
10
330
2
100
AcDbSymbolTableRecord
100
AcDbLayerTableRecord
  2
0
 70
0
 62
7
  6
Continuous
370
-3
390
4AA
  0
LAYER
  5
1B4
330
2
100
AcDbSymbolTableRecord
100
AcDbLayerTableRecord
  2
View Port
 70
0
 62
7
  6
Continuous
290
0
370
-3
390
4AA
  0
LAYER
  5
21D
330
2
100
AcDbSymbolTableRecord
100
AcDbLayerTableRecord
  2
Defpoints
 70
0
 62
7
  6
Continuous
290
0
370
-3
390
4AA
  0
LAYER
  5
59E
330
2
100
AcDbSymbolTableRecord
100
AcDbLayerTableRecord
  2
DESCRIPTION
 70
0
 62
1
  6
Continuous
290
1
390
4AB
  0
LAYER
  5
59F
330
2
100
AcDbSymbolTableRecord
100
AcDbLayerTableRecord
  2
BENDS
 70
0
 62
2
  6
DASHED
290
1
390
4AB
  0
LAYER
  5
5A0
330
2
100
AcDbSymbolTableRecord
100
AcDbLayerTableRecord
  2
OUTLINE
 70
0
 62
3
  6
Continuous
290
1
390
4AB
  0
LAYER
  5
5A1
330
2
100
AcDbSymbolTableRecord
100
AcDbLayerTableRecord
  2
ENGRAVING
 70
0
 62
4
  6
Continuous
290
1
390
4AB
  0
ENDTAB
  0
TABLE
  2
STYLE
  5
3
330
0
100
AcDbSymbolTable
 70
3
  0
STYLE
  5
11
330
3
100
AcDbSymbolTableRecord
100
AcDbTextStyleTableRecord
  2
Standard
 70
0
 40
0.0
 41
1.0
 50
0.0
 71
0
 42
0.2
  3
arial.ttf
  4

  0
STYLE
  5
DC
330
3
100
AcDbSymbolTableRecord
100
AcDbTextStyleTableRecord
  2
Annotative
 70
0
 40
0.0
 41
1.0
 50
0.0
 71
0
 42
0.2
  3
arial.ttf
  4

  0
STYLE
  5
178
330
3
100
AcDbSymbolTableRecord
100
AcDbTextStyleTableRecord
  2
Notes
 70
0
 40
3.0
 41
1.0
 50
0.0
 71
0
 42
0.2
  3
arial.ttf
  4

  0
ENDTAB
  0
TABLE
  2
VIEW
  5
6
330
0
100
AcDbSymbolTable
 70
0
  0
ENDTAB
  0
TABLE
  2
UCS
  5
7
330
0
100
AcDbSymbolTable
 70
0
  0
ENDTAB
  0
TABLE
  2
APPID
  5
9
330
0
100
AcDbSymbolTable
 70
11
  0
APPID
  5
12
330
9
100
AcDbSymbolTableRecord
100
AcDbRegAppTableRecord
  2
ACAD
 70
0
  0
APPID
  5
DD
330
9
100
AcDbSymbolTableRecord
100
AcDbRegAppTableRecord
  2
AcadAnnoPO
 70
0
  0
APPID
  5
DE
330
9
100
AcDbSymbolTableRecord
100
AcDbRegAppTableRecord
  2
AcadAnnotative
 70
0
  0
APPID
  5
DF
330
9
100
AcDbSymbolTableRecord
100
AcDbRegAppTableRecord
  2
ACAD_DSTYLE_DIMJAG
 70
0
  0
APPID
  5
E0
330
9
100
AcDbSymbolTableRecord
100
AcDbRegAppTableRecord
  2
ACAD_DSTYLE_DIMTALN
 70
0
  0
APPID
  5
107
330
9
100
AcDbSymbolTableRecord
100
AcDbRegAppTableRecord
  2
ACAD_MLEADERVER
 70
0
  0
APPID
  5
1B5
330
9
100
AcDbSymbolTableRecord
100
AcDbRegAppTableRecord
  2
AcAecLayerStandard
 70
0
  0
APPID
  5
1BA
330
9
100
AcDbSymbolTableRecord
100
AcDbRegAppTableRecord
  2
ACAD_EXEMPT_FROM_CAD_STANDARDS
 70
0
  0
APPID
  5
237
330
9
100
AcDbSymbolTableRecord
100
AcDbRegAppTableRecord
  2
ACAD_DSTYLE_DIMBREAK
 70
0
  0
APPID
  5
28E
330
9
100
AcDbSymbolTableRecord
100
AcDbRegAppTableRecord
  2
ACAD_PSEXT
 70
0
  0
APPID
  5
482
330
9
100
AcDbSymbolTableRecord
100
AcDbRegAppTableRecord
  2
HATCHBACKGROUNDCOLOR
 70
0
  0
ENDTAB
  0
TABLE
  2
DIMSTYLE
  5
A
330
0
100
AcDbSymbolTable
 70
3
100
AcDbDimStyleTable
 71
3
340
242
340
27
340
E1
  0
DIMSTYLE
105
27
330
A
100
AcDbSymbolTableRecord
100
AcDbDimStyleTableRecord
  2
Standard
 70
0
 41
3.0
 42
2.0
 43
9.0
 44
5.0
140
3.0
141
2.0
147
2.0
340
11
1001
ACAD_DSTYLE_DIMJAG
1070
388
1040
38.0
1001
ACAD_DSTYLE_DIMBREAK
1070
391
1040
90.0
1001
ACAD_DSTYLE_DIMTALN
1070
392
1070
0
  0
DIMSTYLE
105
E1
330
A
100
AcDbSymbolTableRecord
100
AcDbDimStyleTableRecord
  2
Annotative
 70
0
 40
0.0
 41
3.0
 42
2.5
 43
10.0
 44
5.0
140
3.0
141
2.0
147
2.0
340
11
1001
AcadAnnotative
1000
AnnotativeData
1002
{
1070
1
1070
1
1002
}
1001
ACAD_DSTYLE_DIMJAG
1070
388
1040
38.0
1001
ACAD_DSTYLE_DIMBREAK
1070
391
1040
90.0
1001
ACAD_DSTYLE_DIMTALN
1070
392
1070
0
  0
DIMSTYLE
105
242
330
A
100
AcDbSymbolTableRecord
100
AcDbDimStyleTableRecord
  2
Civil-Metric
 70
0
 41
3.0
 42
1.5
 43
6.0
 44
3.0
 73
0
 74
0
 77
1
 78
3
 79
2
140
3.0
141
3.0
147
2.0
179
2
271
2
272
2
276
1
340
11
1001
ACAD_DSTYLE_DIMBREAK
1070
391
1040
3.0
1001
ACAD_DSTYLE_DIMJAG
1070
388
1040
38.0
1001
ACAD_DSTYLE_DIMTALN
1070
392
1070
0
  0
ENDTAB
  0
TABLE
  2
BLOCK_RECORD
  5
1
330
0
100
AcDbSymbolTable
 70
4
  0
BLOCK_RECORD
  5
1F
330
1
100
AcDbSymbolTableRecord
100
AcDbBlockTableRecord
  2
*Model_Space
340
4AF
  0
BLOCK_RECORD
  5
58
330
1
100
AcDbSymbolTableRecord
100
AcDbBlockTableRecord
  2
*Paper_Space
340
4B0
  0
BLOCK_RECORD
  5
238
330
1
100
AcDbSymbolTableRecord
100
AcDbBlockTableRecord
  2
_ArchTick
340
0
  0
BLOCK_RECORD
  5
23C
330
1
100
AcDbSymbolTableRecord
100
AcDbBlockTableRecord
  2
_Open30
340
0
  0
ENDTAB
  0
ENDSEC
  0
SECTION
  2
BLOCKS
  0
BLOCK
  5
23A
330
238
100
AcDbEntity
  8
0
100
AcDbBlockBegin
  2
_ArchTick
 70
0
 10
0.0
 20
0.0
 30
0.0
  3
_ArchTick
  1

  0
LWPOLYLINE
  5
239
330
238
100
AcDbEntity
  8
0
  6
ByBlock
 62
0
100
AcDbPolyline
 90
2
 70
0
 43
0.15
 10
-0.5
 20
-0.5
 10
0.5
 20
0.5
  0
ENDBLK
  5
23B
330
238
100
AcDbEntity
  8
0
100
AcDbBlockEnd
  0
BLOCK
  5
20
330
1F
100
AcDbEntity
  8
0
100
AcDbBlockBegin
  2
*Model_Space
 70
0
 10
0.0
 20
0.0
 30
0.0
  3
*Model_Space
  1

  0
ENDBLK
  5
21
330
1F
100
AcDbEntity
  8
0
100
AcDbBlockEnd
  0
BLOCK
  5
5A
330
58
100
AcDbEntity
 67
1
  8
0
100
AcDbBlockBegin
  2
*Paper_Space
 70
0
 10
0.0
 20
0.0
 30
0.0
  3
*Paper_Space
  1

  0
ENDBLK
  5
5B
330
58
100
AcDbEntity
 67
1
  8
0
100
AcDbBlockEnd
  0
BLOCK
  5
240
330
23C
100
AcDbEntity
  8
0
100
AcDbBlockBegin
  2
_Open30
 70
0
 10
0.0
 20
0.0
 30
0.0
  3
_Open30
  1

  0
LINE
  5
23D
330
23C
100
AcDbEntity
  8
0
  6
ByBlock
 62
0
370
-2
100
AcDbLine
 10
-1.0
 20
0.26794919
 30
0.0
 11
0.0
 21
0.0
 31
0.0
  0
LINE
  5
23E
330
23C
100
AcDbEntity
  8
0
  6
ByBlock
 62
0
370
-2
100
AcDbLine
 10
0.0
 20
0.0
 30
0.0
 11
-1.0
 21
-0.26794919
 31
0.0
  0
LINE
  5
23F
330
23C
100
AcDbEntity
  8
0
  6
ByBlock
 62
0
370
-2
100
AcDbLine
 10
0.0
 20
0.0
 30
0.0
 11
-1.0
 21
0.0
 31
0.0
  0
ENDBLK
  5
241
330
23C
100
AcDbEntity
  8
0
100
AcDbBlockEnd
  0
ENDSEC
  0
SECTION
  2
ENTITIES
  0
TEXT
  5
5A2
330
1F
100
AcDbEntity
  8
DESCRIPTION
 67
0
100
AcDbText
 10
2.61241
 20
-1.33257007518
 40
1.0
  1
THICK = 6.30
 50
0.0
 51
0.0
  7
STANDARD
 41
1.0
 71
0
 72
0
 11
2.61241
 21
-1.33257007518
100
AcDbText
 73
1
  0
TEXT
  5
5A3
330
1F
100
AcDbEntity
  8
ENGRAVING
 67
0
100
AcDbText
 10
2.61241
 20
0.167429924819
 40
1.0
  1
CYCAD:ENGRAVING
 50
0.0
 51
0.0
  7
STANDARD
 41
1.0
 71
0
 72
0
 11
2.61241
 21
0.167429924819
100
AcDbText
 73
1
  0
TEXT
  5
5A4
330
1F
100
AcDbEntity
  8
OUTLINE
 67
0
100
AcDbText
 10
2.61241
 20
1.66742992482
 40
1.0
  1
CYCAD:OUTLINE
 50
0.0
 51
0.0
  7
STANDARD
 41
1.0
 71
0
 72
0
 11
2.61241
 21
1.66742992482
100
AcDbText
 73
1
  0
TEXT
  5
5A5
330
1F
100
AcDbEntity
  8
BENDS
 67
0
100
AcDbText
 10
2.61241
 20
3.16742992482
 40
1.0
  1
CYCAD:BENDS
 50
0.0
 51
0.0
  7
STANDARD
 41
1.0
 71
0
 72
0
 11
2.61241
 21
3.16742992482
100
AcDbText
 73
1
  0
LWPOLYLINE
  5
5A6
330
1F
100
AcDbEntity
  8
OUTLINE
 67
0
100
AcDbPolyline
 90
1429
 70
1
 43
0.0
 10
223.753544
 20
-145.127049
 10
223.769499
 20
-145.696774
 10
223.79271
 20
-146.265665
 10
223.823167
 20
-146.833898
 10
223.860979
 20
-147.403725
 10
223.906165
 20
-147.975045
 10
223.958745
 20
-148.547753
 10
224.018732
 20
-149.12174
 10
224.08614
 20
-149.696892
 10
224.160983
 20
-150.273093
 10
224.243195
 20
-150.849637
 10
224.332748
 20
-151.426189
 10
224.429636
 20
-152.00262
 10
224.533849
 20
-152.578801
 10
224.645378
 20
-153.154599
 10
224.764208
 20
-153.729882
 10
224.89046
 20
-154.305195
 10
225.024333
 20
-154.881386
 10
225.165841
 20
-155.458368
 10
225.314992
 20
-156.036049
 10
225.471794
 20
-156.614335
 10
225.636253
 20
-157.193125
 10
225.808218
 20
-157.771739
 10
225.98683
 20
-158.347166
 10
226.172041
 20
-158.919294
 10
226.3638
 20
-159.488015
 10
226.562057
 20
-160.053221
 10
226.766759
 20
-160.614809
 10
226.977876
 20
-161.172668
 10
227.193223
 20
-161.721033
 10
227.412685
 20
-162.259859
 10
227.636255
 20
-162.789373
 10
227.863924
 20
-163.309791
 10
228.095686
 20
-163.821316
 10
228.331533
 20
-164.324142
 10
228.571895
 20
-164.819395
 10
228.816996
 20
-165.307692
 10
229.066764
 20
-165.789017
 10
229.322099
 20
-166.265271
 10
229.584823
 20
-166.739947
 10
229.854913
 20
-167.212943
 10
230.132339
 20
-167.684147
 10
230.417027
 20
-168.153379
 10
230.708943
 20
-168.620529
 10
231.00805
 20
-169.085489
 10
231.314307
 20
-169.548143
 10
231.627666
 20
-170.008375
 10
231.948078
 20
-170.466065
 10
232.275406
 20
-170.920974
 10
232.609537
 20
-171.372903
 10
232.950419
 20
-171.821748
 10
233.29941
 20
-172.269305
 10
233.65956
 20
-172.719438
 10
234.031231
 20
-173.172425
 10
234.414326
 20
-173.627936
 10
234.805786
 20
-174.082137
 10
235.205658
 20
-174.535
 10
235.613991
 20
-174.9865
 10
236.030829
 20
-175.436604
 10
236.456217
 20
-175.885279
 10
236.890145
 20
-176.33255
 10
237.350044
 20
-176.796402
 10
237.842094
 20
-177.282664
 10
238.374115
 20
-177.798583
 10
238.964751
 20
-178.361775
 10
239.66076
 20
-179.016324
 10
240.589925
 20
-179.881662
 10
242.151631
 20
-181.333208
 10
243.078402
 20
-182.203513
 10
243.861762
 20
-182.949189
 10
244.573814
 20
-183.637358
 10
245.24963
 20
-184.300839
 10
245.894221
 20
-184.944055
 10
246.508864
 20
-185.567857
 10
247.095941
 20
-186.17423
 10
247.658525
 20
-186.765925
 10
248.200721
 20
-187.34687
 10
248.72512
 20
-187.919527
 10
249.232842
 20
-188.484854
 10
249.725048
 20
-189.043892
 10
250.203582
 20
-189.598496
 10
250.668975
 20
-190.149091
 10
251.121705
 20
-190.696055
 10
251.562531
 20
-191.240118
 10
251.992386
 20
-191.782263
 10
252.411508
 20
-192.322643
 10
252.820115
 20
-192.861401
 10
253.218428
 20
-193.398685
 10
253.606669
 20
-193.934658
 10
253.984997
 20
-194.469406
 10
254.35356
 20
-195.003008
 10
254.712503
 20
-195.535539
 10
255.06191
 20
-196.066999
 10
255.401885
 20
-196.597412
 10
255.732536
 20
-197.126816
 10
256.053965
 20
-197.655248
 10
256.366632
 20
-198.183276
 10
256.67438
 20
-198.717238
 10
256.97714
 20
-199.257081
 10
257.274843
 20
-199.802742
 10
257.567419
 20
-200.354158
 10
257.855059
 20
-200.911738
 10
258.138554
 20
-201.477083
 10
258.417874
 20
-202.05026
 10
258.692989
 20
-202.63134
 10
258.963865
 20
-203.220394
 10
259.230343
 20
-203.817217
 10
259.492308
 20
-204.421702
 10
259.749729
 20
-205.033916
 10
260.002571
 20
-205.653924
 10
260.250702
 20
-206.28157
 10
260.493779
 20
-206.916145
 10
260.731766
 20
-207.55769
 10
260.964625
 20
-208.20625
 10
261.192309
 20
-208.861869
 10
261.412713
 20
-209.518717
 10
261.624756
 20
-210.17358
 10
261.828477
 20
-210.82643
 10
262.023921
 20
-211.477244
 10
262.21113
 20
-212.126002
 10
262.390147
 20
-212.772684
 10
262.561016
 20
-213.417277
 10
262.72378
 20
-214.059766
 10
262.878582
 20
-214.700504
 10
263.02576
 20
-215.340711
 10
263.165316
 20
-215.980279
 10
263.297254
 20
-216.619108
 10
263.421579
 20
-217.257098
 10
263.5383
 20
-217.894154
 10
263.647425
 20
-218.530184
 10
263.748968
 20
-219.1651
 10
263.84294
 20
-219.798817
 10
263.929398
 20
-220.43151
 10
264.008465
 20
-221.063884
 10
264.080141
 20
-221.695818
 10
264.144425
 20
-222.32719
 10
264.201323
 20
-222.957884
 10
264.250838
 20
-223.587786
 10
264.292979
 20
-224.216782
 10
264.327755
 20
-224.844763
 10
264.355177
 20
-225.471622
 10
264.375258
 20
-226.097254
 10
264.388042
 20
-226.722347
 10
264.393536
 20
-227.346871
 10
264.391747
 20
-227.970695
 10
264.382683
 20
-228.593691
 10
264.366355
 20
-229.21573
 10
264.342776
 20
-229.836686
 10
264.311959
 20
-230.456438
 10
264.273932
 20
-231.074969
 10
264.228465
 20
-231.696333
 10
264.17552
 20
-232.320484
 10
264.115065
 20
-232.947375
 10
264.047064
 20
-233.576954
 10
263.971483
 20
-234.209165
 10
263.888291
 20
-234.843949
 10
263.797455
 20
-235.481241
 10
263.698946
 20
-236.120972
 10
263.592733
 20
-236.763071
 10
263.478907
 20
-237.40673
 10
263.357494
 20
-238.051608
 10
263.228476
 20
-238.697647
 10
263.091837
 20
-239.34479
 10
262.947518
 20
-239.99318
 10
262.795403
 20
-240.643204
 10
262.635473
 20
-241.294762
 10
262.468728
 20
-241.943545
 10
262.295777
 20
-242.587186
 10
262.116664
 20
-243.22566
 10
261.931436
 20
-243.858946
 10
261.739993
 20
-244.487525
 10
261.542051
 20
-245.112451
 10
261.337661
 20
-245.733618
 10
261.126877
 20
-246.350924
 10
260.90975
 20
-246.964269
 10
260.686335
 20
-247.573557
 10
260.456685
 20
-248.178695
 10
260.220855
 20
-248.779593
 10
259.978899
 20
-249.376166
 10
259.731032
 20
-249.967927
 10
259.477625
 20
-250.554047
 10
259.218737
 20
-251.134474
 10
258.954425
 20
-251.709165
 10
258.684748
 20
-252.278078
 10
258.40976
 20
-252.841174
 10
258.129669
 20
-253.398103
 10
257.844685
 20
-253.948527
 10
257.554876
 20
-254.492409
 10
257.260306
 20
-255.029715
 10
256.96104
 20
-255.560417
 10
256.65714
 20
-256.08449
 10
256.348664
 20
-256.601914
 10
256.035672
 20
-257.112673
 10
255.718219
 20
-257.616753
 10
255.396361
 20
-258.114145
 10
255.06998
 20
-258.605106
 10
254.739018
 20
-259.089793
 10
254.403562
 20
-259.568134
 10
254.063701
 20
-260.040063
 10
253.719519
 20
-260.505518
 10
253.369819
 20
-260.966228
 10
253.010383
 20
-261.427805
 10
252.641027
 20
-261.890354
 10
252.261557
 20
-262.353985
 10
251.871767
 20
-262.818814
 10
251.471341
 20
-263.285097
 10
251.058479
 20
-263.754795
 10
250.632645
 20
-264.228337
 10
250.193239
 20
-264.706202
 10
249.739578
 20
-265.188934
 10
249.271044
 20
-265.676987
 10
248.786951
 20
-266.170863
 10
248.286269
 20
-266.671397
 10
247.767795
 20
-267.179569
 10
247.227283
 20
-267.699341
 10
246.656829
 20
-268.238052
 10
246.056185
 20
-268.795351
 10
245.456339
 20
-269.341942
 10
244.857271
 20
-269.877926
 10
244.261
 20
-270.401588
 10
243.667293
 20
-270.913259
 10
243.075937
 20
-271.413247
 10
242.486731
 20
-271.901838
 10
241.89949
 20
-272.379299
 10
241.31404
 20
-272.845879
 10
240.730119
 20
-273.301904
 10
240.145475
 20
-273.749235
 10
239.56015
 20
-274.187902
 10
238.974182
 20
-274.617933
 10
238.387608
 20
-275.03936
 10
237.800461
 20
-275.452216
 10
237.212773
 20
-275.856535
 10
236.624573
 20
-276.252352
 10
236.035727
 20
-276.639812
 10
235.446022
 20
-277.01911
 10
234.855509
 20
-277.390258
 10
234.264234
 20
-277.753272
 10
233.672245
 20
-278.108169
 10
233.079583
 20
-278.454969
 10
232.48629
 20
-278.79369
 10
231.892402
 20
-279.124355
 10
231.297739
 20
-279.44711
 10
230.701555
 20
-279.762402
 10
230.10396
 20
-280.0702
 10
229.505063
 20
-280.370475
 10
228.904969
 20
-280.663211
 10
228.301161
 20
-280.949671
 10
227.693589
 20
-281.229872
 10
227.08235
 20
-281.503759
 10
226.467542
 20
-281.771282
 10
225.848845
 20
-282.032572
 10
225.226118
 20
-282.287677
 10
224.599455
 20
-282.536543
 10
223.968948
 20
-282.779118
 10
223.334694
 20
-283.015349
 10
222.696793
 20
-283.245185
 10
222.055347
 20
-283.468575
 10
221.41046
 20
-283.685469
 10
220.762373
 20
-283.895769
 10
220.111862
 20
-284.099212
 10
219.459031
 20
-284.295762
 10
218.803986
 20
-284.485384
 10
218.146829
 20
-284.668031
 10
217.491771
 20
-284.842523
 10
216.838901
 20
-285.008884
 10
216.188242
 20
-285.167153
 10
215.539817
 20
-285.317373
 10
214.892865
 20
-285.459769
 10
214.247181
 20
-285.594423
 10
213.60285
 20
-285.72135
 10
212.959954
 20
-285.840566
 10
212.318573
 20
-285.952088
 10
211.678782
 20
-286.055937
 10
211.04065
 20
-286.152131
 10
210.404247
 20
-286.240695
 10
209.769638
 20
-286.321655
 10
209.135192
 20
-286.395256
 10
208.500644
 20
-286.461543
 10
207.866125
 20
-286.520511
 10
207.231762
 20
-286.572157
 10
206.597313
 20
-286.616514
 10
205.961286
 20
-286.653697
 10
205.323795
 20
-286.683687
 10
204.684953
 20
-286.706466
 10
204.044879
 20
-286.722018
 10
203.403777
 20
-286.730324
 10
202.761832
 20
-286.731373
 10
202.119161
 20
-286.725155
 10
201.475882
 20
-286.711662
 10
200.832114
 20
-286.690888
 10
200.187978
 20
-286.66283
 10
199.543596
 20
-286.627485
 10
198.899091
 20
-286.584853
 10
198.254588
 20
-286.534935
 10
197.610335
 20
-286.477744
 10
196.96661
 20
-286.413299
 10
196.323532
 20
-286.341612
 10
195.681224
 20
-286.262692
 10
195.039805
 20
-286.176555
 10
194.399398
 20
-286.083216
 10
193.760122
 20
-285.982692
 10
193.122098
 20
-285.875002
 10
192.485445
 20
-285.760168
 10
191.850196
 20
-285.638197
 10
191.216342
 20
-285.509088
 10
190.584005
 20
-285.372866
 10
189.953305
 20
-285.229556
 10
189.324363
 20
-285.079188
 10
188.697299
 20
-284.92179
 10
188.072232
 20
-284.757395
 10
187.44928
 20
-284.586034
 10
186.828561
 20
-284.407743
 10
186.209823
 20
-284.222456
 10
185.592488
 20
-284.030002
 10
184.976668
 20
-283.830407
 10
184.36248
 20
-283.6237
 10
183.750038
 20
-283.409911
 10
183.13946
 20
-283.189072
 10
182.530861
 20
-282.96122
 10
181.92436
 20
-282.72639
 10
181.320073
 20
-282.484622
 10
180.718137
 20
-282.235964
 10
180.118706
 20
-281.980474
 10
179.52189
 20
-281.718194
 10
178.927798
 20
-281.44917
 10
178.336539
 20
-281.173446
 10
177.748223
 20
-280.891071
 10
177.162959
 20
-280.602095
 10
176.580854
 20
-280.306568
 10
176.002017
 20
-280.004544
 10
175.427531
 20
-279.696579
 10
174.858787
 20
-279.383423
 10
174.29585
 20
-279.065147
 10
173.738784
 20
-278.741818
 10
173.187646
 20
-278.413505
 10
172.642492
 20
-278.080275
 10
172.103371
 20
-277.742191
 10
171.570331
 20
-277.399319
 10
171.043414
 20
-277.051722
 10
170.522291
 20
-276.699221
 10
170.006183
 20
-276.341325
 10
169.495189
 20
-275.978117
 10
168.989402
 20
-275.60968
 10
168.488917
 20
-275.236097
 10
167.993821
 20
-274.857454
 10
167.5042
 20
-274.473833
 10
167.020137
 20
-274.085318
 10
166.541712
 20
-273.691992
 10
166.068999
 20
-273.293941
 10
165.601169
 20
-272.890492
 10
165.137989
 20
-272.481452
 10
164.679558
 20
-272.066903
 10
164.225972
 20
-271.646931
 10
163.777327
 20
-271.221623
 10
163.333716
 20
-270.791066
 10
162.895231
 20
-270.35535
 10
162.461965
 20
-269.914566
 10
162.034007
 20
-269.468806
 10
161.611431
 20
-269.018153
 10
161.193912
 20
-268.562264
 10
160.781541
 20
-268.101232
 10
160.374407
 20
-267.635149
 10
159.972599
 20
-267.16411
 10
159.576204
 20
-266.688214
 10
159.185308
 20
-266.207557
 10
158.799995
 20
-265.722242
 10
158.419443
 20
-265.231245
 10
158.042698
 20
-264.73332
 10
157.669822
 20
-264.228484
 10
157.300873
 20
-263.716758
 10
156.935916
 20
-263.198163
 10
156.575015
 20
-262.672729
 10
156.218236
 20
-262.140485
 10
155.86565
 20
-261.601468
 10
155.517327
 20
-261.055717
 10
155.1734
 20
-260.503366
 10
154.834333
 20
-259.945089
 10
154.500184
 20
-259.380927
 10
154.171011
 20
-258.810923
 10
153.846873
 20
-258.235126
 10
153.527309
 20
-257.652668
 10
153.212132
 20
-257.063135
 10
152.901389
 20
-256.466519
 10
152.595126
 20
-255.86281
 10
152.293393
 20
-255.252006
 10
151.996238
 20
-254.634104
 10
151.703715
 20
-254.009106
 10
151.415767
 20
-253.376787
 10
151.132317
 20
-252.736863
 10
150.85339
 20
-252.089259
 10
150.579012
 20
-251.433901
 10
150.309209
 20
-250.770713
 10
150.04401
 20
-250.099616
 10
149.783443
 20
-249.420533
 10
149.527534
 20
-248.733386
 10
149.274973
 20
-248.034532
 10
149.02495
 20
-247.321485
 10
148.777316
 20
-246.593468
 10
148.531901
 20
-245.849611
 10
148.287343
 20
-245.085438
 10
148.041507
 20
-244.293811
 10
147.793483
 20
-243.471074
 10
147.542352
 20
-242.613323
 10
147.287695
 20
-241.718192
 10
147.027915
 20
-240.779118
 10
146.758925
 20
-239.780369
 10
146.473
 20
-238.692052
 10
146.158559
 20
-237.469017
 10
145.748029
 20
-235.848702
 10
145.313269
 20
-234.135965
 10
144.996794
 20
-232.914272
 10
144.729734
 20
-231.911799
 10
144.487658
 20
-231.032137
 10
144.262064
 20
-230.240932
 10
144.048464
 20
-229.519422
 10
143.842416
 20
-228.849989
 10
143.64324
 20
-228.228432
 10
143.44854
 20
-227.645356
 10
143.256377
 20
-227.093445
 10
143.066687
 20
-226.571291
 10
142.878283
 20
-226.074436
 10
142.690196
 20
-225.599339
 10
142.502915
 20
-225.146436
 10
142.316126
 20
-224.71412
 10
142.129114
 20
-224.299936
 10
141.938695
 20
-223.895867
 10
141.735441
 20
-223.481331
 10
141.51826
 20
-223.054602
 10
141.285756
 20
-222.61348
 10
141.0382
 20
-222.159101
 10
140.775187
 20
-221.691269
 10
140.49502
 20
-221.207449
 10
140.19545
 20
-220.704284
 10
139.873359
 20
-220.177112
 10
139.524224
 20
-219.619157
 10
139.144414
 20
-219.025525
 10
138.743646
 20
-218.412359
 10
138.319057
 20
-217.775781
 10
137.890213
 20
-217.146057
 10
137.484077
 20
-216.563029
 10
137.094471
 20
-216.016786
 10
136.714993
 20
-215.497524
 10
136.342761
 20
-215.000716
 10
135.976354
 20
-214.524016
 10
135.617211
 20
-214.068913
 10
135.264615
 20
-213.634045
 10
134.917283
 20
-213.217391
 10
134.573618
 20
-212.816645
 10
134.232607
 20
-212.430225
 10
133.884824
 20
-212.047099
 10
133.528626
 20
-211.665475
 10
133.163969
 20
-211.285398
 10
132.79105
 20
-210.907172
 10
132.410104
 20
-210.531122
 10
132.02109
 20
-210.157287
 10
131.62397
 20
-209.785708
 10
131.21871
 20
-209.416432
 10
130.805278
 20
-209.049507
 10
130.383635
 20
-208.68499
 10
129.955726
 20
-208.324651
 10
129.521911
 20
-207.968833
 10
129.082266
 20
-207.617625
 10
128.636867
 20
-207.271115
 10
128.185797
 20
-206.929396
 10
127.729144
 20
-206.592558
 10
127.267615
 20
-206.261157
 10
126.802246
 20
-205.935956
 10
126.333156
 20
-205.61703
 10
125.860463
 20
-205.304454
 10
125.384288
 20
-204.998298
 10
124.904749
 20
-204.69863
 10
124.421972
 20
-204.405505
 10
123.933505
 20
-204.117417
 10
123.439351
 20
-203.834399
 10
122.939577
 20
-203.556527
 10
122.43426
 20
-203.283876
 10
121.923477
 20
-203.016524
 10
121.407314
 20
-202.754547
 10
120.885751
 20
-202.497967
 10
120.358779
 20
-202.246815
 10
119.826463
 20
-202.001154
 10
119.288868
 20
-201.76105
 10
118.746067
 20
-201.526569
 10
118.198135
 20
-201.297776
 10
117.645368
 20
-201.074832
 10
117.088336
 20
-200.857998
 10
116.527133
 20
-200.647334
 10
115.961856
 20
-200.442898
 10
115.392608
 20
-200.244749
 10
114.819494
 20
-200.052944
 10
114.242639
 20
-199.867547
 10
113.662331
 20
-199.688671
 10
113.078668
 20
-199.516363
 10
112.491754
 20
-199.35067
 10
111.901697
 20
-199.191639
 10
111.308604
 20
-199.039314
 10
110.712583
 20
-198.89377
 10
110.122295
 20
-198.757159
 10
109.53812
 20
-198.629475
 10
108.959825
 20
-198.510568
 10
108.387191
 20
-198.400295
 10
107.820011
 20
-198.298523
 10
107.258096
 20
-198.205124
 10
106.70073
 20
-198.119892
 10
106.14762
 20
-198.042703
 10
105.598738
 20
-197.973481
 10
105.054055
 20
-197.912152
 10
104.51354
 20
-197.858644
 10
103.97716
 20
-197.812886
 10
103.443531
 20
-197.774667
 10
102.907071
 20
-197.743521
 10
102.367881
 20
-197.719484
 10
101.826066
 20
-197.702595
 10
101.281738
 20
-197.692889
 10
100.735014
 20
-197.690397
 10
100.186017
 20
-197.695153
 10
99.635228
 20
-197.707185
 10
99.083024
 20
-197.726511
 10
98.529518
 20
-197.75315
 10
97.974831
 20
-197.787115
 10
97.419084
 20
-197.828422
 10
96.862404
 20
-197.87708
 10
96.304502
 20
-197.933114
 10
95.740204
 20
-197.997053
 10
95.169266
 20
-198.069014
 10
94.591425
 20
-198.149126
 10
94.006399
 20
-198.237523
 10
93.413884
 20
-198.334352
 10
92.813546
 20
-198.439785
 10
92.211326
 20
-198.552914
 10
91.609404
 20
-198.673381
 10
91.007828
 20
-198.801154
 10
90.388671
 20
-198.939972
 10
89.739898
 20
-199.092732
 10
89.067312
 20
-199.258421
 10
88.366994
 20
-199.438266
 10
87.633189
 20
-199.634024
 10
86.857223
 20
-199.848326
 10
86.026813
 20
-200.084933
 10
85.130259
 20
-200.347634
 10
84.149002
 20
-200.64235
 10
83.028005
 20
-200.985993
 10
81.368285
 20
-201.500075
 10
80.041443
 20
-201.906665
 10
78.963563
 20
-202.229729
 10
78.032771
 20
-202.501
 10
77.19231
 20
-202.73805
 10
76.421362
 20
-202.947654
 10
75.683547
 20
-203.140544
 10
74.964732
 20
-203.320845
 10
74.262888
 20
-203.489295
 10
73.576328
 20
-203.646507
 10
72.901991
 20
-203.793413
 10
72.229239
 20
-203.932512
 10
71.558152
 20
-204.063824
 10
70.888801
 20
-204.187368
 10
70.221258
 20
-204.303167
 10
69.555588
 20
-204.411242
 10
68.891853
 20
-204.511618
 10
68.230113
 20
-204.604321
 10
67.570424
 20
-204.689373
 10
66.914112
 20
-204.766633
 10
66.261618
 20
-204.836095
 10
65.612945
 20
-204.897811
 10
64.96809
 20
-204.951834
 10
64.325395
 20
-204.998369
 10
63.681297
 20
-205.037719
 10
63.035917
 20
-205.069866
 10
62.389378
 20
-205.094794
 10
61.741807
 20
-205.112491
 10
61.091978
 20
-205.122987
 10
60.439578
 20
-205.126265
 10
59.784681
 20
-205.122296
 10
59.127366
 20
-205.111054
 10
58.467713
 20
-205.092512
 10
57.805808
 20
-205.066645
 10
57.141741
 20
-205.033429
 10
56.475603
 20
-204.992841
 10
55.80749
 20
-204.944862
 10
55.136927
 20
-204.889432
 10
54.463951
 20
-204.826522
 10
53.788618
 20
-204.756104
 10
53.110991
 20
-204.678145
 10
52.43512
 20
-204.593061
 10
51.7626
 20
-204.501056
 10
51.093506
 20
-204.402166
 10
50.42791
 20
-204.296429
 10
49.76583
 20
-204.183873
 10
49.107302
 20
-204.064532
 10
48.452413
 20
-203.938446
 10
47.801251
 20
-203.805658
 10
47.153897
 20
-203.666212
 10
46.510427
 20
-203.52015
 10
45.870918
 20
-203.367516
 10
45.235439
 20
-203.208353
 10
44.604058
 20
-203.042708
 10
43.976148
 20
-202.870445
 10
43.351643
 20
-202.691566
 10
42.73065
 20
-202.506119
 10
42.11327
 20
-202.314153
 10
41.499605
 20
-202.115715
 10
40.88975
 20
-201.910857
 10
40.283799
 20
-201.699629
 10
39.681842
 20
-201.482082
 10
39.083966
 20
-201.258266
 10
38.489998
 20
-201.02814
 10
37.899946
 20
-200.791724
 10
37.313916
 20
-200.549075
 10
36.732009
 20
-200.300254
 10
36.154325
 20
-200.04532
 10
35.580961
 20
-199.784334
 10
35.012009
 20
-199.517357
 10
34.44756
 20
-199.244449
 10
33.8877
 20
-198.965672
 10
33.332015
 20
-198.680845
 10
32.779664
 20
-198.389556
 10
32.230764
 20
-198.091863
 10
31.685428
 20
-197.78783
 10
31.14377
 20
-197.477522
 10
30.604695
 20
-197.160322
 10
30.06736
 20
-196.835722
 10
29.531859
 20
-196.50375
 10
28.998292
 20
-196.164435
 10
28.466757
 20
-195.81781
 10
27.937229
 20
-195.463828
 10
27.409765
 20
-195.102493
 10
26.884443
 20
-194.733828
 10
26.361344
 20
-194.357854
 10
25.840552
 20
-193.9746
 10
25.322153
 20
-193.584093
 10
24.806236
 20
-193.186367
 10
24.292891
 20
-192.781459
 10
23.782213
 20
-192.369404
 10
23.275291
 20
-191.951043
 10
22.772538
 20
-191.526698
 10
22.274046
 20
-191.096437
 10
21.779907
 20
-190.660331
 10
21.290214
 20
-190.218452
 10
20.805056
 20
-189.770873
 10
20.324525
 20
-189.317672
 10
19.848711
 20
-188.858926
 10
19.377704
 20
-188.394714
 10
18.911511
 20
-187.92504
 10
18.450216
 20
-187.449981
 10
17.993906
 20
-186.969618
 10
17.542664
 20
-186.484033
 10
17.096574
 20
-185.993312
 10
16.65572
 20
-185.497541
 10
16.220184
 20
-184.996807
 10
15.790046
 20
-184.491198
 10
15.366584
 20
-183.982181
 10
14.953452
 20
-183.474147
 10
14.550466
 20
-182.967
 10
14.15745
 20
-182.460649
 10
13.774239
 20
-181.955011
 10
13.400495
 20
-181.449767
 10
13.036042
 20
-180.944798
 10
12.680786
 20
-180.44009
 10
12.334633
 20
-179.935625
 10
11.997496
 20
-179.431385
 10
11.669709
 20
-178.927984
 10
11.35122
 20
-178.42547
 10
11.041926
 20
-177.923814
 10
10.741726
 20
-177.422987
 10
10.450519
 20
-176.922965
 10
10.167012
 20
-176.421678
 10
9.890725
 20
-175.918363
 10
9.621699
 20
-175.413139
 10
9.359974
 20
-174.906127
 10
9.105581
 20
-174.397442
 10
8.857668
 20
-173.8855
 10
8.612788
 20
-173.363255
 10
8.370885
 20
-172.830354
 10
8.131899
 20
-172.286418
 10
7.895761
 20
-171.731029
 10
7.662397
 20
-171.163726
 10
7.431894
 20
-170.584419
 10
7.204149
 20
-169.992541
 10
6.979036
 20
-169.387438
 10
6.756415
 20
-168.768374
 10
6.53586
 20
-168.133799
 10
6.316549
 20
-167.480935
 10
6.098098
 20
-166.808105
 10
5.880047
 20
-166.113306
 10
5.661335
 20
-165.392565
 10
5.439606
 20
-164.637343
 10
5.221505
 20
-163.868761
 10
5.015309
 20
-163.115231
 10
4.819359
 20
-162.371377
 10
4.63308
 20
-161.635501
 10
4.456267
 20
-160.907195
 10
4.28875
 20
-160.186161
 10
4.130427
 20
-159.472367
 10
3.981144
 20
-158.765545
 10
3.840757
 20
-158.065445
 10
3.70913
 20
-157.371833
 10
3.586135
 20
-156.684489
 10
3.471651
 20
-156.003206
 10
3.365565
 20
-155.327788
 10
3.267275
 20
-154.655062
 10
3.175905
 20
-153.979464
 10
3.091489
 20
-153.30109
 10
3.014059
 20
-152.620041
 10
2.943646
 20
-151.936417
 10
2.88028
 20
-151.250324
 10
2.823991
 20
-150.561871
 10
2.7748
 20
-149.871167
 10
2.732597
 20
-149.176488
 10
2.697418
 20
-148.477795
 10
2.669301
 20
-147.775111
 10
2.648284
 20
-147.068459
 10
2.634407
 20
-146.357867
 10
2.627708
 20
-145.643365
 10
2.628226
 20
-144.924986
 10
2.636023
 20
-144.203007
 10
2.651072
 20
-143.484471
 10
2.673339
 20
-142.769435
 10
2.702788
 20
-142.057952
 10
2.739383
 20
-141.350071
 10
2.783088
 20
-140.64584
 10
2.833868
 20
-139.945301
 10
2.891685
 20
-139.248495
 10
2.956507
 20
-138.555403
 10
3.028321
 20
-137.865812
 10
3.107089
 20
-137.179801
 10
3.192772
 20
-136.497445
 10
3.285332
 20
-135.818812
 10
3.384731
 20
-135.143971
 10
3.490927
 20
-134.472983
 10
3.603882
 20
-133.805909
 10
3.723554
 20
-133.142805
 10
3.850049
 20
-132.482901
 10
3.983346
 20
-131.826193
 10
4.123405
 20
-131.172782
 10
4.270185
 20
-130.522761
 10
4.423645
 20
-129.876224
 10
4.583743
 20
-129.23326
 10
4.750435
 20
-128.593954
 10
4.923678
 20
-127.958389
 10
5.103458
 20
-127.326534
 10
5.289826
 20
-126.698127
 10
5.482735
 20
-126.073272
 10
5.682136
 20
-125.452073
 10
5.887978
 20
-124.83463
 10
6.100212
 20
-124.221041
 10
6.318784
 20
-123.611399
 10
6.543645
 20
-123.005795
 10
6.774741
 20
-122.404317
 10
7.012203
 20
-121.806557
 10
7.256509
 20
-121.211265
 10
7.507614
 20
-120.618557
 10
7.765473
 20
-120.028547
 10
8.030038
 20
-119.441353
 10
8.30126
 20
-118.857087
 10
8.579086
 20
-118.275864
 10
8.863464
 20
-117.697799
 10
9.154338
 20
-117.123002
 10
9.451664
 20
-116.551565
 10
9.755444
 20
-115.983477
 10
10.065623
 20
-115.418846
 10
10.382141
 20
-114.857781
 10
10.704939
 20
-114.300387
 10
11.033953
 20
-113.746771
 10
11.369122
 20
-113.197036
 10
11.710381
 20
-112.651286
 10
12.057662
 20
-112.109623
 10
12.410916
 20
-111.572118
 10
12.770498
 20
-111.038219
 10
13.136347
 20
-110.50803
 10
13.508397
 20
-109.981655
 10
13.886583
 20
-109.459196
 10
14.270834
 20
-108.940757
 10
14.661082
 20
-108.426439
 10
15.057253
 20
-107.916343
 10
15.459273
 20
-107.410571
 10
15.867066
 20
-106.909221
 10
16.280639
 20
-106.412288
 10
16.699923
 20
-105.91986
 10
17.12484
 20
-105.432032
 10
17.555313
 20
-104.948898
 10
17.991262
 20
-104.470548
 10
18.432607
 20
-103.997074
 10
18.879264
 20
-103.528567
 10
19.331151
 20
-103.065114
 10
19.78818
 20
-102.606803
 10
20.250576
 20
-102.153407
 10
20.718276
 20
-101.704993
 10
21.191196
 20
-101.261647
 10
21.669249
 20
-100.823455
 10
22.152347
 20
-100.390503
 10
22.640401
 20
-99.962875
 10
23.133318
 20
-99.540653
 10
23.631007
 20
-99.123919
 10
24.133374
 20
-98.712753
 10
24.640276
 20
-98.307274
 10
25.151615
 20
-97.90756
 10
25.667295
 20
-97.513684
 10
26.187218
 20
-97.12572
 10
26.711285
 20
-96.743739
 10
27.239397
 20
-96.367811
 10
27.771454
 20
-95.998004
 10
28.307356
 20
-95.634384
 10
28.847001
 20
-95.277014
 10
29.390513
 20
-94.925806
 10
29.937803
 20
-94.580818
 10
30.488763
 20
-94.242114
 10
31.043289
 20
-93.909757
 10
31.601272
 20
-93.583809
 10
32.162605
 20
-93.264328
 10
32.727181
 20
-92.951372
 10
33.294891
 20
-92.644996
 10
33.865628
 20
-92.345257
 10
34.43851
 20
-92.052614
 10
35.01332
 20
-91.767163
 10
35.589953
 20
-91.488935
 10
36.168308
 20
-91.217963
 10
36.748282
 20
-90.954272
 10
37.329778
 20
-90.697892
 10
37.911767
 20
-90.449259
 10
38.493955
 20
-90.208467
 10
39.076249
 20
-89.975519
 10
39.65856
 20
-89.750415
 10
40.240806
 20
-89.533151
 10
40.822906
 20
-89.323721
 10
41.404783
 20
-89.122118
 10
41.986364
 20
-88.928332
 10
42.567579
 20
-88.742351
 10
43.148459
 20
-88.564129
 10
43.729293
 20
-88.393542
 10
44.309959
 20
-88.230598
 10
44.890343
 20
-88.075301
 10
45.470334
 20
-87.927652
 10
46.050658
 20
-87.787419
 10
46.635557
 20
-87.653543
 10
47.224983
 20
-87.526073
 10
47.81888
 20
-87.405058
 10
48.41719
 20
-87.290547
 10
49.019978
 20
-87.182561
 10
49.628217
 20
-87.080961
 10
50.241908
 20
-86.985797
 10
50.861055
 20
-86.897121
 10
51.485653
 20
-86.814984
 10
52.115787
 20
-86.739426
 10
52.75169
 20
-86.670473
 10
53.393413
 20
-86.608175
 10
54.041006
 20
-86.552583
 10
54.694522
 20
-86.503755
 10
55.352699
 20
-86.461849
 10
56.015024
 20
-86.426945
 10
56.681469
 20
-86.399086
 10
57.352003
 20
-86.378314
 10
58.02659
 20
-86.364673
 10
58.703111
 20
-86.35826
 10
59.379268
 20
-86.359125
 10
60.054947
 20
-86.367264
 10
60.730032
 20
-86.382672
 10
61.404411
 20
-86.405341
 10
62.077968
 20
-86.435262
 10
62.750594
 20
-86.472424
 10
63.422176
 20
-86.516816
 10
64.092604
 20
-86.568419
 10
64.762927
 20
-86.627306
 10
65.43303
 20
-86.693472
 10
66.102789
 20
-86.766909
 10
66.772082
 20
-86.847604
 10
67.443267
 20
-86.935838
 10
68.117198
 20
-87.031747
 10
68.793846
 20
-87.135338
 10
69.48267
 20
-87.248078
 10
70.185233
 20
-87.370356
 10
70.902759
 20
-87.502534
 10
71.636682
 20
-87.645038
 10
72.387897
 20
-87.798212
 10
73.158323
 20
-87.962623
 10
73.950271
 20
-88.13895
 10
74.768891
 20
-88.328528
 10
75.621154
 20
-88.5332
 10
76.513744
 20
-88.754847
 10
77.455709
 20
-88.996031
 10
78.460278
 20
-89.260487
 10
79.548701
 20
-89.554193
 10
80.767748
 20
-89.890197
 10
82.213252
 20
-90.295351
 10
84.40551
 20
-90.915394
 10
85.823627
 20
-91.31397
 10
86.998466
 20
-91.637912
 10
87.903472
 20
-91.880352
 10
88.681782
 20
-92.081234
 10
89.373901
 20
-92.252131
 10
90.004395
 20
-92.399991
 10
90.58673
 20
-92.528797
 10
91.130728
 20
-92.641407
 10
91.639182
 20
-92.738986
 10
92.120392
 20
-92.823725
 10
92.579774
 20
-92.897058
 10
93.020339
 20
-92.959867
 10
93.453791
 20
-93.014349
 10
93.912438
 20
-93.064871
 10
94.394595
 20
-93.110828
 10
94.892035
 20
-93.151049
 10
95.406562
 20
-93.185477
 10
95.94043
 20
-93.214049
 10
96.497009
 20
-93.236708
 10
97.080437
 20
-93.253358
 10
97.69638
 20
-93.263854
 10
98.345633
 20
-93.267843
 10
99.032474
 20
-93.265005
 10
99.767039
 20
-93.254849
 10
100.499878
 20
-93.237433
 10
101.212591
 20
-93.213121
 10
101.907016
 20
-93.18204
 10
102.577785
 20
-93.144617
 10
103.227615
 20
-93.100968
 10
103.858694
 20
-93.051188
 10
104.472821
 20
-92.995357
 10
105.071498
 20
-92.933541
 10
105.656173
 20
-92.865784
 10
106.229166
 20
-92.791992
 10
106.791091
 20
-92.712229
 10
107.342496
 20
-92.626553
 10
107.885781
 20
-92.534741
 10
108.425298
 20
-92.436174
 10
108.960952
 20
-92.330903
 10
109.492652
 20
-92.218979
 10
110.020314
 20
-92.100457
 10
110.543858
 20
-91.975388
 10
111.063207
 20
-91.843816
 10
111.574742
 20
-91.706679
 10
112.077589
 20
-91.564292
 10
112.571969
 20
-91.4167
 10
113.062904
 20
-91.262547
 10
113.556208
 20
-91.100063
 10
114.051877
 20
-90.929179
 10
114.550073
 20
-90.749779
 10
115.05282
 20
-90.561064
 10
115.560388
 20
-90.36283
 10
116.073066
 20
-90.154852
 10
116.591173
 20
-89.936886
 10
117.115056
 20
-89.708667
 10
117.645099
 20
-89.469898
 10
118.180342
 20
-89.220872
 10
118.719867
 20
-88.961888
 10
119.263959
 20
-88.692699
 10
119.80911
 20
-88.414894
 10
120.34958
 20
-88.131302
 10
120.885267
 20
-87.841997
 10
121.415345
 20
-87.547435
 10
121.938253
 20
-87.248509
 10
122.453992
 20
-86.945277
 10
122.962563
 20
-86.637794
 10
123.463975
 20
-86.326114
 10
123.958236
 20
-86.010288
 10
124.445464
 20
-85.690303
 10
124.926572
 20
-85.365618
 10
125.401486
 20
-85.03632
 10
125.870149
 20
-84.702508
 10
126.336321
 20
-84.36156
 10
126.800163
 20
-84.013324
 10
127.261581
 20
-83.657833
 10
127.720454
 20
-83.295141
 10
128.176688
 20
-82.925285
 10
128.630195
 20
-82.548296
 10
129.080884
 20
-82.164213
 10
129.528661
 20
-81.773074
 10
129.973431
 20
-81.374923
 10
130.413555
 20
-80.971169
 10
130.847248
 20
-80.563429
 10
131.274449
 20
-80.151794
 10
131.695102
 20
-79.736352
 10
132.109154
 20
-79.31719
 10
132.516556
 20
-78.894392
 10
132.916838
 20
-78.468471
 10
133.308441
 20
-78.041122
 10
133.69141
 20
-77.612385
 10
134.065796
 20
-77.182297
 10
134.43165
 20
-76.75089
 10
134.789023
 20
-76.318195
 10
135.137976
 20
-75.884248
 10
135.481039
 20
-75.446018
 10
135.818636
 20
-75.002976
 10
136.150676
 20
-74.555234
 10
136.477067
 20
-74.102902
 10
136.797721
 20
-73.646098
 10
137.112548
 20
-73.184937
 10
137.421522
 20
-72.719457
 10
137.72467
 20
-72.24961
 10
138.02191
 20
-71.77551
 10
138.313164
 20
-71.297271
 10
138.598354
 20
-70.815011
 10
138.877404
 20
-70.328849
 10
139.150248
 20
-69.83891
 10
139.417847
 20
-69.343469
 10
139.680291
 20
-68.842306
 10
139.93751
 20
-68.335482
 10
140.18943
 20
-67.823064
 10
140.43598
 20
-67.305123
 10
140.677087
 20
-66.781738
 10
140.912749
 20
-66.252831
 10
141.142996
 20
-65.718257
 10
141.367767
 20
-65.17806
 10
141.587001
 20
-64.632286
 10
141.800638
 20
-64.080989
 10
142.008614
 20
-63.524225
 10
142.211054
 20
-62.96159
 10
142.409045
 20
-62.389966
 10
142.602582
 20
-61.809114
 10
142.791659
 20
-61.218782
 10
142.976272
 20
-60.6187
 10
143.156416
 20
-60.00858
 10
143.332086
 20
-59.388103
 10
143.503319
 20
-58.756798
 10
143.670138
 20
-58.114192
 10
143.83257
 20
-57.459768
 10
143.990646
 20
-56.792954
 10
144.1447
 20
-56.113183
 10
144.33154
 20
-55.260363
 10
144.591363
 20
-54.046689
 10
144.911604
 20
-52.542632
 10
145.148028
 20
-51.45841
 10
145.357149
 20
-50.533656
 10
145.55268
 20
-49.703338
 10
145.738871
 20
-48.945716
 10
145.921649
 20
-48.233196
 10
146.107188
 20
-47.539418
 10
146.298076
 20
-46.853912
 10
146.495411
 20
-46.172384
 10
146.700358
 20
-45.490677
 10
146.912544
 20
-44.810139
 10
147.131472
 20
-44.132421
 10
147.357222
 20
-43.457246
 10
147.589891
 20
-42.784312
 10
147.829442
 20
-42.113726
 10
148.07584
 20
-41.445593
 10
148.329046
 20
-40.780019
 10
148.58902
 20
-40.117108
 10
148.855721
 20
-39.456964
 10
149.129109
 20
-38.799692
 10
149.408254
 20
-38.147552
 10
149.692554
 20
-37.501902
 10
149.981962
 20
-36.862747
 10
150.276433
 20
-36.230088
 10
150.575824
 20
-35.604149
 10
150.879621
 20
-34.985914
 10
151.18778
 20
-34.375351
 10
151.500259
 20
-33.772427
 10
151.817018
 20
-33.177105
 10
152.138017
 20
-32.589349
 10
152.463219
 20
-32.00912
 10
152.792589
 20
-31.43638
 10
153.126091
 20
-30.871088
 10
153.46448
 20
-30.311852
 10
153.808006
 20
-29.758197
 10
154.156592
 20
-29.210202
 10
154.510163
 20
-28.667944
 10
154.868641
 20
-28.131493
 10
155.233027
 20
-27.59929
 10
155.604128
 20
-27.07014
 10
155.981895
 20
-26.544138
 10
156.366276
 20
-26.021382
 10
156.757218
 20
-25.501968
 10
157.154664
 20
-24.985995
 10
157.558556
 20
-24.47356
 10
157.968832
 20
-23.964765
 10
158.385428
 20
-23.459709
 10
158.808039
 20
-22.958785
 10
159.23643
 20
-22.462283
 10
159.67053
 20
-21.970296
 10
160.110262
 20
-21.482915
 10
160.55555
 20
-21.00023
 10
161.006314
 20
-20.522332
 10
161.462475
 20
-20.049311
 10
161.923951
 20
-19.581254
 10
162.390658
 20
-19.11825
 10
162.862041
 20
-18.660857
 10
163.337872
 20
-18.209288
 10
163.818059
 20
-17.763619
 10
164.302508
 20
-17.323922
 10
164.791127
 20
-16.890268
 10
165.283824
 20
-16.462727
 10
165.780507
 20
-16.041363
 10
166.281084
 20
-15.62624
 10
166.785462
 20
-15.21742
 10
167.293775
 20
-14.814777
 10
167.805955
 20
-14.418355
 10
168.3219
 20
-14.028221
 10
168.841507
 20
-13.644442
 10
169.364676
 20
-13.26708
 10
169.891304
 20
-12.896196
 10
170.421291
 20
-12.531849
 10
170.954536
 20
-12.174094
 10
171.490941
 20
-11.822986
 10
172.029901
 20
-11.478908
 10
172.571183
 20
-11.141989
 10
173.114682
 20
-10.812269
 10
173.660298
 20
-10.489784
 10
174.20793
 20
-10.174567
 10
174.757483
 20
-9.866649
 10
175.308861
 20
-9.566058
 10
175.861972
 20
-9.272818
 10
176.416725
 20
-8.986952
 10
176.973508
 20
-8.708229
 10
177.532837
 20
-8.43637
 10
178.094584
 20
-8.171427
 10
178.658619
 20
-7.913451
 10
179.224811
 20
-7.662484
 10
179.795636
 20
-7.417405
 10
180.371737
 20
-7.177959
 10
180.953475
 20
-6.944026
 10
181.541467
 20
-6.715391
 10
182.135689
 20
-6.492113
 10
182.736113
 20
-6.27425
 10
183.342708
 20
-6.061858
 10
183.955928
 20
-5.854825
 10
184.576012
 20
-5.653123
 10
185.203018
 20
-5.456786
 10
185.837009
 20
-5.265854
 10
186.478043
 20
-5.080366
 10
187.12618
 20
-4.900364
 10
187.78148
 20
-4.72589
 10
188.444003
 20
-4.556987
 10
189.113613
 20
-4.393789
 10
189.780077
 20
-4.238871
 10
190.44342
 20
-4.09217
 10
191.103669
 20
-3.953629
 10
191.760847
 20
-3.823198
 10
192.41151
 20
-3.701518
 10
193.055253
 20
-3.588578
 10
193.692334
 20
-3.484236
 10
194.322995
 20
-3.388358
 10
194.948136
 20
-3.300711
 10
195.568989
 20
-3.221041
 10
196.185589
 20
-3.149278
 10
196.797973
 20
-3.085358
 10
197.406178
 20
-3.029215
 10
198.010358
 20
-2.980775
 10
198.6106
 20
-2.939973
 10
199.206889
 20
-2.906756
 10
199.799215
 20
-2.881071
 10
200.38757
 20
-2.862859
 10
200.975455
 20
-2.851937
 10
201.56684
 20
-2.848204
 10
202.161671
 20
-2.8517
 10
202.75989
 20
-2.862467
 10
203.361434
 20
-2.880547
 10
203.966181
 20
-2.905978
 10
204.573942
 20
-2.938794
 10
205.184669
 20
-2.979034
 10
205.798312
 20
-3.026733
 10
206.414814
 20
-3.081929
 10
207.034263
 20
-3.144668
 10
207.656879
 20
-3.215014
 10
208.282637
 20
-3.293011
 10
208.91151
 20
-3.378701
 10
209.543469
 20
-3.472128
 10
210.178415
 20
-3.573324
 10
210.816291
 20
-3.682327
 10
211.457072
 20
-3.799181
 10
212.10073
 20
-3.923928
 10
212.747284
 20
-4.056617
 10
213.397005
 20
-4.197355
 10
214.04992
 20
-4.346198
 10
214.706057
 20
-4.503207
 10
215.36544
 20
-4.668442
 10
216.028093
 20
-4.841966
 10
216.694039
 20
-5.02384
 10
217.363299
 20
-5.214129
 10
218.035895
 20
-5.412895
 10
218.712356
 20
-5.620354
 10
219.393003
 20
-5.836667
 10
220.077977
 20
-6.06195
 10
220.76742
 20
-6.296324
 10
221.459733
 20
-6.539327
 10
222.15445
 20
-6.790859
 10
222.847951
 20
-7.049679
 10
223.537751
 20
-7.314887
 10
224.223772
 20
-7.58644
 10
224.905934
 20
-7.864292
 10
225.584754
 20
-8.148639
 10
226.260225
 20
-8.439471
 10
226.932249
 20
-8.736739
 10
227.60073
 20
-9.040397
 10
228.265573
 20
-9.350393
 10
228.926684
 20
-9.666678
 10
229.583973
 20
-9.989199
 10
230.236973
 20
-10.317725
 10
230.884895
 20
-10.651849
 10
231.52767
 20
-10.991512
 10
232.165225
 20
-11.336656
 10
232.795777
 20
-11.686302
 10
233.417933
 20
-12.039641
 10
234.031778
 20
-12.396655
 10
234.637393
 20
-12.757325
 10
235.235308
 20
-13.121902
 10
235.825796
 20
-13.490494
 10
236.408855
 20
-13.863047
 10
236.984487
 20
-14.23951
 10
237.552698
 20
-14.619836
 10
238.113495
 20
-15.003975
 10
238.666888
 20
-15.391884
 10
239.21289
 20
-15.783518
 10
239.752538
 20
-16.179558
 10
240.287454
 20
-16.58115
 10
240.817544
 20
-16.988216
 10
241.342714
 20
-17.400678
 10
241.862874
 20
-17.818457
 10
242.377936
 20
-18.241473
 10
242.887811
 20
-18.669646
 10
243.392417
 20
-19.102895
 10
243.89167
 20
-19.541138
 10
244.38598
 20
-19.98472
 10
244.875405
 20
-20.43369
 10
245.359858
 20
-20.887967
 10
245.839251
 20
-21.347471
 10
246.3135
 20
-21.812119
 10
246.782522
 20
-22.281828
 10
247.246233
 20
-22.756513
 10
247.704553
 20
-23.236088
 10
248.157316
 20
-23.720383
 10
248.603698
 20
-24.208513
 10
249.043634
 20
-24.700385
 10
249.477066
 20
-25.195906
 10
249.903935
 20
-25.694984
 10
250.324186
 20
-26.197527
 10
250.737769
 20
-26.703448
 10
251.144635
 20
-27.212656
 10
251.544738
 20
-27.725066
 10
251.938129
 20
-28.240711
 10
252.325037
 20
-28.759856
 10
252.705396
 20
-29.282398
 10
253.079147
 20
-29.808229
 10
253.446232
 20
-30.337245
 10
253.806594
 20
-30.869345
 10
254.160182
 20
-31.404423
 10
254.506947
 20
-31.942381
 10
254.846841
 20
-32.483116
 10
255.179993
 20
-33.026794
 10
255.507392
 20
-33.574992
 10
255.828969
 20
-34.127615
 10
256.144654
 20
-34.684566
 10
256.454381
 20
-35.245744
 10
256.758084
 20
-35.811048
 10
257.055696
 20
-36.380374
 10
257.347153
 20
-36.953616
 10
257.632391
 20
-37.530665
 10
257.911348
 20
-38.111412
 10
258.183973
 20
-38.695767
 10
258.450211
 20
-39.283624
 10
258.710007
 20
-39.87488
 10
258.963308
 20
-40.469428
 10
259.210063
 20
-41.067158
 10
259.450221
 20
-41.667962
 10
259.683733
 20
-42.271729
 10
259.910551
 20
-42.878345
 10
260.130629
 20
-43.487698
 10
260.343866
 20
-44.099518
 10
260.550214
 20
-44.713672
 10
260.749634
 20
-45.330042
 10
260.942089
 20
-45.94851
 10
261.127543
 20
-46.568961
 10
261.305963
 20
-47.191274
 10
261.477316
 20
-47.815333
 10
261.641572
 20
-48.441018
 10
261.798705
 20
-49.068212
 10
261.94881
 20
-49.697276
 10
262.091875
 20
-50.328167
 10
262.227871
 20
-50.960767
 10
262.35677
 20
-51.594955
 10
262.478547
 20
-52.230613
 10
262.593178
 20
-52.867619
 10
262.70064
 20
-53.505853
 10
262.800913
 20
-54.145192
 10
262.89398
 20
-54.785516
 10
262.979938
 20
-55.427467
 10
263.058789
 20
-56.071103
 10
263.130509
 20
-56.71631
 10
263.195077
 20
-57.362969
 10
263.252474
 20
-58.010962
 10
263.30268
 20
-58.66017
 10
263.34568
 20
-59.310472
 10
263.381458
 20
-59.961744
 10
263.410002
 20
-60.613865
 10
263.431301
 20
-61.266708
 10
263.445345
 20
-61.920161
 10
263.452128
 20
-62.574108
 10
263.451643
 20
-63.228433
 10
263.443876
 20
-63.881404
 10
263.428859
 20
-64.530906
 10
263.40663
 20
-65.176879
 10
263.37723
 20
-65.819275
 10
263.340696
 20
-66.458049
 10
263.297069
 20
-67.093157
 10
263.246389
 20
-67.724558
 10
263.188701
 20
-68.352132
 10
263.124056
 20
-68.975744
 10
263.052498
 20
-69.595321
 10
262.974074
 20
-70.210795
 10
262.88883
 20
-70.822104
 10
262.796814
 20
-71.429189
 10
262.698072
 20
-72.031996
 10
262.592649
 20
-72.630476
 10
262.480594
 20
-73.224583
 10
262.361961
 20
-73.814278
 10
262.23613
 20
-74.402886
 10
262.102958
 20
-74.991078
 10
261.962461
 20
-75.578721
 10
261.814656
 20
-76.165682
 10
261.659568
 20
-76.751825
 10
261.496793
 20
-77.33865
 10
261.326181
 20
-77.926593
 10
261.147712
 20
-78.515586
 10
260.961367
 20
-79.105559
 10
260.767129
 20
-79.696436
 10
260.56509
 20
-80.287813
 10
260.355254
 20
-80.879569
 10
260.137609
 20
-81.471636
 10
259.912145
 20
-82.063944
 10
259.678854
 20
-82.656419
 10
259.43773
 20
-83.248985
 10
259.188769
 20
-83.841559
 10
258.931969
 20
-84.434058
 10
258.667332
 20
-85.026393
 10
258.395357
 20
-85.617345
 10
258.116533
 20
-86.205792
 10
257.830902
 20
-86.791628
 10
257.538508
 20
-87.374747
 10
257.239397
 20
-87.955044
 10
256.933617
 20
-88.532412
 10
256.621218
 20
-89.106745
 10
256.302251
 20
-89.677937
 10
255.97677
 20
-90.245882
 10
255.64474
 20
-90.810634
 10
255.306161
 20
-91.372182
 10
254.961089
 20
-91.93042
 10
254.609582
 20
-92.485243
 10
254.251701
 20
-93.036543
 10
253.887507
 20
-93.584215
 10
253.517065
 20
-94.128152
 10
253.140442
 20
-94.668252
 10
252.755811
 20
-95.207171
 10
252.359815
 20
-95.749585
 10
251.952107
 20
-96.295799
 10
251.532306
 20
-96.846152
 10
251.100056
 20
-97.400927
 10
250.655309
 20
-97.960004
 10
250.197586
 20
-98.523807
 10
249.726356
 20
-99.092809
 10
249.240618
 20
-99.668041
 10
248.738448
 20
-100.251589
 10
248.218731
 20
-100.844513
 10
247.680155
 20
-101.448064
 10
247.121292
 20
-102.063578
 10
246.540305
 20
-102.692806
 10
245.934888
 20
-103.337949
 10
245.303134
 20
-104.000716
 10
244.642319
 20
-104.683632
 10
243.948289
 20
-105.390658
 10
243.210218
 20
-106.132467
 10
242.416391
 20
-106.920367
 10
241.550417
 20
-107.770076
 10
240.584347
 20
-108.708435
 10
239.37626
 20
-109.873731
 10
238.478275
 20
-110.741871
 10
237.714048
 20
-111.488683
 10
237.083839
 20
-112.114556
 10
236.540073
 20
-112.665054
 10
236.053321
 20
-113.168646
 10
235.612968
 20
-113.635181
 10
235.218435
 20
-114.064237
 10
234.860387
 20
-114.464612
 10
234.513187
 20
-114.863849
 10
234.174752
 20
-115.264099
 10
233.839716
 20
-115.671556
 10
233.507134
 20
-116.087426
 10
233.177034
 20
-116.511783
 10
232.850465
 20
-116.94341
 10
232.528571
 20
-117.380888
 10
232.211448
 20
-117.824133
 10
231.898937
 20
-118.273396
 10
231.590173
 20
-118.729963
 10
231.285206
 20
-119.19385
 10
230.984092
 20
-119.665067
 10
230.686888
 20
-120.143623
 10
230.393653
 20
-120.62952
 10
230.10444
 20
-121.122756
 10
229.816913
 20
-121.627378
 10
229.529888
 20
-122.145662
 10
229.243072
 20
-122.678428
 10
228.95817
 20
-123.22287
 10
228.676922
 20
-123.775937
 10
228.399337
 20
-124.337754
 10
228.123168
 20
-124.912962
 10
227.845875
 20
-125.507198
 10
227.57316
 20
-126.108785
 10
227.308961
 20
-126.709273
 10
227.056258
 20
-127.301934
 10
226.818033
 20
-127.87946
 10
226.59318
 20
-128.443898
 10
226.380832
 20
-128.996849
 10
226.180522
 20
-129.538985
 10
225.991667
 20
-130.071334
 10
225.813777
 20
-130.594778
 10
225.647
 20
-131.108384
 10
225.490925
 20
-131.612839
 10
225.345129
 20
-132.108909
 10
225.207953
 20
-132.601567
 10
225.078304
 20
-133.094355
 10
224.955959
 20
-133.587741
 10
224.837176
 20
-134.096566
 10
224.722743
 20
-134.618457
 10
224.614531
 20
-135.145791
 10
224.512124
 20
-135.680788
 10
224.415345
 20
-136.224793
 10
224.324236
 20
-136.778135
 10
224.238904
 20
-137.340825
 10
224.159504
 20
-137.912565
 10
224.086084
 20
-138.493717
 10
224.018924
 20
-139.083111
 10
223.958875
 20
-139.674291
 10
223.905962
 20
-140.267131
 10
223.860373
 20
-140.859814
 10
223.822322
 20
-141.449598
 10
223.791769
 20
-142.036432
 10
223.768652
 20
-142.620669
 10
223.752925
 20
-143.202512
 10
223.744556
 20
-143.781867
 10
223.743515
 20
-144.358642
 10
223.749593
 20
-144.922617
 10
223.749593
 20
-144.922617
 10
223.753544
 20
-145.127049
  0
CIRCLE
  5
5A7
330
1F
100
AcDbEntity
  8
OUTLINE
 67
0
100
AcDbCircle
 10
200.208336069
 20
-221.091393939
 40
10.0
  0
CIRCLE
  5
5A8
330
1F
100
AcDbEntity
  8
OUTLINE
 67
0
100
AcDbCircle
 10
156.407235341
 20
-145.127049101
 40
13.0
  0
CIRCLE
  5
5A9
330
1F
100
AcDbEntity
  8
OUTLINE
 67
0
100
AcDbCircle
 10
106.407235341
 20
-145.127049101
 40
6.1
  0
CIRCLE
  5
5AA
330
1F
100
AcDbEntity
  8
OUTLINE
 67
0
100
AcDbCircle
 10
202.579520607
 20
-145.127049101
 40
1.727
  0
CIRCLE
  5
5AB
330
1F
100
AcDbEntity
  8
OUTLINE
 67
0
100
AcDbCircle
 10
232.926477652
 20
-202.238899703
 40
1.727
  0
CIRCLE
  5
5AC
330
1F
100
AcDbEntity
  8
OUTLINE
 67
0
100
AcDbCircle
 10
223.11532415
 20
-258.960192213
 40
1.727
  0
CIRCLE
  5
5AD
330
1F
100
AcDbEntity
  8
OUTLINE
 67
0
100
AcDbCircle
 10
169.035286571
 20
-239.399826587
 40
1.727
  0
CIRCLE
  5
5AE
330
1F
100
AcDbEntity
  8
OUTLINE
 67
0
100
AcDbCircle
 10
133.306969926
 20
-185.106288404
 40
1.727
  0
CIRCLE
  5
5AF
330
1F
100
AcDbEntity
  8
OUTLINE
 67
0
100
AcDbCircle
 10
68.6723451505
 20
-182.841411676
 40
1.727
  0
CIRCLE
  5
5B0
330
1F
100
AcDbEntity
  8
OUTLINE
 67
0
100
AcDbCircle
 10
24.468396741
 20
-145.970023043
 40
1.727
  0
CIRCLE
  5
5B1
330
1F
100
AcDbEntity
  8
OUTLINE
 67
0
100
AcDbCircle
 10
68.456407367
 20
-108.939210722
 40
1.727
  0
CIRCLE
  5
5B2
330
1F
100
AcDbEntity
  8
OUTLINE
 67
0
100
AcDbCircle
 10
133.344255979
 20
-105.129866651
 40
1.727
  0
CIRCLE
  5
5B3
330
1F
100
AcDbEntity
  8
OUTLINE
 67
0
100
AcDbCircle
 10
221.628470374
 20
-30.4278417318
 40
1.727
  0
ENDSEC
  0
SECTION
  2
OBJECTS
  0
DICTIONARY
  5
C
330
0
100
AcDbDictionary
281
1
  3
ACAD_COLOR
350
4A3
  3
ACAD_GROUP
350
4A4
  3
ACAD_LAYOUT
350
4A5
  3
ACAD_MATERIAL
350
4A6
  3
ACAD_MLEADERSTYLE
350
4A7
  3
ACAD_MLINESTYLE
350
4A8
  3
ACAD_PLOTSETTINGS
350
4A9
  3
ACAD_PLOTSTYLENAME
350
4AB
  3
ACAD_SCALELIST
350
4AC
  3
ACAD_TABLESTYLE
350
4AD
  3
ACAD_VISUALSTYLE
350
4AE
  0
DICTIONARY
  5
4A3
330
C
100
AcDbDictionary
281
1
  0
DICTIONARY
  5
4A4
330
C
100
AcDbDictionary
281
1
  0
DICTIONARY
  5
4A5
330
C
100
AcDbDictionary
281
1
  3
Model
350
4AF
  3
Layout1
350
4B0
  0
DICTIONARY
  5
4A6
330
C
100
AcDbDictionary
281
1
  3
ByBlock
350
599
  3
ByLayer
350
59A
  3
Global
350
59B
  0
DICTIONARY
  5
4A7
330
C
100
AcDbDictionary
281
1
  3
Standard
350
59C
  0
DICTIONARY
  5
4A8
330
C
100
AcDbDictionary
281
1
  3
STANDARD
350
59D
  0
DICTIONARY
  5
4A9
330
C
100
AcDbDictionary
281
1
  0
ACDBPLACEHOLDER
  5
4AA
330
4AB
  0
ACDBDICTIONARYWDFLT
  5
4AB
330
C
100
AcDbDictionary
281
1
  3
Normal
350
4AA
100
AcDbDictionaryWithDefault
340
4AA
  0
DICTIONARY
  5
4AC
330
C
100
AcDbDictionary
281
1
  0
DICTIONARY
  5
4AD
330
C
100
AcDbDictionary
281
1
  0
DICTIONARY
  5
4AE
330
C
100
AcDbDictionary
281
1
  0
LAYOUT
  5
4AF
330
4A5
100
AcDbPlotSettings
  1

  2
DWFx ePlot (XPS Compatible).pc3
  4
ANSI_A_(8.50_x_11.00_Inches)
  6

 40
5.8
 41
17.8
 42
5.8
 43
17.8
 44
215.9
 45
279.4
 46
0.0
 47
0.0
 48
0.0
 49
0.0
140
0.0
141
0.0
142
1.0
143
14.53
 70
11952
 72
0
 73
1
 74
0
  7

 75
0
147
0.069
148
114.98
149
300.29
100
AcDbLayout
  1
Model
 70
1
 71
0
 10
0.0
 20
0.0
 11
12.0
 21
9.0
 12
0.0
 22
0.0
 32
0.0
 14
0.0
 24
0.0
 34
0.0
 15
0.0
 25
0.0
 35
0.0
146
0.0
 13
0.0
 23
0.0
 33
0.0
 16
1.0
 26
0.0
 36
0.0
 17
0.0
 27
1.0
 37
0.0
 76
0
330
1F
  0
LAYOUT
  5
4B0
330
4A5
100
AcDbPlotSettings
  1

  2
DWFx ePlot (XPS Compatible).pc3
  4
ANSI_A_(8.50_x_11.00_Inches)
  6

 40
5.8
 41
17.8
 42
5.8
 43
17.8
 44
215.9
 45
279.4
 46
0.0
 47
0.0
 48
0.0
 49
0.0
140
0.0
141
0.0
142
1.0
143
1.0
 70
688
 72
0
 73
1
 74
5
  7
acad.ctb
 75
16
147
1.0
148
0.0
149
0.0
100
AcDbLayout
  1
Layout1
 70
1
 71
1
 10
-0.7
 20
-0.23
 11
10.3
 21
8.27
 12
0.0
 22
0.0
 32
0.0
 14
0.63
 24
0.8
 34
0.0
 15
9.0
 25
7.2
 35
0.0
146
0.0
 13
0.0
 23
0.0
 33
0.0
 16
1.0
 26
0.0
 36
0.0
 17
0.0
 27
1.0
 37
0.0
 76
0
330
58
  0
MATERIAL
  5
599
102
{ACAD_REACTORS
330
4A6
102
}
330
4A6
100
AcDbMaterial
  1
ByBlock
 94
63
  0
MATERIAL
  5
59A
102
{ACAD_REACTORS
330
4A6
102
}
330
4A6
100
AcDbMaterial
  1
ByLayer
 94
63
  0
MATERIAL
  5
59B
102
{ACAD_REACTORS
330
4A6
102
}
330
4A6
100
AcDbMaterial
  1
Global
 94
63
  0
MLEADERSTYLE
  5
59C
102
{ACAD_REACTORS
330
4A7
102
}
330
4A7
100
AcDbMLeaderStyle
179
2
170
2
171
1
172
0
 90
2
 40
0.0
 41
0.0
173
1
 91
-1056964608
340
14
 92
-2
290
1
 42
2.0
291
1
 43
8.0
  3
Standard
341
0
 44
4.0
300

342
11
174
1
178
1
175
1
176
0
 93
-1056964608
 45
4.0
292
0
297
0
 46
4.0
343
0
 94
-1056964608
 47
1.0
 49
1.0
140
1.0
293
1
141
0.0
294
1
177
0
142
1.0
295
0
296
0
143
3.75
271
0
272
9
273
9
  0
MLINESTYLE
  5
59D
102
{ACAD_REACTORS
330
4A8
102
}
330
4A8
100
AcDbMlineStyle
  2
STANDARD
 70
0
  3

 62
256
 51
90.0
 52
90.0
 71
2
 49
0.5
 62
256
  6
BYLAYER
 49
-0.5
 62
256
  6
BYLAYER
  0
ENDSEC
  0
EOF
