  0
SECTION
  2
HEADER
  9
$ACADVER
  1
AC1015
  9
$ACADMAINTVER
 70
20
  9
$DWGCODEPAGE
  3
ANSI_1252
  9
$LASTSAVEDBY
  1
unknown
  9
$INSBASE
 10
0.0
 20
0.0
 30
0.0
  9
$EXTMIN
 10
1e+20
 20
1e+20
 30
1e+20
  9
$EXTMAX
 10
-1e+20
 20
-1e+20
 30
-1e+20
  9
$LIMMIN
 10
0.0
 20
0.0
  9
$LIMMAX
 10
12.0
 20
9.0
  9
$ORTHOMODE
 70
0
  9
$REGENMODE
 70
1
  9
$FILLMODE
 70
1
  9
$QTEXTMODE
 70
0
  9
$MIRRTEXT
 70
0
  9
$LTSCALE
 40
1.0
  9
$ATTMODE
 70
1
  9
$TEXTSIZE
 40
0.2
  9
$TRACEWID
 40
0.05
  9
$TEXTSTYLE
  7
Notes
  9
$CLAYER
  8
0
  9
$CELTYPE
  6
ByLayer
  9
$CECOLOR
 62
256
  9
$CELTSCALE
 40
1.0
  9
$DISPSILH
 70
0
  9
$DIMSCALE
 40
1.0
  9
$DIMASZ
 40
3.0
  9
$DIMEXO
 40
1.5
  9
$DIMDLI
 40
6.0
  9
$DIMRND
 40
0.0
  9
$DIMDLE
 40
0.0
  9
$DIMEXE
 40
3.0
  9
$DIMTP
 40
0.0
  9
$DIMTM
 40
0.0
  9
$DIMTXT
 40
3.0
  9
$DIMCEN
 40
3.0
  9
$DIMTSZ
 40
0.0
  9
$DIMTOL
 70
0
  9
$DIMLIM
 70
0
  9
$DIMTIH
 70
0
  9
$DIMTOH
 70
0
  9
$DIMSE1
 70
0
  9
$DIMSE2
 70
0
  9
$DIMTAD
 70
1
  9
$DIMZIN
 70
3
  9
$DIMBLK
  1

  9
$DIMASO
 70
1
  9
$DIMSHO
 70
1
  9
$DIMPOST
  1

  9
$DIMAPOST
  1

  9
$DIMALT
 70
0
  9
$DIMALTD
 70
2
  9
$DIMALTF
 40
25.4
  9
$DIMLFAC
 40
1.0
  9
$DIMTOFL
 70
0
  9
$DIMTVP
 40
0.0
  9
$DIMTIX
 70
0
  9
$DIMSOXD
 70
0
  9
$DIMSAH
 70
0
  9
$DIMBLK1
  1

  9
$DIMBLK2
  1

  9
$DIMSTYLE
  2
Civil-Metric
  9
$DIMCLRD
 70
0
  9
$DIMCLRE
 70
0
  9
$DIMCLRT
 70
0
  9
$DIMTFAC
 40
1.0
  9
$DIMGAP
 40
2.0
  9
$DIMJUST
 70
0
  9
$DIMSD1
 70
0
  9
$DIMSD2
 70
0
  9
$DIMTOLJ
 70
1
  9
$DIMTZIN
 70
0
  9
$DIMALTZ
 70
0
  9
$DIMALTTZ
 70
0
  9
$DIMUPT
 70
0
  9
$DIMDEC
 70
2
  9
$DIMTDEC
 70
2
  9
$DIMALTU
 70
2
  9
$DIMALTTD
 70
2
  9
$DIMTXSTY
  7
Standard
  9
$DIMAUNIT
 70
0
  9
$DIMADEC
 70
2
  9
$DIMALTRND
 40
0.0
  9
$DIMAZIN
 70
2
  9
$DIMDSEP
 70
46
  9
$DIMATFIT
 70
3
  9
$DIMFRAC
 70
1
  9
$DIMLDRBLK
  1

  9
$DIMLUNIT
 70
2
  9
$DIMLWD
 70
-2
  9
$DIMLWE
 70
-2
  9
$DIMTMOVE
 70
0
  9
$LUNITS
 70
2
  9
$LUPREC
 70
4
  9
$SKETCHINC
 40
0.1
  9
$FILLETRAD
 40
0.0
  9
$AUNITS
 70
4
  9
$AUPREC
 70
5
  9
$MENU
  1
.
  9
$ELEVATION
 40
0.0
  9
$PELEVATION
 40
0.0
  9
$THICKNESS
 40
0.0
  9
$LIMCHECK
 70
0
  9
$CHAMFERA
 40
0.0
  9
$CHAMFERB
 40
0.0
  9
$CHAMFERC
 40
0.0
  9
$CHAMFERD
 40
0.0
  9
$SKPOLY
 70
0
  9
$TDCREATE
 40
2459036.67758
  9
$TDUPDATE
 40
2459036.67758
  9
$TDINDWG
 40
0.0
  9
$TDUSRTIMER
 40
0.0
  9
$USRTIMER
 70
1
  9
$ANGBASE
 50
0.0
  9
$ANGDIR
 70
0
  9
$PDMODE
 70
0
  9
$PDSIZE
 40
0.0
  9
$PLINEWID
 40
0.0
  9
$SPLFRAME
 70
0
  9
$SPLINETYPE
 70
6
  9
$SPLINESEGS
 70
8
  9
$HANDSEED
  5
5BB
  9
$SURFTAB1
 70
6
  9
$SURFTAB2
 70
6
  9
$SURFTYPE
 70
6
  9
$SURFU
 70
6
  9
$SURFV
 70
6
  9
$UCSBASE
  2

  9
$UCSNAME
  2

  9
$UCSORG
 10
0.0
 20
0.0
 30
0.0
  9
$UCSXDIR
 10
1.0
 20
0.0
 30
0.0
  9
$UCSYDIR
 10
0.0
 20
1.0
 30
0.0
  9
$UCSORTHOREF
  2

  9
$UCSORTHOVIEW
 70
0
  9
$UCSORGTOP
 10
0.0
 20
0.0
 30
0.0
  9
$UCSORGBOTTOM
 10
0.0
 20
0.0
 30
0.0
  9
$UCSORGLEFT
 10
0.0
 20
0.0
 30
0.0
  9
$UCSORGRIGHT
 10
0.0
 20
0.0
 30
0.0
  9
$UCSORGFRONT
 10
0.0
 20
0.0
 30
0.0
  9
$UCSORGBACK
 10
0.0
 20
0.0
 30
0.0
  9
$PUCSBASE
  2

  9
$PUCSNAME
  2

  9
$PUCSORG
 10
0.0
 20
0.0
 30
0.0
  9
$PUCSXDIR
 10
1.0
 20
0.0
 30
0.0
  9
$PUCSYDIR
 10
0.0
 20
1.0
 30
0.0
  9
$PUCSORTHOREF
  2

  9
$PUCSORTHOVIEW
 70
0
  9
$PUCSORGTOP
 10
0.0
 20
0.0
 30
0.0
  9
$PUCSORGBOTTOM
 10
0.0
 20
0.0
 30
0.0
  9
$PUCSORGLEFT
 10
0.0
 20
0.0
 30
0.0
  9
$PUCSORGRIGHT
 10
0.0
 20
0.0
 30
0.0
  9
$PUCSORGFRONT
 10
0.0
 20
0.0
 30
0.0
  9
$PUCSORGBACK
 10
0.0
 20
0.0
 30
0.0
  9
$USERI1
 70
0
  9
$USERI2
 70
0
  9
$USERI3
 70
0
  9
$USERI4
 70
0
  9
$USERI5
 70
0
  9
$USERR1
 40
0.0
  9
$USERR2
 40
0.0
  9
$USERR3
 40
0.0
  9
$USERR4
 40
0.0
  9
$USERR5
 40
0.0
  9
$WORLDVIEW
 70
1
  9
$SHADEDGE
 70
3
  9
$SHADEDIF
 70
70
  9
$TILEMODE
 70
1
  9
$MAXACTVP
 70
64
  9
$PINSBASE
 10
0.0
 20
0.0
 30
0.0
  9
$PLIMCHECK
 70
0
  9
$PEXTMIN
 10
0.628866766397
 20
0.799999952316
 30
0.0
  9
$PEXTMAX
 10
9.02886638493
 20
7.19999957085
 30
0.0
  9
$PLIMMIN
 10
-0.700541819174
 20
-0.228100386192
  9
$PLIMMAX
 10
10.2994579405
 20
8.27189937351
  9
$UNITMODE
 70
0
  9
$VISRETAIN
 70
1
  9
$PLINEGEN
 70
0
  9
$PSLTSCALE
 70
1
  9
$TREEDEPTH
 70
3020
  9
$CMLSTYLE
  2
Standard
  9
$CMLJUST
 70
0
  9
$CMLSCALE
 40
1.0
  9
$PROXYGRAPHICS
 70
1
  9
$MEASUREMENT
 70
1
  9
$CELWEIGHT
370
-1
  9
$ENDCAPS
280
0
  9
$JOINSTYLE
280
0
  9
$LWDISPLAY
290
0
  9
$INSUNITS
 70
4
  9
$HYPERLINKBASE
  1

  9
$STYLESHEET
  1

  9
$XEDIT
290
1
  9
$CEPSNTYPE
380
0
  9
$PSTYLEMODE
290
1
  9
$FINGERPRINTGUID
  2
036BF5BA-BECA-11EA-9D71-3C07542F39CD
  9
$VERSIONGUID
  2
0372F38A-BECA-11EA-A5CB-3C07542F39CD
  9
$EXTNAMES
290
1
  9
$PSVPSCALE
 40
0.0
  9
$OLESTARTUP
290
0
  0
ENDSEC
  0
SECTION
  2
CLASSES
  0
CLASS
  1
ACDBDICTIONARYWDFLT
  2
AcDbDictionaryWithDefault
  3
ObjectDBX Classes
 90
0
280
0
281
0
  0
CLASS
  1
ACDBPLACEHOLDER
  2
AcDbPlaceHolder
  3
ObjectDBX Classes
 90
0
280
0
281
0
  0
CLASS
  1
LAYOUT
  2
AcDbLayout
  3
ObjectDBX Classes
 90
0
280
0
281
0
  0
CLASS
  1
DICTIONARYVAR
  2
AcDbDictionaryVar
  3
ObjectDBX Classes
 90
0
280
0
281
0
  0
CLASS
  1
TABLESTYLE
  2
AcDbTableStyle
  3
ObjectDBX Classes
 90
4095
280
0
281
0
  0
CLASS
  1
MATERIAL
  2
AcDbMaterial
  3
ObjectDBX Classes
 90
1153
280
0
281
0
  0
CLASS
  1
VISUALSTYLE
  2
AcDbVisualStyle
  3
ObjectDBX Classes
 90
4095
280
0
281
0
  0
CLASS
  1
SCALE
  2
AcDbScale
  3
ObjectDBX Classes
 90
1153
280
0
281
0
  0
CLASS
  1
MLEADERSTYLE
  2
AcDbMLeaderStyle
  3
ACDB_MLEADERSTYLE_CLASS
 90
4095
280
0
281
0
  0
CLASS
  1
CELLSTYLEMAP
  2
AcDbCellStyleMap
  3
ObjectDBX Classes
 90
1152
280
0
281
0
  0
CLASS
  1
EXACXREFPANELOBJECT
  2
ExAcXREFPanelObject
  3
EXAC_ESW
 90
33793
280
0
281
0
  0
CLASS
  1
NPOCOLLECTION
  2
AcDbImpNonPersistentObjectsCollection
  3
ObjectDBX Classes
 90
33921
280
0
281
0
  0
CLASS
  1
LAYER_INDEX
  2
AcDbLayerIndex
  3
ObjectDBX Classes
 90
32768
280
0
281
0
  0
CLASS
  1
SPATIAL_INDEX
  2
AcDbSpatialIndex
  3
ObjectDBX Classes
 90
32768
280
0
281
0
  0
CLASS
  1
IDBUFFER
  2
AcDbIdBuffer
  3
ObjectDBX Classes
 90
32768
280
0
281
0
  0
CLASS
  1
DIMASSOC
  2
AcDbDimAssoc
  3
"AcDbDimAssoc|Product Desc:     AcDim ARX App For Dimension|Company:          Autodesk, Inc.|WEB Address:      www.autodesk.com"
 90
32768
280
0
281
0
  0
CLASS
  1
IMAGEDEF
  2
AcDbRasterImageDef
  3
ISM
 90
0
280
0
281
0
  0
CLASS
  1
RASTERVARIABLES
  2
AcDbRasterVariables
  3
ISM
 90
0
280
0
281
0
  0
CLASS
  1
IMAGEDEF_REACTOR
  2
AcDbRasterImageDefReactor
  3
ISM
 90
1
280
0
281
0
  0
CLASS
  1
IMAGE
  2
AcDbRasterImage
  3
ISM
 90
2175
280
0
281
1
  0
CLASS
  1
PDFDEFINITION
  2
AcDbPdfDefinition
  3
ObjectDBX Classes
 90
1153
280
0
281
0
  0
CLASS
  1
PDFUNDERLAY
  2
AcDbPdfReference
  3
ObjectDBX Classes
 90
4095
280
0
281
1
  0
CLASS
  1
DWFDEFINITION
  2
AcDbDwfDefinition
  3
ObjectDBX Classes
 90
1153
280
0
281
0
  0
CLASS
  1
DWFUNDERLAY
  2
AcDbDwfReference
  3
ObjectDBX Classes
 90
1153
280
0
281
1
  0
CLASS
  1
DGNDEFINITION
  2
AcDbDgnDefinition
  3
ObjectDBX Classes
 90
1153
280
0
281
0
  0
CLASS
  1
DGNUNDERLAY
  2
AcDbDgnReference
  3
ObjectDBX Classes
 90
1153
280
0
281
1
  0
ENDSEC
  0
SECTION
  2
TABLES
  0
TABLE
  2
VPORT
  5
8
330
0
100
AcDbSymbolTable
 70
0
  0
ENDTAB
  0
TABLE
  2
LTYPE
  5
5
330
0
100
AcDbSymbolTable
 70
7
  0
LTYPE
  5
14
330
5
100
AcDbSymbolTableRecord
100
AcDbLinetypeTableRecord
  2
ByBlock
 70
0
  3

 72
65
 73
0
 40
0.0
  0
LTYPE
  5
15
330
5
100
AcDbSymbolTableRecord
100
AcDbLinetypeTableRecord
  2
ByLayer
 70
0
  3

 72
65
 73
0
 40
0.0
  0
LTYPE
  5
16
330
5
100
AcDbSymbolTableRecord
100
AcDbLinetypeTableRecord
  2
Continuous
 70
0
  3
Solid line
 72
65
 73
0
 40
0.0
  0
LTYPE
  5
1B1
330
5
100
AcDbSymbolTableRecord
100
AcDbLinetypeTableRecord
  2
CENTER
 70
0
  3
Center ____ _ ____ _ ____ _ ____ _ ____ _ ____
 72
65
 73
4
 40
2.0
 49
1.25
 74
0
 49
-0.25
 74
0
 49
0.25
 74
0
 49
-0.25
 74
0
  0
LTYPE
  5
1B2
330
5
100
AcDbSymbolTableRecord
100
AcDbLinetypeTableRecord
  2
DASHED
 70
0
  3
Dashed __ __ __ __ __ __ __ __ __ __ __ __ __ _
 72
65
 73
2
 40
0.75
 49
0.5
 74
0
 49
-0.25
 74
0
  0
LTYPE
  5
1B3
330
5
100
AcDbSymbolTableRecord
100
AcDbLinetypeTableRecord
  2
PHANTOM
 70
0
  3
Phantom ______  __  __  ______  __  __  ______
 72
65
 73
6
 40
2.5
 49
1.25
 74
0
 49
-0.25
 74
0
 49
0.25
 74
0
 49
-0.25
 74
0
 49
0.25
 74
0
 49
-0.25
 74
0
  0
LTYPE
  5
39E
330
5
100
AcDbSymbolTableRecord
100
AcDbLinetypeTableRecord
  2
HIDDEN
 70
0
  3
Hidden __ __ __ __ __ __ __ __ __ __ __ __ __ __
 72
65
 73
2
 40
9.525
 49
6.35
 74
0
 49
-3.175
 74
0
  0
ENDTAB
  0
TABLE
  2
LAYER
  5
2
330
0
100
AcDbSymbolTable
 70
7
  0
LAYER
  5
10
330
2
100
AcDbSymbolTableRecord
100
AcDbLayerTableRecord
  2
0
 70
0
 62
7
  6
Continuous
370
-3
390
4AA
  0
LAYER
  5
1B4
330
2
100
AcDbSymbolTableRecord
100
AcDbLayerTableRecord
  2
View Port
 70
0
 62
7
  6
Continuous
290
0
370
-3
390
4AA
  0
LAYER
  5
21D
330
2
100
AcDbSymbolTableRecord
100
AcDbLayerTableRecord
  2
Defpoints
 70
0
 62
7
  6
Continuous
290
0
370
-3
390
4AA
  0
LAYER
  5
59E
330
2
100
AcDbSymbolTableRecord
100
AcDbLayerTableRecord
  2
DESCRIPTION
 70
0
 62
1
  6
Continuous
290
1
390
4AB
  0
LAYER
  5
59F
330
2
100
AcDbSymbolTableRecord
100
AcDbLayerTableRecord
  2
BENDS
 70
0
 62
2
  6
DASHED
290
1
390
4AB
  0
LAYER
  5
5A0
330
2
100
AcDbSymbolTableRecord
100
AcDbLayerTableRecord
  2
OUTLINE
 70
0
 62
3
  6
Continuous
290
1
390
4AB
  0
LAYER
  5
5A1
330
2
100
AcDbSymbolTableRecord
100
AcDbLayerTableRecord
  2
ENGRAVING
 70
0
 62
4
  6
Continuous
290
1
390
4AB
  0
ENDTAB
  0
TABLE
  2
STYLE
  5
3
330
0
100
AcDbSymbolTable
 70
3
  0
STYLE
  5
11
330
3
100
AcDbSymbolTableRecord
100
AcDbTextStyleTableRecord
  2
Standard
 70
0
 40
0.0
 41
1.0
 50
0.0
 71
0
 42
0.2
  3
arial.ttf
  4

  0
STYLE
  5
DC
330
3
100
AcDbSymbolTableRecord
100
AcDbTextStyleTableRecord
  2
Annotative
 70
0
 40
0.0
 41
1.0
 50
0.0
 71
0
 42
0.2
  3
arial.ttf
  4

  0
STYLE
  5
178
330
3
100
AcDbSymbolTableRecord
100
AcDbTextStyleTableRecord
  2
Notes
 70
0
 40
3.0
 41
1.0
 50
0.0
 71
0
 42
0.2
  3
arial.ttf
  4

  0
ENDTAB
  0
TABLE
  2
VIEW
  5
6
330
0
100
AcDbSymbolTable
 70
0
  0
ENDTAB
  0
TABLE
  2
UCS
  5
7
330
0
100
AcDbSymbolTable
 70
0
  0
ENDTAB
  0
TABLE
  2
APPID
  5
9
330
0
100
AcDbSymbolTable
 70
11
  0
APPID
  5
12
330
9
100
AcDbSymbolTableRecord
100
AcDbRegAppTableRecord
  2
ACAD
 70
0
  0
APPID
  5
DD
330
9
100
AcDbSymbolTableRecord
100
AcDbRegAppTableRecord
  2
AcadAnnoPO
 70
0
  0
APPID
  5
DE
330
9
100
AcDbSymbolTableRecord
100
AcDbRegAppTableRecord
  2
AcadAnnotative
 70
0
  0
APPID
  5
DF
330
9
100
AcDbSymbolTableRecord
100
AcDbRegAppTableRecord
  2
ACAD_DSTYLE_DIMJAG
 70
0
  0
APPID
  5
E0
330
9
100
AcDbSymbolTableRecord
100
AcDbRegAppTableRecord
  2
ACAD_DSTYLE_DIMTALN
 70
0
  0
APPID
  5
107
330
9
100
AcDbSymbolTableRecord
100
AcDbRegAppTableRecord
  2
ACAD_MLEADERVER
 70
0
  0
APPID
  5
1B5
330
9
100
AcDbSymbolTableRecord
100
AcDbRegAppTableRecord
  2
AcAecLayerStandard
 70
0
  0
APPID
  5
1BA
330
9
100
AcDbSymbolTableRecord
100
AcDbRegAppTableRecord
  2
ACAD_EXEMPT_FROM_CAD_STANDARDS
 70
0
  0
APPID
  5
237
330
9
100
AcDbSymbolTableRecord
100
AcDbRegAppTableRecord
  2
ACAD_DSTYLE_DIMBREAK
 70
0
  0
APPID
  5
28E
330
9
100
AcDbSymbolTableRecord
100
AcDbRegAppTableRecord
  2
ACAD_PSEXT
 70
0
  0
APPID
  5
482
330
9
100
AcDbSymbolTableRecord
100
AcDbRegAppTableRecord
  2
HATCHBACKGROUNDCOLOR
 70
0
  0
ENDTAB
  0
TABLE
  2
DIMSTYLE
  5
A
330
0
100
AcDbSymbolTable
 70
3
100
AcDbDimStyleTable
 71
3
340
242
340
27
340
E1
  0
DIMSTYLE
105
27
330
A
100
AcDbSymbolTableRecord
100
AcDbDimStyleTableRecord
  2
Standard
 70
0
 41
3.0
 42
2.0
 43
9.0
 44
5.0
140
3.0
141
2.0
147
2.0
340
11
1001
ACAD_DSTYLE_DIMJAG
1070
388
1040
38.0
1001
ACAD_DSTYLE_DIMBREAK
1070
391
1040
90.0
1001
ACAD_DSTYLE_DIMTALN
1070
392
1070
0
  0
DIMSTYLE
105
E1
330
A
100
AcDbSymbolTableRecord
100
AcDbDimStyleTableRecord
  2
Annotative
 70
0
 40
0.0
 41
3.0
 42
2.5
 43
10.0
 44
5.0
140
3.0
141
2.0
147
2.0
340
11
1001
AcadAnnotative
1000
AnnotativeData
1002
{
1070
1
1070
1
1002
}
1001
ACAD_DSTYLE_DIMJAG
1070
388
1040
38.0
1001
ACAD_DSTYLE_DIMBREAK
1070
391
1040
90.0
1001
ACAD_DSTYLE_DIMTALN
1070
392
1070
0
  0
DIMSTYLE
105
242
330
A
100
AcDbSymbolTableRecord
100
AcDbDimStyleTableRecord
  2
Civil-Metric
 70
0
 41
3.0
 42
1.5
 43
6.0
 44
3.0
 73
0
 74
0
 77
1
 78
3
 79
2
140
3.0
141
3.0
147
2.0
179
2
271
2
272
2
276
1
340
11
1001
ACAD_DSTYLE_DIMBREAK
1070
391
1040
3.0
1001
ACAD_DSTYLE_DIMJAG
1070
388
1040
38.0
1001
ACAD_DSTYLE_DIMTALN
1070
392
1070
0
  0
ENDTAB
  0
TABLE
  2
BLOCK_RECORD
  5
1
330
0
100
AcDbSymbolTable
 70
4
  0
BLOCK_RECORD
  5
1F
330
1
100
AcDbSymbolTableRecord
100
AcDbBlockTableRecord
  2
*Model_Space
340
4AF
  0
BLOCK_RECORD
  5
58
330
1
100
AcDbSymbolTableRecord
100
AcDbBlockTableRecord
  2
*Paper_Space
340
4B0
  0
BLOCK_RECORD
  5
238
330
1
100
AcDbSymbolTableRecord
100
AcDbBlockTableRecord
  2
_ArchTick
340
0
  0
BLOCK_RECORD
  5
23C
330
1
100
AcDbSymbolTableRecord
100
AcDbBlockTableRecord
  2
_Open30
340
0
  0
ENDTAB
  0
ENDSEC
  0
SECTION
  2
BLOCKS
  0
BLOCK
  5
23A
330
238
100
AcDbEntity
  8
0
100
AcDbBlockBegin
  2
_ArchTick
 70
0
 10
0.0
 20
0.0
 30
0.0
  3
_ArchTick
  1

  0
LWPOLYLINE
  5
239
330
238
100
AcDbEntity
  8
0
  6
ByBlock
 62
0
100
AcDbPolyline
 90
2
 70
0
 43
0.15
 10
-0.5
 20
-0.5
 10
0.5
 20
0.5
  0
ENDBLK
  5
23B
330
238
100
AcDbEntity
  8
0
100
AcDbBlockEnd
  0
BLOCK
  5
20
330
1F
100
AcDbEntity
  8
0
100
AcDbBlockBegin
  2
*Model_Space
 70
0
 10
0.0
 20
0.0
 30
0.0
  3
*Model_Space
  1

  0
ENDBLK
  5
21
330
1F
100
AcDbEntity
  8
0
100
AcDbBlockEnd
  0
BLOCK
  5
5A
330
58
100
AcDbEntity
 67
1
  8
0
100
AcDbBlockBegin
  2
*Paper_Space
 70
0
 10
0.0
 20
0.0
 30
0.0
  3
*Paper_Space
  1

  0
ENDBLK
  5
5B
330
58
100
AcDbEntity
 67
1
  8
0
100
AcDbBlockEnd
  0
BLOCK
  5
240
330
23C
100
AcDbEntity
  8
0
100
AcDbBlockBegin
  2
_Open30
 70
0
 10
0.0
 20
0.0
 30
0.0
  3
_Open30
  1

  0
LINE
  5
23D
330
23C
100
AcDbEntity
  8
0
  6
ByBlock
 62
0
370
-2
100
AcDbLine
 10
-1.0
 20
0.26794919
 30
0.0
 11
0.0
 21
0.0
 31
0.0
  0
LINE
  5
23E
330
23C
100
AcDbEntity
  8
0
  6
ByBlock
 62
0
370
-2
100
AcDbLine
 10
0.0
 20
0.0
 30
0.0
 11
-1.0
 21
-0.26794919
 31
0.0
  0
LINE
  5
23F
330
23C
100
AcDbEntity
  8
0
  6
ByBlock
 62
0
370
-2
100
AcDbLine
 10
0.0
 20
0.0
 30
0.0
 11
-1.0
 21
0.0
 31
0.0
  0
ENDBLK
  5
241
330
23C
100
AcDbEntity
  8
0
100
AcDbBlockEnd
  0
ENDSEC
  0
SECTION
  2
ENTITIES
  0
TEXT
  5
5A2
330
1F
100
AcDbEntity
  8
DESCRIPTION
 67
0
100
AcDbText
 10
2.836395
 20
-1.42361721692
 40
1.0
  1
THICK = 6.30
 50
0.0
 51
0.0
  7
STANDARD
 41
1.0
 71
0
 72
0
 11
2.836395
 21
-1.42361721692
100
AcDbText
 73
1
  0
TEXT
  5
5A3
330
1F
100
AcDbEntity
  8
ENGRAVING
 67
0
100
AcDbText
 10
2.836395
 20
0.0763827830844
 40
1.0
  1
CYCAD:ENGRAVING
 50
0.0
 51
0.0
  7
STANDARD
 41
1.0
 71
0
 72
0
 11
2.836395
 21
0.0763827830844
100
AcDbText
 73
1
  0
TEXT
  5
5A4
330
1F
100
AcDbEntity
  8
OUTLINE
 67
0
100
AcDbText
 10
2.836395
 20
1.57638278308
 40
1.0
  1
CYCAD:OUTLINE
 50
0.0
 51
0.0
  7
STANDARD
 41
1.0
 71
0
 72
0
 11
2.836395
 21
1.57638278308
100
AcDbText
 73
1
  0
TEXT
  5
5A5
330
1F
100
AcDbEntity
  8
BENDS
 67
0
100
AcDbText
 10
2.836395
 20
3.07638278308
 40
1.0
  1
CYCAD:BENDS
 50
0.0
 51
0.0
  7
STANDARD
 41
1.0
 71
0
 72
0
 11
2.836395
 21
3.07638278308
100
AcDbText
 73
1
  0
LWPOLYLINE
  5
5A6
330
1F
100
AcDbEntity
  8
OUTLINE
 67
0
100
AcDbPolyline
 90
1881
 70
1
 43
0.0
 10
250.618113
 20
-150.102158
 10
250.625242
 20
-150.623821
 10
250.639729
 20
-151.158339
 10
250.661725
 20
-151.703213
 10
250.690966
 20
-152.247041
 10
250.727292
 20
-152.786725
 10
250.770652
 20
-153.322245
 10
250.820986
 20
-153.853484
 10
250.878232
 20
-154.380309
 10
250.942333
 20
-154.902662
 10
251.013231
 20
-155.420494
 10
251.090869
 20
-155.933759
 10
251.175192
 20
-156.442416
 10
251.266046
 20
-156.945829
 10
251.363337
 20
-157.443789
 10
251.466998
 20
-157.936296
 10
251.577182
 20
-158.424384
 10
251.693871
 20
-158.908168
 10
251.816995
 20
-159.387547
 10
251.946717
 20
-159.863329
 10
252.08302
 20
-160.335557
 10
252.225845
 20
-160.804112
 10
252.375133
 20
-161.268881
 10
252.530821
 20
-161.729753
 10
252.692849
 20
-162.186623
 10
252.860923
 20
-162.638727
 10
253.034918
 20
-163.085834
 10
253.214751
 20
-163.527834
 10
253.400337
 20
-163.964625
 10
253.591593
 20
-164.396114
 10
253.788438
 20
-164.822215
 10
253.990791
 20
-165.242851
 10
254.198573
 20
-165.65795
 10
254.411706
 20
-166.067448
 10
254.630067
 20
-166.471176
 10
254.852798
 20
-166.867624
 10
255.079817
 20
-167.25679
 10
255.311048
 20
-167.638678
 10
255.546418
 20
-168.013299
 10
255.78586
 20
-168.380668
 10
256.029307
 20
-168.740802
 10
256.276367
 20
-169.093231
 10
256.526889
 20
-169.437866
 10
256.780786
 20
-169.774715
 10
257.037979
 20
-170.103795
 10
257.298393
 20
-170.42513
 10
257.561954
 20
-170.738753
 10
257.831629
 20
-171.048374
 10
258.110768
 20
-171.357871
 10
258.399593
 20
-171.667332
 10
258.698337
 20
-171.97685
 10
259.007254
 20
-172.286524
 10
259.326616
 20
-172.596462
 10
259.656656
 20
-172.906715
 10
259.997053
 20
-173.216805
 10
260.348189
 20
-173.526928
 10
260.710488
 20
-173.837295
 10
261.084418
 20
-174.148143
 10
261.470508
 20
-174.459739
 10
261.86937
 20
-174.772359
 10
262.276129
 20
-175.08198
 10
262.697079
 20
-175.393398
 10
263.152602
 20
-175.72182
 10
263.705391
 20
-176.112239
 10
264.404014
 20
-176.597988
 10
265.565569
 20
-177.400198
 10
266.410879
 20
-177.989818
 10
267.098837
 20
-178.478266
 10
267.706656
 20
-178.919069
 10
268.262456
 20
-179.331476
 10
268.778854
 20
-179.723981
 10
269.263553
 20
-180.101763
 10
269.722547
 20
-180.468926
 10
270.160669
 20
-180.828868
 10
270.580085
 20
-181.182946
 10
270.989784
 20
-181.538394
 10
271.390009
 20
-181.895306
 10
271.780928
 20
-182.253686
 10
272.168145
 20
-182.618521
 10
272.55277
 20
-182.990876
 10
272.93473
 20
-183.370741
 10
273.313944
 20
-183.7581
 10
273.690331
 20
-184.152934
 10
274.063881
 20
-184.555298
 10
274.434601
 20
-184.965266
 10
274.802428
 20
-185.382841
 10
275.167296
 20
-185.808022
 10
275.529134
 20
-186.240801
 10
275.887831
 20
-186.681122
 10
276.243284
 20
-187.128937
 10
276.595446
 20
-187.584265
 10
276.944268
 20
-188.047121
 10
277.2897
 20
-188.51752
 10
277.631686
 20
-188.995471
 10
277.970171
 20
-189.480982
 10
278.305094
 20
-189.974055
 10
278.636393
 20
-190.47469
 10
278.963859
 20
-190.982673
 10
279.286725
 20
-191.496911
 10
279.604934
 20
-192.017376
 10
279.918427
 20
-192.544037
 10
280.227131
 20
-193.076866
 10
280.528405
 20
-193.611405
 10
280.821795
 20
-194.146806
 10
281.107299
 20
-194.682985
 10
281.384917
 20
-195.219864
 10
281.655122
 20
-195.758266
 10
281.918256
 20
-196.298809
 10
282.174277
 20
-196.841372
 10
282.423144
 20
-197.385837
 10
282.664822
 20
-197.932084
 10
282.899276
 20
-198.48
 10
283.126476
 20
-199.02947
 10
283.346393
 20
-199.580381
 10
283.559002
 20
-200.132625
 10
283.764439
 20
-200.686498
 10
283.962739
 20
-201.242057
 10
284.153865
 20
-201.799167
 10
284.337783
 20
-202.357698
 10
284.514414
 20
-202.917379
 10
284.683477
 20
-203.477291
 10
284.844969
 20
-204.037328
 10
284.998886
 20
-204.59739
 10
285.145227
 20
-205.157379
 10
285.283909
 20
-205.716885
 10
285.414863
 20
-206.275509
 10
285.538096
 20
-206.833141
 10
285.653623
 20
-207.389677
 10
285.761455
 20
-207.945014
 10
285.861611
 20
-208.49906
 10
285.954109
 20
-209.051722
 10
286.038969
 20
-209.602915
 10
286.116216
 20
-210.152559
 10
286.185871
 20
-210.700575
 10
286.247936
 20
-211.24669
 10
286.302425
 20
-211.79073
 10
286.349369
 20
-212.332592
 10
286.388797
 20
-212.87218
 10
286.420741
 20
-213.409404
 10
286.445241
 20
-213.944265
 10
286.462333
 20
-214.476751
 10
286.472052
 20
-215.00676
 10
286.474432
 20
-215.534198
 10
286.469509
 20
-216.058974
 10
286.457335
 20
-216.581194
 10
286.437874
 20
-217.104236
 10
286.411118
 20
-217.627955
 10
286.377058
 20
-218.152205
 10
286.335693
 20
-218.676837
 10
286.287021
 20
-219.201697
 10
286.230969
 20
-219.72752
 10
286.167426
 20
-220.255176
 10
286.096367
 20
-220.78457
 10
286.01777
 20
-221.315596
 10
285.931614
 20
-221.848148
 10
285.837881
 20
-222.38211
 10
285.736556
 20
-222.917356
 10
285.627619
 20
-223.453808
 10
285.511052
 20
-223.991381
 10
285.386837
 20
-224.529986
 10
285.254961
 20
-225.069528
 10
285.115411
 20
-225.60991
 10
284.968177
 20
-226.151028
 10
284.813254
 20
-226.692773
 10
284.650638
 20
-227.235031
 10
284.480329
 20
-227.777695
 10
284.30205
 20
-228.321548
 10
284.115765
 20
-228.866549
 10
283.92144
 20
-229.412657
 10
283.719044
 20
-229.959825
 10
283.50906
 20
-230.506559
 10
283.292894
 20
-231.049075
 10
283.070609
 20
-231.587272
 10
282.842269
 20
-232.121051
 10
282.607937
 20
-232.650318
 10
282.36766
 20
-233.175021
 10
282.121499
 20
-233.695081
 10
281.869527
 20
-234.210391
 10
281.611817
 20
-234.720854
 10
281.348444
 20
-235.226374
 10
281.07948
 20
-235.726859
 10
280.804998
 20
-236.222224
 10
280.525071
 20
-236.712387
 10
280.23977
 20
-237.197269
 10
279.94917
 20
-237.676795
 10
279.653144
 20
-238.151224
 10
279.351779
 20
-238.620452
 10
279.045168
 20
-239.084371
 10
278.733401
 20
-239.542883
 10
278.416571
 20
-239.995888
 10
278.094767
 20
-240.443297
 10
277.768079
 20
-240.885021
 10
277.436598
 20
-241.320977
 10
277.100411
 20
-241.751087
 10
276.759611
 20
-242.175283
 10
276.412571
 20
-242.595646
 10
276.058917
 20
-243.012612
 10
275.698711
 20
-243.426077
 10
275.332018
 20
-243.835932
 10
274.958908
 20
-244.242069
 10
274.579453
 20
-244.644376
 10
274.193732
 20
-245.042742
 10
273.801826
 20
-245.437054
 10
273.403822
 20
-245.827198
 10
272.999811
 20
-246.213059
 10
272.589947
 20
-246.594464
 10
272.174353
 20
-246.971277
 10
271.753108
 20
-247.343407
 10
271.326295
 20
-247.71076
 10
270.894
 20
-248.073246
 10
270.45631
 20
-248.430772
 10
270.013319
 20
-248.783246
 10
269.565122
 20
-249.130576
 10
269.111817
 20
-249.472671
 10
268.653505
 20
-249.809439
 10
268.190449
 20
-250.140672
 10
267.722802
 20
-250.466252
 10
267.250678
 20
-250.786091
 10
266.774195
 20
-251.100101
 10
266.293465
 20
-251.408189
 10
265.811059
 20
-251.708693
 10
265.327101
 20
-252.001576
 10
264.841675
 20
-252.286826
 10
264.354866
 20
-252.564434
 10
263.866668
 20
-252.834448
 10
263.376399
 20
-253.097283
 10
262.884193
 20
-253.352893
 10
262.390179
 20
-253.601235
 10
261.894484
 20
-253.842269
 10
261.397232
 20
-254.07596
 10
260.898546
 20
-254.302278
 10
260.398541
 20
-254.521193
 10
259.897335
 20
-254.732683
 10
259.395038
 20
-254.936726
 10
258.89176
 20
-255.133304
 10
258.387778
 20
-255.322334
 10
257.883244
 20
-255.503789
 10
257.378282
 20
-255.677654
 10
256.873011
 20
-255.843919
 10
256.367546
 20
-256.002577
 10
255.860818
 20
-256.154004
 10
255.351762
 20
-256.298539
 10
254.840526
 20
-256.436134
 10
254.327261
 20
-256.566746
 10
253.812116
 20
-256.690333
 10
253.295235
 20
-256.806865
 10
252.775252
 20
-256.916653
 10
252.252276
 20
-257.019651
 10
251.726423
 20
-257.115814
 10
251.197809
 20
-257.205099
 10
250.666558
 20
-257.287464
 10
250.132795
 20
-257.362869
 10
249.596652
 20
-257.431276
 10
249.058263
 20
-257.492646
 10
248.517767
 20
-257.546947
 10
247.975306
 20
-257.594144
 10
247.431054
 20
-257.634205
 10
246.885202
 20
-257.6671
 10
246.337875
 20
-257.692805
 10
245.789201
 20
-257.711299
 10
245.23931
 20
-257.722565
 10
244.688335
 20
-257.726585
 10
244.136411
 20
-257.723345
 10
243.583677
 20
-257.712834
 10
243.030272
 20
-257.695042
 10
242.476339
 20
-257.669962
 10
241.922041
 20
-257.637588
 10
241.368044
 20
-257.597948
 10
240.81449
 20
-257.551049
 10
240.261521
 20
-257.496902
 10
239.709278
 20
-257.435518
 10
239.157903
 20
-257.366914
 10
238.607536
 20
-257.291106
 10
238.058319
 20
-257.208114
 10
237.510391
 20
-257.117961
 10
236.963891
 20
-257.020671
 10
236.418959
 20
-256.916272
 10
235.875785
 20
-256.804802
 10
235.334518
 20
-256.686297
 10
234.795296
 20
-256.560791
 10
234.258258
 20
-256.428324
 10
233.723541
 20
-256.288935
 10
233.19128
 20
-256.142667
 10
232.661607
 20
-255.989563
 10
232.134651
 20
-255.829669
 10
231.610542
 20
-255.663035
 10
231.089404
 20
-255.489709
 10
230.571217
 20
-255.309695
 10
230.056069
 20
-255.123034
 10
229.544096
 20
-254.929783
 10
229.035429
 20
-254.730002
 10
228.530198
 20
-254.523757
 10
228.025361
 20
-254.309838
 10
227.518826
 20
-254.087337
 10
227.010583
 20
-253.856186
 10
226.498788
 20
-253.615483
 10
225.98307
 20
-253.364954
 10
225.463197
 20
-253.104378
 10
224.938919
 20
-252.83352
 10
224.409615
 20
-252.55195
 10
223.873386
 20
-252.258541
 10
223.329546
 20
-251.952762
 10
222.777307
 20
-251.634011
 10
222.215762
 20
-251.30159
 10
221.643549
 20
-250.954512
 10
221.059161
 20
-250.591664
 10
220.460896
 20
-250.211769
 10
219.846033
 20
-249.812887
 10
219.206063
 20
-249.389257
 10
218.535021
 20
-248.93658
 10
217.822858
 20
-248.447776
 10
217.024825
 20
-247.8918
 10
216.07362
 20
-247.22125
 10
214.482838
 20
-246.096303
 10
213.661545
 20
-245.522929
 10
212.99272
 20
-245.064587
 10
212.406773
 20
-244.672017
 10
211.883955
 20
-244.330781
 10
211.404131
 20
-244.026669
 10
210.957054
 20
-243.752298
 10
210.540962
 20
-243.505782
 10
210.135727
 20
-243.274275
 10
209.727027
 20
-243.049166
 10
209.314999
 20
-242.83053
 10
208.900826
 20
-242.619003
 10
208.486085
 20
-242.415378
 10
208.07089
 20
-242.219659
 10
207.655348
 20
-242.031843
 10
207.239561
 20
-241.851923
 10
206.823624
 20
-241.679887
 10
206.407487
 20
-241.515662
 10
205.990823
 20
-241.359066
 10
205.573791
 20
-241.210121
 10
205.156545
 20
-241.068841
 10
204.739231
 20
-240.935237
 10
204.321987
 20
-240.809311
 10
203.904959
 20
-240.691002
 10
203.476961
 20
-240.577057
 10
203.037116
 20
-240.467396
 10
202.584537
 20
-240.361961
 10
202.118185
 20
-240.260684
 10
201.63683
 20
-240.163481
 10
201.138979
 20
-240.070259
 10
200.626923
 20
-239.981679
 10
200.100513
 20
-239.897901
 10
199.558345
 20
-239.818875
 10
198.998733
 20
-239.744544
 10
198.419619
 20
-239.674836
 10
197.819292
 20
-239.609825
 10
197.21116
 20
-239.551241
 10
196.595034
 20
-239.499157
 10
195.986964
 20
-239.455144
 10
195.410633
 20
-239.42091
 10
194.860125
 20
-239.395659
 10
194.331176
 20
-239.37882
 10
193.820819
 20
-239.369977
 10
193.326817
 20
-239.368806
 10
192.847385
 20
-239.375048
 10
192.381065
 20
-239.38849
 10
191.926653
 20
-239.408971
 10
191.487793
 20
-239.436151
 10
191.063958
 20
-239.469806
 10
190.653572
 20
-239.509789
 10
190.252362
 20
-239.556258
 10
189.857457
 20
-239.60929
 10
189.454221
 20
-239.670691
 10
189.043152
 20
-239.740563
 10
188.625232
 20
-239.818902
 10
188.19999
 20
-239.905935
 10
187.767219
 20
-240.001857
 10
187.327499
 20
-240.106694
 10
186.880319
 20
-240.220707
 10
186.425115
 20
-240.344189
 10
185.961403
 20
-240.477427
 10
185.488362
 20
-240.620819
 10
185.00518
 20
-240.774797
 10
184.513643
 20
-240.938987
 10
184.012952
 20
-241.113812
 10
183.503598
 20
-241.299324
 10
182.996255
 20
-241.491839
 10
182.491063
 20
-241.691324
 10
181.991727
 20
-241.896341
 10
181.498999
 20
-242.106537
 10
181.012867
 20
-242.321854
 10
180.533401
 20
-242.542204
 10
180.060622
 20
-242.767514
 10
179.594545
 20
-242.997716
 10
179.135179
 20
-243.232744
 10
178.682528
 20
-243.472536
 10
178.23651
 20
-243.71707
 10
177.796684
 20
-243.966528
 10
177.363114
 20
-244.220823
 10
176.935859
 20
-244.47987
 10
176.514971
 20
-244.743587
 10
176.100494
 20
-245.011894
 10
175.69219
 20
-245.284888
 10
175.289169
 20
-245.563111
 10
174.891544
 20
-245.846458
 10
174.499424
 20
-246.134827
 10
174.112912
 20
-246.428113
 10
173.732104
 20
-246.726215
 10
173.357298
 20
-247.028876
 10
172.989319
 20
-247.3354
 10
172.628225
 20
-247.645681
 10
172.274066
 20
-247.959619
 10
171.926887
 20
-248.277117
 10
171.586726
 20
-248.598082
 10
171.253592
 20
-248.922442
 10
170.92737
 20
-249.250251
 10
170.608116
 20
-249.581395
 10
170.295949
 20
-249.915712
 10
169.992403
 20
-250.251508
 10
169.697422
 20
-250.588727
 10
169.410949
 20
-250.927322
 10
169.132922
 20
-251.267248
 10
168.863279
 20
-251.608466
 10
168.601955
 20
-251.95094
 10
168.348713
 20
-252.294863
 10
168.103507
 20
-252.640189
 10
167.866343
 20
-252.986803
 10
167.63722
 20
-253.334596
 10
167.416129
 20
-253.683469
 10
167.203054
 20
-254.033327
 10
166.995746
 20
-254.387658
 10
166.791057
 20
-254.751788
 10
166.588915
 20
-255.126092
 10
166.389241
 20
-255.510984
 10
166.191946
 20
-255.906922
 10
165.996929
 20
-256.314418
 10
165.804133
 20
-256.733975
 10
165.614988
 20
-257.162868
 10
165.429451
 20
-257.601459
 10
165.247473
 20
-258.050147
 10
165.069001
 20
-258.509369
 10
164.89398
 20
-258.979607
 10
164.722333
 20
-259.461384
 10
164.552856
 20
-259.958425
 10
164.382447
 20
-260.480054
 10
164.195468
 20
-261.074024
 10
163.963268
 20
-261.833101
 10
163.652743
 20
-262.867589
 10
163.298337
 20
-264.042664
 10
163.025457
 20
-264.924481
 10
162.784796
 20
-265.677294
 10
162.558217
 20
-266.361191
 10
162.340338
 20
-266.994915
 10
162.127911
 20
-267.589778
 10
161.91885
 20
-268.153092
 10
161.710834
 20
-268.692295
 10
161.502838
 20
-269.210918
 10
161.29257
 20
-269.715479
 10
161.077682
 20
-270.212126
 10
160.858217
 20
-270.700949
 10
160.633675
 20
-271.183317
 10
160.401164
 20
-271.665623
 10
160.160669
 20
-272.147799
 10
159.912174
 20
-272.629771
 10
159.655669
 20
-273.111459
 10
159.391145
 20
-273.592783
 10
159.118612
 20
-274.073629
 10
158.838057
 20
-274.553926
 10
158.549468
 20
-275.033605
 10
158.252834
 20
-275.512595
 10
157.948147
 20
-275.990819
 10
157.63544
 20
-276.468139
 10
157.314696
 20
-276.944498
 10
156.985892
 20
-277.41985
 10
156.649006
 20
-277.894142
 10
156.30402
 20
-278.367321
 10
155.950918
 20
-278.839328
 10
155.589686
 20
-279.3101
 10
155.220316
 20
-279.779573
 10
154.8428
 20
-280.247676
 10
154.457778
 20
-280.713529
 10
154.065723
 20
-281.176499
 10
153.66666
 20
-281.636511
 10
153.26062
 20
-282.093488
 10
152.848482
 20
-282.546376
 10
152.432809
 20
-282.992319
 10
152.013686
 20
-283.431273
 10
151.591197
 20
-283.863198
 10
151.165426
 20
-284.288062
 10
150.735349
 20
-284.706939
 10
150.300983
 20
-285.119833
 10
149.862429
 20
-285.526665
 10
149.419789
 20
-285.927357
 10
148.973164
 20
-286.321838
 10
148.522655
 20
-286.710036
 10
148.068362
 20
-287.091886
 10
147.610383
 20
-287.467323
 10
147.148799
 20
-287.836304
 10
146.683202
 20
-288.199177
 10
146.213708
 20
-288.555862
 10
145.74043
 20
-288.906282
 10
145.263484
 20
-289.250362
 10
144.783505
 20
-289.587652
 10
144.301124
 20
-289.917724
 10
143.816438
 20
-290.240545
 10
143.329538
 20
-290.556086
 10
142.840516
 20
-290.864319
 10
142.349876
 20
-291.164955
 10
141.857789
 20
-291.457928
 10
141.364361
 20
-291.743215
 10
140.869694
 20
-292.020799
 10
140.373883
 20
-292.290664
 10
139.877024
 20
-292.552801
 10
139.379204
 20
-292.807202
 10
138.88051
 20
-293.053863
 10
138.381022
 20
-293.292784
 10
137.880842
 20
-293.523953
 10
137.380298
 20
-293.747257
 10
136.879499
 20
-293.96269
 10
136.378549
 20
-294.17025
 10
135.877546
 20
-294.369939
 10
135.376584
 20
-294.561763
 10
134.875512
 20
-294.745822
 10
134.374397
 20
-294.922131
 10
133.873345
 20
-295.09069
 10
133.372456
 20
-295.251502
 10
132.871827
 20
-295.404574
 10
132.370218
 20
-295.550338
 10
131.86548
 20
-295.689446
 10
131.357749
 20
-295.821843
 10
130.847163
 20
-295.947477
 10
130.333866
 20
-296.066297
 10
129.818003
 20
-296.178256
 10
129.298366
 20
-296.28361
 10
128.774688
 20
-296.382381
 10
128.247046
 20
-296.474518
 10
127.715524
 20
-296.559968
 10
127.180213
 20
-296.638681
 10
126.641264
 20
-296.710595
 10
126.098855
 20
-296.775652
 10
125.553073
 20
-296.833805
 10
125.004009
 20
-296.885012
 10
124.451762
 20
-296.929229
 10
123.896364
 20
-296.96642
 10
123.337687
 20
-296.99656
 10
122.775804
 20
-297.019609
 10
122.210797
 20
-297.035525
 10
121.642749
 20
-297.044271
 10
121.071623
 20
-297.045811
 10
120.497213
 20
-297.040108
 10
119.919571
 20
-297.027121
 10
119.338758
 20
-297.006809
 10
118.754837
 20
-296.979129
 10
118.170901
 20
-296.944169
 10
117.589105
 20
-296.902041
 10
117.00956
 20
-296.852773
 10
116.432371
 20
-296.796397
 10
115.857646
 20
-296.732942
 10
115.285541
 20
-296.662449
 10
114.71618
 20
-296.584955
 10
114.149683
 20
-296.5005
 10
113.586165
 20
-296.409123
 10
113.025736
 20
-296.310868
 10
112.468501
 20
-296.205777
 10
111.914563
 20
-296.093894
 10
111.364018
 20
-295.975265
 10
110.816958
 20
-295.849934
 10
110.273306
 20
-295.717911
 10
109.732791
 20
-295.579157
 10
109.195548
 20
-295.433724
 10
108.661705
 20
-295.281668
 10
108.131388
 20
-295.123044
 10
107.604718
 20
-294.957908
 10
107.08181
 20
-294.78632
 10
106.562776
 20
-294.608338
 10
106.047724
 20
-294.424021
 10
105.536757
 20
-294.233431
 10
105.029537
 20
-294.036477
 10
104.52343
 20
-293.832166
 10
104.018552
 20
-293.62052
 10
103.515023
 20
-293.401565
 10
103.012967
 20
-293.175332
 10
102.512509
 20
-292.941853
 10
102.013776
 20
-292.701165
 10
101.516901
 20
-292.453309
 10
101.022015
 20
-292.198329
 10
100.529254
 20
-291.936273
 10
100.038754
 20
-291.667193
 10
99.5508
 20
-291.391222
 10
99.065511
 20
-291.108411
 10
98.582999
 20
-290.81881
 10
98.103378
 20
-290.522469
 10
97.626762
 20
-290.219444
 10
97.153266
 20
-289.909792
 10
96.683006
 20
-289.593574
 10
96.216099
 20
-289.270854
 10
95.752663
 20
-288.941698
 10
95.292859
 20
-288.606206
 10
94.837048
 20
-288.264628
 10
94.385348
 20
-287.917046
 10
93.937879
 20
-287.563545
 10
93.494756
 20
-287.204212
 10
93.056861
 20
-286.839743
 10
92.625742
 20
-286.47143
 10
92.201441
 20
-286.099354
 10
91.783991
 20
-285.723591
 10
91.373426
 20
-285.344217
 10
90.969435
 20
-284.960997
 10
90.571669
 20
-284.573642
 10
90.18021
 20
-284.182265
 10
89.79514
 20
-283.786974
 10
89.416532
 20
-283.387879
 10
89.044456
 20
-282.985086
 10
88.678979
 20
-282.5787
 10
88.32016
 20
-282.168825
 10
87.968057
 20
-281.755562
 10
87.622722
 20
-281.33901
 10
87.284232
 20
-280.919298
 10
86.952739
 20
-280.496656
 10
86.628301
 20
-280.0712
 10
86.310967
 20
-279.643045
 10
86.000786
 20
-279.212301
 10
85.697793
 20
-278.779082
 10
85.400776
 20
-278.341718
 10
85.109546
 20
-277.899936
 10
84.824193
 20
-277.453859
 10
84.544803
 20
-277.003614
 10
84.271462
 20
-276.54933
 10
84.004021
 20
-276.090756
 10
83.742087
 20
-275.627212
 10
83.48574
 20
-275.158792
 10
83.235055
 20
-274.685593
 10
82.990112
 20
-274.207717
 10
82.750987
 20
-273.725269
 10
82.517757
 20
-273.238361
 10
82.290499
 20
-272.747108
 10
82.069289
 20
-272.251628
 10
81.854203
 20
-271.752046
 10
81.645313
 20
-271.248489
 10
81.442709
 20
-270.741123
 10
81.246461
 20
-270.230084
 10
81.056628
 20
-269.715483
 10
80.873268
 20
-269.197437
 10
80.696439
 20
-268.676065
 10
80.526196
 20
-268.151489
 10
80.362594
 20
-267.623835
 10
80.205685
 20
-267.093231
 10
80.055521
 20
-266.55981
 10
79.912151
 20
-266.023704
 10
79.775684
 20
-265.485269
 10
79.646247
 20
-264.944974
 10
79.523875
 20
-264.402954
 10
79.4086
 20
-263.85935
 10
79.300453
 20
-263.3143
 10
79.199461
 20
-262.767944
 10
79.105651
 20
-262.220421
 10
79.019044
 20
-261.671872
 10
78.939662
 20
-261.122437
 10
78.867521
 20
-260.572255
 10
78.802639
 20
-260.021475
 10
78.745031
 20
-259.470261
 10
78.694707
 20
-258.918757
 10
78.651676
 20
-258.367107
 10
78.615943
 20
-257.815455
 10
78.587511
 20
-257.263942
 10
78.566379
 20
-256.71271
 10
78.552545
 20
-256.161896
 10
78.546005
 20
-255.611639
 10
78.546751
 20
-255.062074
 10
78.554772
 20
-254.513306
 10
78.570061
 20
-253.96528
 10
78.592604
 20
-253.418144
 10
78.622387
 20
-252.872046
 10
78.659395
 20
-252.327128
 10
78.703581
 20
-251.783531
 10
78.755409
 20
-251.235242
 10
78.814964
 20
-250.68208
 10
78.882385
 20
-250.1234
 10
78.957874
 20
-249.558162
 10
79.041561
 20
-248.986095
 10
79.133586
 20
-248.40691
 10
79.234099
 20
-247.82029
 10
79.343523
 20
-247.224325
 10
79.462246
 20
-246.617581
 10
79.590583
 20
-245.999158
 10
79.7289
 20
-245.368026
 10
79.87763
 20
-244.722922
 10
80.037367
 20
-244.062005
 10
80.208754
 20
-243.383384
 10
80.392569
 20
-242.68476
 10
80.590776
 20
-241.959411
 10
80.806101
 20
-241.198276
 10
81.041367
 20
-240.392496
 10
81.305661
 20
-239.511895
 10
81.618894
 20
-238.491339
 10
82.029944
 20
-237.170781
 10
82.365609
 20
-236.088075
 10
82.654054
 20
-235.138742
 10
82.881274
 20
-234.366622
 10
83.07207
 20
-233.692023
 10
83.233826
 20
-233.0925
 10
83.373696
 20
-232.544964
 10
83.495535
 20
-232.037416
 10
83.601273
 20
-231.564726
 10
83.6959
 20
-231.107903
 10
83.783354
 20
-230.649851
 10
83.863606
 20
-230.190724
 10
83.936458
 20
-229.73162
 10
84.001615
 20
-229.274445
 10
84.059113
 20
-228.819309
 10
84.108985
 20
-228.366314
 10
84.151271
 20
-227.915552
 10
84.186011
 20
-227.467111
 10
84.213261
 20
-227.020943
 10
84.233102
 20
-226.576497
 10
84.245562
 20
-226.133938
 10
84.250671
 20
-225.69342
 10
84.248464
 20
-225.255091
 10
84.238978
 20
-224.819089
 10
84.222301
 20
-224.385539
 10
84.198097
 20
-223.943614
 10
84.166131
 20
-223.491312
 10
84.12617
 20
-223.027678
 10
84.077939
 20
-222.551585
 10
84.021113
 20
-222.061686
 10
83.955283
 20
-221.556331
 10
83.88082
 20
-221.04036
 10
83.797864
 20
-220.515989
 10
83.706202
 20
-219.982534
 10
83.604143
 20
-219.430716
 10
83.490368
 20
-218.854593
 10
83.363444
 20
-218.249108
 10
83.229863
 20
-217.647374
 10
83.089978
 20
-217.050919
 10
82.945549
 20
-216.46738
 10
82.800331
 20
-215.911591
 10
82.653631
 20
-215.379467
 10
82.5055
 20
-214.870046
 10
82.355804
 20
-214.381767
 10
82.204095
 20
-213.912148
 10
82.050023
 20
-213.459229
 10
81.893305
 20
-213.021427
 10
81.733701
 20
-212.597444
 10
81.572153
 20
-212.189258
 10
81.408859
 20
-211.796733
 10
81.243528
 20
-211.418503
 10
81.075051
 20
-211.051423
 10
80.902754
 20
-210.69338
 10
80.719567
 20
-210.32926
 10
80.525286
 20
-209.959083
 10
80.320998
 20
-209.585339
 10
80.106369
 20
-209.207688
 10
79.881066
 20
-208.825826
 10
79.644985
 20
-208.439861
 10
79.397689
 20
-208.049344
 10
79.13867
 20
-207.653766
 10
78.868052
 20
-207.253604
 10
78.585273
 20
-206.84829
 10
78.289676
 20
-206.437165
 10
77.981228
 20
-206.020476
 10
77.659185
 20
-205.597487
 10
77.322805
 20
-205.167637
 10
76.982351
 20
-204.74441
 10
76.637915
 20
-204.327862
 10
76.289581
 20
-203.918043
 10
75.937436
 20
-203.514996
 10
75.58156
 20
-203.118764
 10
75.22291
 20
-202.730368
 10
74.861877
 20
-202.350155
 10
74.498519
 20
-201.978098
 10
74.13289
 20
-201.614166
 10
73.765043
 20
-201.258327
 10
73.395028
 20
-200.910543
 10
73.022132
 20
-200.570061
 10
72.646371
 20
-200.236837
 10
72.267851
 20
-199.910913
 10
71.886676
 20
-199.592325
 10
71.502943
 20
-199.281104
 10
71.116753
 20
-198.977273
 10
70.727391
 20
-198.680216
 10
70.334932
 20
-198.389958
 10
69.939505
 20
-198.106566
 10
69.54124
 20
-197.830103
 10
69.14026
 20
-197.560624
 10
68.73669
 20
-197.298186
 10
68.331439
 20
-197.043355
 10
67.924699
 20
-196.796203
 10
67.516587
 20
-196.556751
 10
67.107214
 20
-196.325016
 10
66.696686
 20
-196.101008
 10
66.285104
 20
-195.884734
 10
65.872525
 20
-195.676175
 10
65.459068
 20
-195.475344
 10
65.044843
 20
-195.282258
 10
64.631711
 20
-195.097745
 10
64.219885
 20
-194.921821
 10
63.809397
 20
-194.754416
 10
63.400269
 20
-194.595458
 10
62.992522
 20
-194.444877
 10
62.58617
 20
-194.302599
 10
62.180789
 20
-194.168398
 10
61.776265
 20
-194.04217
 10
61.372727
 20
-193.923898
 10
60.970296
 20
-193.813557
 10
60.569081
 20
-193.711118
 10
60.169184
 20
-193.616548
 10
59.767703
 20
-193.529057
 10
59.357827
 20
-193.447115
 10
58.939189
 20
-193.370772
 10
58.511389
 20
-193.30008
 10
58.073981
 20
-193.235098
 10
57.62647
 20
-193.17589
 10
57.168282
 20
-193.12254
 10
56.702395
 20
-193.075559
 10
56.228742
 20
-193.035048
 10
55.746976
 20
-193.001084
 10
55.25672
 20
-192.973752
 10
54.757558
 20
-192.953143
 10
54.249041
 20
-192.939351
 10
53.727794
 20
-192.932392
 10
53.181566
 20
-192.932135
 10
52.558462
 20
-192.938537
 10
51.762374
 20
-192.953168
 10
50.675369
 20
-192.978781
 10
49.661395
 20
-193.001758
 10
48.707583
 20
-193.01747
 10
47.902529
 20
-193.02346
 10
47.174875
 20
-193.021311
 10
46.498903
 20
-193.01179
 10
45.8624
 20
-192.995342
 10
45.257518
 20
-192.972262
 10
44.677668
 20
-192.942712
 10
44.118167
 20
-192.906794
 10
43.575393
 20
-192.864596
 10
43.037621
 20
-192.815463
 10
42.50486
 20
-192.759455
 10
41.97711
 20
-192.696644
 10
41.449286
 20
-192.626508
 10
40.918881
 20
-192.548717
 10
40.385946
 20
-192.46323
 10
39.850534
 20
-192.370006
 10
39.312706
 20
-192.269005
 10
38.772622
 20
-192.160204
 10
38.230511
 20
-192.043601
 10
37.686429
 20
-191.91916
 10
37.140438
 20
-191.786846
 10
36.592604
 20
-191.646627
 10
36.04299
 20
-191.498471
 10
35.491627
 20
-191.342337
 10
34.93854
 20
-191.178181
 10
34.38376
 20
-191.005963
 10
33.827318
 20
-190.82564
 10
33.269251
 20
-190.637172
 10
32.709601
 20
-190.440521
 10
32.148413
 20
-190.235648
 10
31.585736
 20
-190.022517
 10
31.021839
 20
-189.801168
 10
30.4585
 20
-189.57224
 10
29.895793
 20
-189.335734
 10
29.3338
 20
-189.091654
 10
28.772607
 20
-188.839996
 10
28.216349
 20
-188.582565
 10
27.666059
 20
-188.319863
 10
27.121785
 20
-188.051953
 10
26.583572
 20
-187.778901
 10
26.050562
 20
-187.50032
 10
25.521942
 20
-187.215821
 10
24.997821
 20
-186.925476
 10
24.478301
 20
-186.629358
 10
23.963484
 20
-186.32754
 10
23.453466
 20
-186.020098
 10
22.948341
 20
-185.707104
 10
22.448201
 20
-185.388634
 10
21.953134
 20
-185.064763
 10
21.463026
 20
-184.735437
 10
20.977858
 20
-184.400662
 10
20.497732
 20
-184.060521
 10
20.022748
 20
-183.715103
 10
19.553043
 20
-183.364519
 10
19.089216
 20
-183.009233
 10
18.631342
 20
-182.649332
 10
18.179493
 20
-182.284901
 10
17.733735
 20
-181.916024
 10
17.294505
 20
-181.543088
 10
16.862391
 20
-181.166628
 10
16.437426
 20
-180.786725
 10
16.019639
 20
-180.403457
 10
15.609052
 20
-180.0169
 10
15.205385
 20
-179.626848
 10
14.808461
 20
-179.233177
 10
14.418337
 20
-178.835985
 10
14.035063
 20
-178.435369
 10
13.658688
 20
-178.03142
 10
13.289589
 20
-177.624585
 10
12.928058
 20
-177.215236
 10
12.574114
 20
-176.80346
 10
12.22777
 20
-176.389339
 10
11.889038
 20
-175.972948
 10
11.557771
 20
-175.554183
 10
11.23368
 20
-175.13274
 10
10.916812
 20
-174.708734
 10
10.60721
 20
-174.282277
 10
10.304914
 20
-173.853476
 10
10.00995
 20
-173.422441
 10
9.720615
 20
-172.986764
 10
9.436629
 20
-172.546012
 10
9.158083
 20
-172.100293
 10
8.885067
 20
-171.649716
 10
8.617671
 20
-171.194396
 10
8.355774
 20
-170.734104
 10
8.098867
 20
-170.267916
 10
7.847026
 20
-169.79589
 10
7.600325
 20
-169.318088
 10
7.358842
 20
-168.83458
 10
7.122654
 20
-168.345439
 10
6.891901
 20
-167.850867
 10
6.666659
 20
-167.350945
 10
6.446994
 20
-166.845742
 10
6.232979
 20
-166.335334
 10
6.024682
 20
-165.819802
 10
5.822072
 20
-165.298981
 10
5.625181
 20
-164.772857
 10
5.434073
 20
-164.241487
 10
5.248811
 20
-163.704938
 10
5.069456
 20
-163.163276
 10
4.896006
 20
-162.616376
 10
4.728507
 20
-162.06425
 10
4.567016
 20
-161.506947
 10
4.41159
 20
-160.944518
 10
4.262522
 20
-160.3778
 10
4.121025
 20
-159.811228
 10
3.9871
 20
-159.244911
 10
3.860746
 20
-158.67895
 10
3.741959
 20
-158.113448
 10
3.630677
 20
-157.54824
 10
3.526847
 20
-156.983187
 10
3.430474
 20
-156.418422
 10
3.341561
 20
-155.854075
 10
3.260107
 20
-155.290272
 10
3.186108
 20
-154.727138
 10
3.119558
 20
-154.16479
 10
3.06045
 20
-153.603346
 10
3.008772
 20
-153.042917
 10
2.964515
 20
-152.483614
 10
2.92769
 20
-151.925876
 10
2.898283
 20
-151.369879
 10
2.876271
 20
-150.815739
 10
2.86163
 20
-150.263564
 10
2.85433
 20
-149.713461
 10
2.854322
 20
-149.164323
 10
2.861593
 20
-148.616034
 10
2.876129
 20
-148.068738
 10
2.897916
 20
-147.522581
 10
2.926933
 20
-146.977704
 10
2.96324
 20
-146.432595
 10
3.00689
 20
-145.886529
 10
3.057893
 20
-145.339628
 10
3.116256
 20
-144.792015
 10
3.181987
 20
-144.243818
 10
3.255087
 20
-143.695169
 10
3.335558
 20
-143.146202
 10
3.423396
 20
-142.597054
 10
3.518599
 20
-142.047865
 10
3.621156
 20
-141.498778
 10
3.731067
 20
-140.949886
 10
3.848334
 20
-140.401259
 10
3.972946
 20
-139.85302
 10
4.104893
 20
-139.305293
 10
4.244159
 20
-138.758204
 10
4.390727
 20
-138.211883
 10
4.544576
 20
-137.66646
 10
4.705685
 20
-137.122067
 10
4.874026
 20
-136.57884
 10
5.049573
 20
-136.036915
 10
5.232122
 20
-135.496964
 10
5.42154
 20
-134.959404
 10
5.617782
 20
-134.424364
 10
5.820798
 20
-133.891975
 10
6.030544
 20
-133.362367
 10
6.246252
 20
-132.837495
 10
6.467719
 20
-132.317786
 10
6.694878
 20
-131.80331
 10
6.927665
 20
-131.294136
 10
7.166011
 20
-130.790323
 10
7.410198
 20
-130.291197
 10
7.660169
 20
-129.796822
 10
7.915844
 20
-129.307307
 10
8.177144
 20
-128.822758
 10
8.443987
 20
-128.343275
 10
8.716295
 20
-127.868953
 10
8.993987
 20
-127.399882
 10
9.276986
 20
-126.936148
 10
9.565213
 20
-126.477832
 10
9.85859
 20
-126.025012
 10
10.156997
 20
-125.577827
 10
10.460322
 20
-125.136398
 10
10.768471
 20
-124.700816
 10
11.081349
 20
-124.271166
 10
11.398863
 20
-123.847526
 10
11.721385
 20
-123.429339
 10
12.050015
 20
-123.015134
 10
12.384667
 20
-122.605032
 10
12.725253
 20
-122.199156
 10
13.071681
 20
-121.797627
 10
13.423854
 20
-121.400563
 10
13.782307
 20
-121.007365
 10
14.147137
 20
-120.61795
 10
14.518278
 20
-120.232422
 10
14.895658
 20
-119.850884
 10
15.279202
 20
-119.473442
 10
15.66883
 20
-119.100203
 10
16.064459
 20
-118.731274
 10
16.465999
 20
-118.366763
 10
16.873359
 20
-118.006781
 10
17.28644
 20
-117.651435
 10
17.705136
 20
-117.300843
 10
18.129301
 20
-116.955147
 10
18.558847
 20
-116.614437
 10
18.993684
 20
-116.278805
 10
19.433716
 20
-115.948342
 10
19.878845
 20
-115.623138
 10
20.328969
 20
-115.303284
 10
20.783985
 20
-114.988869
 10
21.243783
 20
-114.679982
 10
21.708253
 20
-114.376712
 10
22.177281
 20
-114.079148
 10
22.650321
 20
-113.787649
 10
23.1272
 20
-113.502327
 10
23.607794
 20
-113.223256
 10
24.091982
 20
-112.950509
 10
24.57964
 20
-112.684155
 10
25.070641
 20
-112.424261
 10
25.564861
 20
-112.170894
 10
26.062172
 20
-111.924117
 10
26.562448
 20
-111.683989
 10
27.065559
 20
-111.450568
 10
27.571371
 20
-111.223915
 10
28.079746
 20
-111.004086
 10
28.59055
 20
-110.791132
 10
29.103649
 20
-110.585105
 10
29.618906
 20
-110.386052
 10
30.136189
 20
-110.194016
 10
30.655363
 20
-110.009041
 10
31.176296
 20
-109.831164
 10
31.698855
 20
-109.660422
 10
32.222909
 20
-109.496847
 10
32.748491
 20
-109.340419
 10
33.27557
 20
-109.191136
 10
33.804
 20
-109.049034
 10
34.333639
 20
-108.914142
 10
34.864342
 20
-108.786483
 10
35.399565
 20
-108.665194
 10
35.94232
 20
-108.549613
 10
36.492762
 20
-108.439785
 10
37.051838
 20
-108.335601
 10
37.619837
 20
-108.237101
 10
38.197073
 20
-108.144328
 10
38.783882
 20
-108.057327
 10
39.381386
 20
-107.976029
 10
39.991896
 20
-107.900226
 10
40.616354
 20
-107.82994
 10
41.255841
 20
-107.765197
 10
41.911614
 20
-107.706025
 10
42.585364
 20
-107.652436
 10
43.279084
 20
-107.604447
 10
43.995108
 20
-107.562089
 10
44.737298
 20
-107.525317
 10
45.517852
 20
-107.493736
 10
46.345703
 20
-107.467295
 10
47.238529
 20
-107.445699
 10
48.263441
 20
-107.427609
 10
49.548971
 20
-107.410966
 10
51.076825
 20
-107.390793
 10
52.061755
 20
-107.37167
 10
52.862152
 20
-107.349052
 10
53.56032
 20
-107.321897
 10
54.178284
 20
-107.290347
 10
54.740122
 20
-107.254063
 10
55.258354
 20
-107.213022
 10
55.741494
 20
-107.167231
 10
56.203758
 20
-107.11601
 10
56.665276
 20
-107.057556
 10
57.125893
 20
-106.991886
 10
57.584914
 20
-106.919086
 10
58.040062
 20
-106.839515
 10
58.491223
 20
-106.753237
 10
58.938293
 20
-106.660316
 10
59.381174
 20
-106.560815
 10
59.819779
 20
-106.454799
 10
60.253983
 20
-106.342334
 10
60.682119
 20
-106.223892
 10
61.104184
 20
-106.099548
 10
61.520183
 20
-105.969395
 10
61.93429
 20
-105.832216
 10
62.346813
 20
-105.687909
 10
62.757569
 20
-105.536543
 10
63.172601
 20
-105.375917
 10
63.594444
 20
-105.204946
 10
64.023815
 20
-105.023173
 10
64.461551
 20
-104.830065
 10
64.908637
 20
-104.624996
 10
65.366255
 20
-104.407213
 10
65.832761
 20
-104.17725
 10
66.306909
 20
-103.935507
 10
66.789634
 20
-103.681338
 10
67.285265
 20
-103.412296
 10
67.797851
 20
-103.125948
 10
68.330765
 20
-102.820011
 10
68.860929
 20
-102.507273
 10
69.38436
 20
-102.190039
 10
69.896213
 20
-101.871192
 10
70.379945
 20
-101.561093
 10
70.839701
 20
-101.257549
 10
71.277537
 20
-100.959593
 10
71.695058
 20
-100.666506
 10
72.09441
 20
-100.377141
 10
72.477294
 20
-100.090595
 10
72.845087
 20
-99.806133
 10
73.198924
 20
-99.523146
 10
73.53674
 20
-99.243508
 10
73.857905
 20
-98.968048
 10
74.163944
 20
-98.695839
 10
74.460761
 20
-98.422053
 10
74.754532
 20
-98.141214
 10
75.045144
 20
-97.853366
 10
75.333541
 20
-97.557558
 10
75.623885
 20
-97.249465
 10
75.916659
 20
-96.928331
 10
76.212415
 20
-96.593243
 10
76.507816
 20
-96.247663
 10
76.802941
 20
-95.891314
 10
77.09798
 20
-95.523782
 10
77.394214
 20
-95.143279
 10
77.692258
 20
-94.748765
 10
77.992649
 20
-94.339228
 10
78.294094
 20
-93.916101
 10
78.596596
 20
-93.4791
 10
78.900572
 20
-93.027259
 10
79.197896
 20
-92.572265
 10
79.48752
 20
-92.115723
 10
79.769431
 20
-91.657728
 10
80.043617
 20
-91.198372
 10
80.310071
 20
-90.737743
 10
80.568428
 20
-90.276536
 10
80.818263
 20
-89.815601
 10
81.059618
 20
-89.354987
 10
81.292538
 20
-88.894739
 10
81.51707
 20
-88.434896
 10
81.733262
 20
-87.975496
 10
81.941509
 20
-87.515848
 10
82.142019
 20
-87.055611
 10
82.33478
 20
-86.594904
 10
82.519786
 20
-86.133841
 10
82.697034
 20
-85.672532
 10
82.866527
 20
-85.211081
 10
83.028501
 20
-84.748967
 10
83.183042
 20
-84.286036
 10
83.330126
 20
-83.822435
 10
83.469736
 20
-83.358306
 10
83.601855
 20
-82.893784
 10
83.726471
 20
-82.429004
 10
83.843395
 20
-81.96476
 10
83.952548
 20
-81.501509
 10
84.053945
 20
-81.03937
 10
84.147606
 20
-80.578452
 10
84.233556
 20
-80.118858
 10
84.311818
 20
-79.660688
 10
84.382397
 20
-79.204176
 10
84.445317
 20
-78.749449
 10
84.500608
 20
-78.296609
 10
84.54816
 20
-77.846888
 10
84.587998
 20
-77.400637
 10
84.620188
 20
-76.957899
 10
84.644796
 20
-76.518706
 10
84.661887
 20
-76.083087
 10
84.671525
 20
-75.651062
 10
84.673747
 20
-75.223613
 10
84.668624
 20
-74.801485
 10
84.656249
 20
-74.384617
 10
84.636681
 20
-73.971303
 10
84.609873
 20
-73.558928
 10
84.575847
 20
-73.147704
 10
84.534558
 20
-72.736547
 10
84.485439
 20
-72.319609
 10
84.428343
 20
-71.896611
 10
84.363115
 20
-71.467253
 10
84.289582
 20
-71.031206
 10
84.207555
 20
-70.588107
 10
84.11682
 20
-70.137549
 10
84.017503
 20
-69.680906
 10
83.909504
 20
-69.218277
 10
83.792619
 20
-68.749292
 10
83.66662
 20
-68.273541
 10
83.531259
 20
-67.790571
 10
83.386251
 20
-67.299874
 10
83.231893
 20
-66.802969
 10
83.064494
 20
-66.287675
 10
82.864076
 20
-65.692246
 10
82.601665
 20
-64.932907
 10
82.235518
 20
-63.890476
 10
81.89348
 20
-62.912992
 10
81.588096
 20
-62.021817
 10
81.335858
 20
-61.263207
 10
81.114923
 20
-60.574786
 10
80.916433
 20
-59.931697
 10
80.736406
 20
-59.323076
 10
80.572254
 20
-58.741873
 10
80.421909
 20
-58.182269
 10
80.283831
 20
-57.63982
 10
80.157067
 20
-57.112114
 10
80.038193
 20
-56.586019
 10
79.927181
 20
-56.061617
 10
79.823997
 20
-55.538985
 10
79.728028
 20
-55.015365
 10
79.638539
 20
-54.486904
 10
79.555587
 20
-53.953631
 10
79.479225
 20
-53.41558
 10
79.409511
 20
-52.872791
 10
79.346507
 20
-52.325346
 10
79.290296
 20
-51.773534
 10
79.240931
 20
-51.217392
 10
79.198462
 20
-50.656967
 10
79.162941
 20
-50.092307
 10
79.13442
 20
-49.523466
 10
79.112949
 20
-48.950504
 10
79.098577
 20
-48.37343
 10
79.091353
 20
-47.792257
 10
79.091326
 20
-47.207001
 10
79.098547
 20
-46.617685
 10
79.113064
 20
-46.024333
 10
79.134928
 20
-45.426976
 10
79.164189
 20
-44.825646
 10
79.200903
 20
-44.220381
 10
79.244987
 20
-43.61353
 10
79.296443
 20
-43.005418
 10
79.355286
 20
-42.396134
 10
79.421533
 20
-41.785772
 10
79.494901
 20
-41.177269
 10
79.575134
 20
-40.572735
 10
79.662185
 20
-39.97224
 10
79.756009
 20
-39.375849
 10
79.856633
 20
-38.783101
 10
79.964247
 20
-38.192673
 10
80.078815
 20
-37.60469
 10
80.200299
 20
-37.019274
 10
80.32866
 20
-36.436545
 10
80.463858
 20
-35.856617
 10
80.605853
 20
-35.279606
 10
80.7546
 20
-34.70562
 10
80.910056
 20
-34.134768
 10
81.072189
 20
-33.567106
 10
81.240971
 20
-33.002673
 10
81.41635
 20
-32.44159
 10
81.598273
 20
-31.883978
 10
81.786682
 20
-31.32995
 10
81.9818
 20
-30.778792
 10
82.183638
 20
-30.230456
 10
82.391519
 20
-29.686804
 10
82.604768
 20
-29.149545
 10
82.823425
 20
-28.618428
 10
83.04786
 20
-28.092421
 10
83.277999
 20
-27.571619
 10
83.513767
 20
-27.056109
 10
83.755093
 20
-26.545973
 10
84.001903
 20
-26.041288
 10
84.254126
 20
-25.542125
 10
84.511692
 20
-25.04855
 10
84.774533
 20
-24.560624
 10
85.042579
 20
-24.078403
 10
85.315663
 20
-23.602128
 10
85.593494
 20
-23.132234
 10
85.875993
 20
-22.668777
 10
86.16308
 20
-22.211806
 10
86.454678
 20
-21.761363
 10
86.750744
 20
-21.317433
 10
87.051641
 20
-20.879394
 10
87.357274
 20
-20.44733
 10
87.667553
 20
-20.021317
 10
87.982389
 20
-19.601427
 10
88.301691
 20
-19.187724
 10
88.626674
 20
-18.778561
 10
88.958269
 20
-18.37275
 10
89.296408
 20
-17.970408
 10
89.641016
 20
-17.571655
 10
89.992017
 20
-17.176613
 10
90.349331
 20
-16.785392
 10
90.713766
 20
-16.39713
 10
91.085291
 20
-16.011916
 10
91.463869
 20
-15.629837
 10
91.84946
 20
-15.250987
 10
92.24202
 20
-14.875461
 10
92.641442
 20
-14.503411
 10
93.047653
 20
-14.134952
 10
93.460607
 20
-13.770173
 10
93.880254
 20
-13.409162
 10
94.306538
 20
-13.052013
 10
94.739584
 20
-12.698662
 10
95.179505
 20
-12.349062
 10
95.626271
 20
-12.003287
 10
96.079845
 20
-11.661414
 10
96.540187
 20
-11.323523
 10
97.007215
 20
-10.989721
 10
97.480873
 20
-10.660097
 10
97.961125
 20
-10.334722
 10
98.44793
 20
-10.013667
 10
98.941255
 20
-9.697024
 10
99.436878
 20
-9.387561
 10
99.934483
 20
-9.085451
 10
100.433973
 20
-8.79072
 10
100.935253
 20
-8.503393
 10
101.438399
 20
-8.223392
 10
101.943718
 20
-7.950516
 10
102.451082
 20
-7.684811
 10
102.960368
 20
-7.426321
 10
103.471455
 20
-7.175085
 10
103.984224
 20
-6.931137
 10
104.498558
 20
-6.69451
 10
105.014343
 20
-6.465233
 10
105.53147
 20
-6.24333
 10
106.049829
 20
-6.028825
 10
106.569048
 20
-5.821849
 10
107.088854
 20
-5.622484
 10
107.60913
 20
-5.430744
 10
108.129762
 20
-5.246639
 10
108.650642
 20
-5.070174
 10
109.172635
 20
-4.901019
 10
109.696275
 20
-4.738979
 10
110.22142
 20
-4.584091
 10
110.747926
 20
-4.436388
 10
111.275653
 20
-4.295899
 10
111.80541
 20
-4.162393
 10
112.338351
 20
-4.035574
 10
112.874366
 20
-3.915489
 10
113.413339
 20
-3.802184
 10
113.955151
 20
-3.695705
 10
114.499678
 20
-3.596094
 10
115.046795
 20
-3.503394
 10
115.596369
 20
-3.417646
 10
116.148268
 20
-3.338886
 10
116.702352
 20
-3.267153
 10
117.258505
 20
-3.202478
 10
117.816656
 20
-3.144883
 10
118.376685
 20
-3.094398
 10
118.938472
 20
-3.051049
 10
119.501892
 20
-3.014862
 10
120.066817
 20
-2.985858
 10
120.633117
 20
-2.964059
 10
121.200659
 20
-2.949483
 10
121.769308
 20
-2.942148
 10
122.338925
 20
-2.942069
 10
122.908915
 20
-2.949259
 10
123.478655
 20
-2.963721
 10
124.048005
 20
-2.985448
 10
124.616828
 20
-3.014434
 10
125.184985
 20
-3.050673
 10
125.750837
 20
-3.094064
 10
126.31355
 20
-3.144525
 10
126.873036
 20
-3.202014
 10
127.429212
 20
-3.266491
 10
127.982
 20
-3.337911
 10
128.531974
 20
-3.416312
 10
129.079209
 20
-3.501681
 10
129.623575
 20
-3.593973
 10
130.164946
 20
-3.693146
 10
130.703203
 20
-3.799154
 10
131.238228
 20
-3.91195
 10
131.769911
 20
-4.031486
 10
132.298146
 20
-4.157713
 10
132.822829
 20
-4.290582
 10
133.343865
 20
-4.430042
 10
133.861131
 20
-4.576036
 10
134.374488
 20
-4.728496
 10
134.883818
 20
-4.887361
 10
135.389011
 20
-5.052568
 10
135.889958
 20
-5.224054
 10
136.386797
 20
-5.401822
 10
136.881867
 20
-5.586675
 10
137.375026
 20
-5.778573
 10
137.866132
 20
-5.97747
 10
138.35504
 20
-6.183319
 10
138.841607
 20
-6.396067
 10
139.326265
 20
-6.61591
 10
139.809283
 20
-6.842982
 10
140.290542
 20
-7.077252
 10
140.769922
 20
-7.318685
 10
141.247301
 20
-7.567242
 10
141.722552
 20
-7.82288
 10
142.195549
 20
-8.085552
 10
142.666161
 20
-8.355209
 10
143.134258
 20
-8.631796
 10
143.599706
 20
-8.915255
 10
144.062372
 20
-9.205525
 10
144.522061
 20
-9.502505
 10
144.978654
 20
-9.806134
 10
145.432037
 20
-10.116354
 10
145.882094
 20
-10.433102
 10
146.328709
 20
-10.756314
 10
146.771764
 20
-11.085919
 10
147.211143
 20
-11.421847
 10
147.646727
 20
-11.764021
 10
148.078398
 20
-12.112363
 10
148.506038
 20
-12.466791
 10
148.929234
 20
-12.82698
 10
149.347725
 20
-13.192714
 10
149.761403
 20
-13.5639
 10
150.170161
 20
-13.940443
 10
150.573896
 20
-14.322247
 10
150.972504
 20
-14.709213
 10
151.365885
 20
-15.101242
 10
151.753939
 20
-15.498233
 10
152.136572
 20
-15.900083
 10
152.513687
 20
-16.306689
 10
152.885197
 20
-16.717949
 10
153.251011
 20
-17.133757
 10
153.611038
 20
-17.554001
 10
153.965186
 20
-17.978566
 10
154.31337
 20
-18.407341
 10
154.655505
 20
-18.840209
 10
154.99151
 20
-19.277056
 10
155.321306
 20
-19.717768
 10
155.64482
 20
-20.16223
 10
155.961977
 20
-20.610326
 10
156.272783
 20
-21.062044
 10
156.577274
 20
-21.51742
 10
156.875373
 20
-21.976326
 10
157.167006
 20
-22.438637
 10
157.452106
 20
-22.904224
 10
157.732418
 20
-23.375875
 10
158.009805
 20
-23.856756
 10
158.284282
 20
-24.347054
 10
158.556043
 20
-24.847289
 10
158.825147
 20
-25.357766
 10
159.091651
 20
-25.878794
 10
159.355615
 20
-26.41071
 10
159.617418
 20
-26.954486
 10
159.878045
 20
-27.512415
 10
160.137773
 20
-28.085414
 10
160.396919
 20
-28.674541
 10
160.655853
 20
-29.281022
 10
160.915067
 20
-29.906435
 10
161.175173
 20
-30.552712
 10
161.436874
 20
-31.222119
 10
161.701159
 20
-31.917679
 10
161.972769
 20
-32.652444
 10
162.254713
 20
-33.435468
 10
162.552377
 20
-34.282519
 10
162.889171
 20
-35.261065
 10
163.310828
 20
-36.504466
 10
163.773701
 20
-37.867159
 10
164.096018
 20
-38.797213
 10
164.364927
 20
-39.551524
 10
164.606823
 20
-40.207938
 10
164.827659
 20
-40.785514
 10
165.035492
 20
-41.307828
 10
165.234127
 20
-41.78661
 10
165.42748
 20
-42.233112
 10
165.618839
 20
-42.656492
 10
165.816846
 20
-43.076923
 10
166.021434
 20
-43.494261
 10
166.232479
 20
-43.908218
 10
166.44878
 20
-44.31643
 10
166.670244
 20
-44.718806
 10
166.896776
 20
-45.115264
 10
167.128285
 20
-45.505731
 10
167.364682
 20
-45.89014
 10
167.605884
 20
-46.268428
 10
167.850939
 20
-46.639165
 10
168.09965
 20
-47.002182
 10
168.351939
 20
-47.357514
 10
168.61018
 20
-47.708671
 10
168.87512
 20
-48.056683
 10
169.14666
 20
-48.401395
 10
169.42771
 20
-48.746515
 10
169.720646
 20
-49.094846
 10
170.026117
 20
-49.44692
 10
170.344876
 20
-49.803356
 10
170.677809
 20
-50.164884
 10
171.025973
 20
-50.532376
 10
171.388985
 20
-50.905109
 10
171.765709
 20
-51.281622
 10
172.157085
 20
-51.662632
 10
172.566101
 20
-52.050835
 10
172.996568
 20
-52.449576
 10
173.451585
 20
-52.8613
 10
173.913996
 20
-53.26993
 10
174.37644
 20
-53.668834
 10
174.83806
 20
-54.057253
 10
175.28253
 20
-54.421513
 10
175.713254
 20
-54.764913
 10
176.132111
 20
-55.08937
 10
176.53997
 20
-55.395941
 10
176.938601
 20
-55.686328
 10
177.329402
 20
-55.961879
 10
177.713504
 20
-56.223685
 10
178.091843
 20
-56.472645
 10
178.4629
 20
-56.70797
 10
178.824564
 20
-56.928574
 10
179.178246
 20
-57.135656
 10
179.528568
 20
-57.332303
 10
179.88586
 20
-57.524566
 10
180.250142
 20
-57.712373
 10
180.621573
 20
-57.895755
 10
181.004408
 20
-58.076748
 10
181.399338
 20
-58.25551
 10
181.807168
 20
-58.43222
 10
182.226498
 20
-58.606073
 10
182.657485
 20
-58.77697
 10
183.100812
 20
-58.945023
 10
183.555909
 20
-59.109842
 10
184.022949
 20
-59.271332
 10
184.502713
 20
-59.429614
 10
184.996099
 20
-59.584823
 10
185.50415
 20
-59.737119
 10
186.028106
 20
-59.886657
 10
186.554999
 20
-60.029477
 10
187.080123
 20
-60.164257
 10
187.603434
 20
-60.291038
 10
188.124894
 20
-60.409862
 10
188.644468
 20
-60.520773
 10
189.162019
 20
-60.623789
 10
189.677003
 20
-60.71885
 10
190.189356
 20
-60.806002
 10
190.699019
 20
-60.885292
 10
191.205944
 20
-60.956768
 10
191.710083
 20
-61.02048
 10
192.211754
 20
-61.076528
 10
192.711563
 20
-61.12503
 10
193.209398
 20
-61.166015
 10
193.705152
 20
-61.199513
 10
194.198727
 20
-61.225555
 10
194.690027
 20
-61.244176
 10
195.179368
 20
-61.255429
 10
195.667232
 20
-61.259362
 10
196.153467
 20
-61.255997
 10
196.637927
 20
-61.245359
 10
197.12047
 20
-61.227476
 10
197.600962
 20
-61.202378
 10
198.078847
 20
-61.170117
 10
198.553318
 20
-61.130775
 10
199.024273
 20
-61.084405
 10
199.491617
 20
-61.031061
 10
199.955262
 20
-60.970798
 10
200.415128
 20
-60.90367
 10
200.871038
 20
-60.829747
 10
201.322862
 20
-60.749096
 10
201.770509
 20
-60.661777
 10
202.212991
 20
-60.568026
 10
202.649774
 20
-60.468014
 10
203.080837
 20
-60.361817
 10
203.50617
 20
-60.249507
 10
203.925768
 20
-60.131157
 10
204.339631
 20
-60.006835
 10
204.747037
 20
-59.876816
 10
205.146977
 20
-59.741498
 10
205.539548
 20
-59.600949
 10
205.92592
 20
-59.454872
 10
206.309717
 20
-59.301996
 10
206.69074
 20
-59.142396
 10
207.068974
 20
-58.97612
 10
207.450271
 20
-58.800616
 10
207.834851
 20
-58.615663
 10
208.222953
 20
-58.421015
 10
208.614838
 20
-58.216409
 10
209.010795
 20
-58.001551
 10
209.411145
 20
-57.776114
 10
209.814865
 20
-57.540507
 10
210.221549
 20
-57.294819
 10
210.631482
 20
-57.038745
 10
211.044979
 20
-56.771947
 10
211.462389
 20
-56.494053
 10
211.884102
 20
-56.204642
 10
212.309318
 20
-55.904088
 10
212.745868
 20
-55.586981
 10
213.250114
 20
-55.212495
 10
213.892028
 20
-54.727679
 10
214.770147
 20
-54.057457
 10
215.58836
 20
-53.434412
 10
216.343004
 20
-52.867401
 10
216.987725
 20
-52.392115
 10
217.574025
 20
-51.969279
 10
218.124427
 20
-51.581601
 10
218.647911
 20
-51.222026
 10
219.150321
 20
-50.885959
 10
219.636294
 20
-50.56981
 10
220.109758
 20
-50.270621
 10
220.572489
 20
-49.986898
 10
221.035563
 20
-49.711527
 10
221.500134
 20
-49.443747
 10
221.966099
 20
-49.183577
 10
222.434198
 20
-48.930539
 10
222.908921
 20
-48.682158
 10
223.390255
 20
-48.438498
 10
223.878182
 20
-48.199623
 10
224.372679
 20
-47.9656
 10
224.873721
 20
-47.736498
 10
225.38112
 20
-47.512459
 10
225.894846
 20
-47.293549
 10
226.414893
 20
-47.079824
 10
226.941246
 20
-46.871343
 10
227.47389
 20
-46.668167
 10
228.01232
 20
-46.470544
 10
228.556452
 20
-46.278552
 10
229.106249
 20
-46.092249
 10
229.66167
 20
-45.911696
 10
230.222894
 20
-45.736876
 10
230.790924
 20
-45.567521
 10
231.365822
 20
-45.403676
 10
231.947648
 20
-45.245385
 10
232.536463
 20
-45.092702
 10
233.129066
 20
-44.946539
 10
233.72402
 20
-44.807282
 10
234.321206
 20
-44.674968
 10
234.9205
 20
-44.549634
 10
235.520566
 20
-44.431574
 10
236.11959
 20
-44.321146
 10
236.71748
 20
-44.218337
 10
237.314145
 20
-44.123133
 10
237.909612
 20
-44.035495
 10
238.504885
 20
-43.955245
 10
239.099832
 20
-43.882384
 10
239.694326
 20
-43.816914
 10
240.28824
 20
-43.758832
 10
240.881453
 20
-43.708134
 10
241.473843
 20
-43.664815
 10
242.065295
 20
-43.628865
 10
242.655692
 20
-43.600273
 10
243.245095
 20
-43.579018
 10
243.834065
 20
-43.565059
 10
244.422465
 20
-43.558393
 10
245.010158
 20
-43.559012
 10
245.597008
 20
-43.56691
 10
246.181823
 20
-43.582065
 10
246.763917
 20
-43.604441
 10
247.343206
 20
-43.634002
 10
247.919608
 20
-43.670714
 10
248.493044
 20
-43.71454
 10
249.063278
 20
-43.765431
 10
249.6302
 20
-43.823346
 10
250.19371
 20
-43.888239
 10
250.753711
 20
-43.960065
 10
251.310114
 20
-44.03878
 10
251.862833
 20
-44.124335
 10
252.41179
 20
-44.216684
 10
252.95691
 20
-44.31578
 10
253.498124
 20
-44.421575
 10
254.035305
 20
-44.534011
 10
254.567986
 20
-44.652956
 10
255.096079
 20
-44.778348
 10
255.619506
 20
-44.910129
 10
256.138194
 20
-45.048236
 10
256.652075
 20
-45.192607
 10
257.161768
 20
-45.343372
 10
257.66728
 20
-45.5005
 10
258.168511
 20
-45.663928
 10
258.665363
 20
-45.833594
 10
259.157747
 20
-46.009434
 10
259.64677
 20
-46.191797
 10
260.134832
 20
-46.38155
 10
260.621801
 20
-46.578669
 10
261.107544
 20
-46.783125
 10
261.591924
 20
-46.994886
 10
262.074802
 20
-47.213912
 10
262.556774
 20
-47.440496
 10
263.037997
 20
-47.674744
 10
263.518376
 20
-47.91665
 10
263.997812
 20
-48.166203
 10
264.476202
 20
-48.423391
 10
264.95342
 20
-48.688185
 10
265.429337
 20
-48.960555
 10
265.903855
 20
-49.240484
 10
266.376875
 20
-49.527953
 10
266.848292
 20
-49.822939
 10
267.318125
 20
-50.125489
 10
267.786564
 20
-50.435769
 10
268.253533
 20
-50.753775
 10
268.718952
 20
-51.079499
 10
269.182737
 20
-51.412932
 10
269.644683
 20
-51.753977
 10
270.104543
 20
-52.1025
 10
270.562234
 20
-52.458481
 10
271.017668
 20
-52.821899
 10
271.470751
 20
-53.192732
 10
271.918545
 20
-53.568641
 10
272.359902
 20
-53.948659
 10
272.794767
 20
-54.332703
 10
273.223088
 20
-54.72069
 10
273.644854
 20
-55.112568
 10
274.060528
 20
-55.508724
 10
274.470025
 20
-55.909055
 10
274.873266
 20
-56.313453
 10
275.270176
 20
-56.721816
 10
275.660682
 20
-57.134041
 10
276.044718
 20
-57.550025
 10
276.42222
 20
-57.96967
 10
276.79313
 20
-58.392876
 10
277.15739
 20
-58.819547
 10
277.514826
 20
-59.249445
 10
277.865191
 20
-59.682238
 10
278.208437
 20
-60.117817
 10
278.544518
 20
-60.556079
 10
278.873394
 20
-60.996921
 10
279.195429
 20
-61.44077
 10
279.511312
 20
-61.888527
 10
279.820961
 20
-62.340069
 10
280.124298
 20
-62.79527
 10
280.421246
 20
-63.254006
 10
280.711942
 20
-63.71646
 10
280.997267
 20
-64.184015
 10
281.277141
 20
-64.656581
 10
281.551486
 20
-65.134063
 10
281.820222
 20
-65.616363
 10
282.08327
 20
-66.103377
 10
282.340551
 20
-66.595
 10
282.591988
 20
-67.09112
 10
282.837501
 20
-67.591622
 10
283.077015
 20
-68.096387
 10
283.310453
 20
-68.605295
 10
283.537775
 20
-69.118293
 10
283.758917
 20
-69.635276
 10
283.973816
 20
-70.156137
 10
284.18241
 20
-70.680766
 10
284.384638
 20
-71.209049
 10
284.58044
 20
-71.74087
 10
284.769758
 20
-72.276108
 10
284.952533
 20
-72.81464
 10
285.128709
 20
-73.35634
 10
285.298145
 20
-73.900823
 10
285.460546
 20
-74.44718
 10
285.615875
 20
-74.995275
 10
285.764097
 20
-75.544975
 10
285.90518
 20
-76.096146
 10
286.038866
 20
-76.647788
 10
286.164865
 20
-77.198656
 10
286.283188
 20
-77.748653
 10
286.393848
 20
-78.297685
 10
286.49686
 20
-78.845661
 10
286.59232
 20
-79.392903
 10
286.680309
 20
-79.9397
 10
286.760828
 20
-80.485915
 10
286.833878
 20
-81.031414
 10
286.899465
 20
-81.576066
 10
286.957598
 20
-82.119746
 10
287.008288
 20
-82.662333
 10
287.051549
 20
-83.203708
 10
287.087395
 20
-83.743758
 10
287.115845
 20
-84.282375
 10
287.136918
 20
-84.819452
 10
287.150635
 20
-85.354879
 10
287.157019
 20
-85.888522
 10
287.156093
 20
-86.420251
 10
287.147885
 20
-86.949943
 10
287.13243
 20
-87.477479
 10
287.109701
 20
-88.004997
 10
287.079676
 20
-88.533043
 10
287.042351
 20
-89.06147
 10
286.997725
 20
-89.590127
 10
286.945799
 20
-90.118865
 10
286.886556
 20
-90.647774
 10
286.819932
 20
-91.177348
 10
286.745919
 20
-91.707466
 10
286.664515
 20
-92.238005
 10
286.575719
 20
-92.768834
 10
286.479531
 20
-93.299824
 10
286.375958
 20
-93.83084
 10
286.265006
 20
-94.361743
 10
286.146686
 20
-94.892392
 10
286.021012
 20
-95.422644
 10
285.888002
 20
-95.952353
 10
285.747686
 20
-96.481324
 10
285.600091
 20
-97.009401
 10
285.445237
 20
-97.536457
 10
285.283147
 20
-98.062363
 10
285.113848
 20
-98.58699
 10
284.937369
 20
-99.110204
 10
284.753743
 20
-99.631872
 10
284.563004
 20
-100.151859
 10
284.36519
 20
-100.670029
 10
284.160344
 20
-101.186244
 10
283.948595
 20
-101.700141
 10
283.730124
 20
-102.211265
 10
283.504985
 20
-102.719485
 10
283.273236
 20
-103.22467
 10
283.034936
 20
-103.726691
 10
282.790147
 20
-104.225421
 10
282.538933
 20
-104.720732
 10
282.28136
 20
-105.212501
 10
282.017496
 20
-105.700603
 10
281.74741
 20
-106.184916
 10
281.471168
 20
-106.665331
 10
281.188835
 20
-107.141744
 10
280.90049
 20
-107.614033
 10
280.606212
 20
-108.082076
 10
280.306083
 20
-108.545755
 10
280.000186
 20
-109.004955
 10
279.688605
 20
-109.459562
 10
279.371425
 20
-109.909466
 10
279.048733
 20
-110.354559
 10
278.720616
 20
-110.794738
 10
278.387131
 20
-111.22994
 10
278.04818
 20
-111.660316
 10
277.703859
 20
-112.08575
 10
277.354264
 20
-112.506133
 10
276.999498
 20
-112.921358
 10
276.63799
 20
-113.333311
 10
276.266608
 20
-113.745559
 10
275.885154
 20
-114.15819
 10
275.49341
 20
-114.57131
 10
275.091117
 20
-114.985057
 10
274.677999
 20
-115.39958
 10
274.253754
 20
-115.81504
 10
273.817772
 20
-116.231905
 10
273.367947
 20
-116.652047
 10
272.903485
 20
-117.076019
 10
272.42347
 20
-117.504454
 10
271.926841
 20
-117.938093
 10
271.41228
 20
-118.377864
 10
270.878115
 20
-118.824963
 10
270.322393
 20
-119.280775
 10
269.742708
 20
-119.747028
 10
269.12859
 20
-120.231891
 10
268.4712
 20
-120.741952
 10
267.758531
 20
-121.286164
 10
266.934131
 20
-121.90729
 10
265.882253
 20
-122.692321
 10
264.721569
 20
-123.559366
 10
263.935832
 20
-124.153895
 10
263.301277
 20
-124.64291
 10
262.751197
 20
-125.076213
 10
262.270036
 20
-125.464763
 10
261.837723
 20
-125.823626
 10
261.444375
 20
-126.15995
 10
261.078726
 20
-126.482432
 10
260.735468
 20
-126.794951
 10
260.397146
 20
-127.112811
 10
260.063703
 20
-127.436064
 10
259.735266
 20
-127.764606
 10
259.413751
 20
-128.096538
 10
259.099401
 20
-128.431556
 10
258.792266
 20
-128.769544
 10
258.492386
 20
-129.110395
 10
258.199795
 20
-129.454002
 10
257.914527
 20
-129.800266
 10
257.637504
 20
-130.148011
 10
257.369047
 20
-130.496734
 10
257.109094
 20
-130.846382
 10
256.85534
 20
-131.199883
 10
256.606156
 20
-131.559454
 10
256.361662
 20
-131.924987
 10
256.12025
 20
-132.298898
 10
255.879494
 20
-132.685049
 10
255.639091
 20
-133.084216
 10
255.398688
 20
-133.497298
 10
255.157869
 20
-133.925351
 10
254.916137
 20
-134.369634
 10
254.673609
 20
-134.830393
 10
254.431735
 20
-135.305337
 10
254.190124
 20
-135.795583
 10
253.947529
 20
-136.304008
 10
253.701699
 20
-136.835762
 10
253.451292
 20
-137.39442
 10
253.204605
 20
-137.962487
 10
252.968214
 20
-138.525232
 10
252.741931
 20
-139.083004
 10
252.532684
 20
-139.618555
 10
252.339083
 20
-140.134458
 10
252.159754
 20
-140.633432
 10
251.994091
 20
-141.116277
 10
251.841012
 20
-141.58523
 10
251.699656
 20
-142.042056
 10
251.56933
 20
-142.488183
 10
251.44946
 20
-142.924788
 10
251.34006
 20
-143.351162
 10
251.241836
 20
-143.763774
 10
251.15406
 20
-144.164407
 10
251.075687
 20
-144.556202
 10
251.00339
 20
-144.954452
 10
250.937247
 20
-145.359243
 10
250.877239
 20
-145.771218
 10
250.823187
 20
-146.19225
 10
250.77516
 20
-146.622877
 10
250.733233
 20
-147.063703
 10
250.697489
 20
-147.515417
 10
250.668034
 20
-147.978821
 10
250.645162
 20
-148.45212
 10
250.62901
 20
-148.935464
 10
250.619695
 20
-149.429571
 10
250.61735
 20
-149.935262
 10
250.618113
 20
-150.102158
  0
CIRCLE
  5
5A7
330
1F
100
AcDbEntity
  8
OUTLINE
 67
0
100
AcDbCircle
 10
206.840178752
 20
-187.650877718
 40
5.0
  0
CIRCLE
  5
5A8
330
1F
100
AcDbEntity
  8
OUTLINE
 67
0
100
AcDbCircle
 10
155.272288943
 20
-150.183829724
 40
13.0
  0
CIRCLE
  5
5A9
330
1F
100
AcDbEntity
  8
OUTLINE
 67
0
100
AcDbCircle
 10
105.272288943
 20
-150.183829724
 40
6.1
  0
CIRCLE
  5
5AA
330
1F
100
AcDbEntity
  8
OUTLINE
 67
0
100
AcDbCircle
 10
227.666695469
 20
-150.249805164
 40
1.727
  0
CIRCLE
  5
5AB
330
1F
100
AcDbEntity
  8
OUTLINE
 67
0
100
AcDbCircle
 10
246.181997172
 20
-190.287791355
 40
1.727
  0
CIRCLE
  5
5AC
330
1F
100
AcDbEntity
  8
OUTLINE
 67
0
100
AcDbCircle
 10
261.027595281
 20
-226.905775609
 40
1.727
  0
CIRCLE
  5
5AD
330
1F
100
AcDbEntity
  8
OUTLINE
 67
0
100
AcDbCircle
 10
221.332732726
 20
-224.162976854
 40
1.727
  0
CIRCLE
  5
5AE
330
1F
100
AcDbEntity
  8
OUTLINE
 67
0
100
AcDbCircle
 10
177.578161269
 20
-219.056137062
 40
1.727
  0
CIRCLE
  5
5AF
330
1F
100
AcDbEntity
  8
OUTLINE
 67
0
100
AcDbCircle
 10
145.222730939
 20
-249.039262005
 40
1.727
  0
CIRCLE
  5
5B0
330
1F
100
AcDbEntity
  8
OUTLINE
 67
0
100
AcDbCircle
 10
114.983143922
 20
-274.470610197
 40
1.727
  0
CIRCLE
  5
5B1
330
1F
100
AcDbEntity
  8
OUTLINE
 67
0
100
AcDbCircle
 10
105.329741888
 20
-235.869662023
 40
1.727
  0
CIRCLE
  5
5B2
330
1F
100
AcDbEntity
  8
OUTLINE
 67
0
100
AcDbCircle
 10
96.6634104418
 20
-192.68046266
 40
1.727
  0
CIRCLE
  5
5B3
330
1F
100
AcDbEntity
  8
OUTLINE
 67
0
100
AcDbCircle
 10
58.1503025646
 20
-171.174410862
 40
1.727
  0
CIRCLE
  5
5B4
330
1F
100
AcDbEntity
  8
OUTLINE
 67
0
100
AcDbCircle
 10
24.6187355363
 20
-150.275074575
 40
1.727
  0
CIRCLE
  5
5B5
330
1F
100
AcDbEntity
  8
OUTLINE
 67
0
100
AcDbCircle
 10
58.3454043023
 20
-129.164085605
 40
1.727
  0
CIRCLE
  5
5B6
330
1F
100
AcDbEntity
  8
OUTLINE
 67
0
100
AcDbCircle
 10
96.7432951381
 20
-107.576959975
 40
1.727
  0
CIRCLE
  5
5B7
330
1F
100
AcDbEntity
  8
OUTLINE
 67
0
100
AcDbCircle
 10
177.705658348
 20
-81.3529061235
 40
1.727
  0
CIRCLE
  5
5B8
330
1F
100
AcDbEntity
  8
OUTLINE
 67
0
100
AcDbCircle
 10
221.504609198
 20
-76.1168456714
 40
1.727
  0
CIRCLE
  5
5B9
330
1F
100
AcDbEntity
  8
OUTLINE
 67
0
100
AcDbCircle
 10
260.917469306
 20
-73.3110680206
 40
1.727
  0
CIRCLE
  5
5BA
330
1F
100
AcDbEntity
  8
OUTLINE
 67
0
100
AcDbCircle
 10
246.046448179
 20
-110.215801339
 40
1.727
  0
ENDSEC
  0
SECTION
  2
OBJECTS
  0
DICTIONARY
  5
C
330
0
100
AcDbDictionary
281
1
  3
ACAD_COLOR
350
4A3
  3
ACAD_GROUP
350
4A4
  3
ACAD_LAYOUT
350
4A5
  3
ACAD_MATERIAL
350
4A6
  3
ACAD_MLEADERSTYLE
350
4A7
  3
ACAD_MLINESTYLE
350
4A8
  3
ACAD_PLOTSETTINGS
350
4A9
  3
ACAD_PLOTSTYLENAME
350
4AB
  3
ACAD_SCALELIST
350
4AC
  3
ACAD_TABLESTYLE
350
4AD
  3
ACAD_VISUALSTYLE
350
4AE
  0
DICTIONARY
  5
4A3
330
C
100
AcDbDictionary
281
1
  0
DICTIONARY
  5
4A4
330
C
100
AcDbDictionary
281
1
  0
DICTIONARY
  5
4A5
330
C
100
AcDbDictionary
281
1
  3
Model
350
4AF
  3
Layout1
350
4B0
  0
DICTIONARY
  5
4A6
330
C
100
AcDbDictionary
281
1
  3
ByBlock
350
599
  3
ByLayer
350
59A
  3
Global
350
59B
  0
DICTIONARY
  5
4A7
330
C
100
AcDbDictionary
281
1
  3
Standard
350
59C
  0
DICTIONARY
  5
4A8
330
C
100
AcDbDictionary
281
1
  3
STANDARD
350
59D
  0
DICTIONARY
  5
4A9
330
C
100
AcDbDictionary
281
1
  0
ACDBPLACEHOLDER
  5
4AA
330
4AB
  0
ACDBDICTIONARYWDFLT
  5
4AB
330
C
100
AcDbDictionary
281
1
  3
Normal
350
4AA
100
AcDbDictionaryWithDefault
340
4AA
  0
DICTIONARY
  5
4AC
330
C
100
AcDbDictionary
281
1
  0
DICTIONARY
  5
4AD
330
C
100
AcDbDictionary
281
1
  0
DICTIONARY
  5
4AE
330
C
100
AcDbDictionary
281
1
  0
LAYOUT
  5
4AF
330
4A5
100
AcDbPlotSettings
  1

  2
DWFx ePlot (XPS Compatible).pc3
  4
ANSI_A_(8.50_x_11.00_Inches)
  6

 40
5.8
 41
17.8
 42
5.8
 43
17.8
 44
215.9
 45
279.4
 46
0.0
 47
0.0
 48
0.0
 49
0.0
140
0.0
141
0.0
142
1.0
143
14.53
 70
11952
 72
0
 73
1
 74
0
  7

 75
0
147
0.069
148
114.98
149
300.29
100
AcDbLayout
  1
Model
 70
1
 71
0
 10
0.0
 20
0.0
 11
12.0
 21
9.0
 12
0.0
 22
0.0
 32
0.0
 14
0.0
 24
0.0
 34
0.0
 15
0.0
 25
0.0
 35
0.0
146
0.0
 13
0.0
 23
0.0
 33
0.0
 16
1.0
 26
0.0
 36
0.0
 17
0.0
 27
1.0
 37
0.0
 76
0
330
1F
  0
LAYOUT
  5
4B0
330
4A5
100
AcDbPlotSettings
  1

  2
DWFx ePlot (XPS Compatible).pc3
  4
ANSI_A_(8.50_x_11.00_Inches)
  6

 40
5.8
 41
17.8
 42
5.8
 43
17.8
 44
215.9
 45
279.4
 46
0.0
 47
0.0
 48
0.0
 49
0.0
140
0.0
141
0.0
142
1.0
143
1.0
 70
688
 72
0
 73
1
 74
5
  7
acad.ctb
 75
16
147
1.0
148
0.0
149
0.0
100
AcDbLayout
  1
Layout1
 70
1
 71
1
 10
-0.7
 20
-0.23
 11
10.3
 21
8.27
 12
0.0
 22
0.0
 32
0.0
 14
0.63
 24
0.8
 34
0.0
 15
9.0
 25
7.2
 35
0.0
146
0.0
 13
0.0
 23
0.0
 33
0.0
 16
1.0
 26
0.0
 36
0.0
 17
0.0
 27
1.0
 37
0.0
 76
0
330
58
  0
MATERIAL
  5
599
102
{ACAD_REACTORS
330
4A6
102
}
330
4A6
100
AcDbMaterial
  1
ByBlock
 94
63
  0
MATERIAL
  5
59A
102
{ACAD_REACTORS
330
4A6
102
}
330
4A6
100
AcDbMaterial
  1
ByLayer
 94
63
  0
MATERIAL
  5
59B
102
{ACAD_REACTORS
330
4A6
102
}
330
4A6
100
AcDbMaterial
  1
Global
 94
63
  0
MLEADERSTYLE
  5
59C
102
{ACAD_REACTORS
330
4A7
102
}
330
4A7
100
AcDbMLeaderStyle
179
2
170
2
171
1
172
0
 90
2
 40
0.0
 41
0.0
173
1
 91
-1056964608
340
14
 92
-2
290
1
 42
2.0
291
1
 43
8.0
  3
Standard
341
0
 44
4.0
300

342
11
174
1
178
1
175
1
176
0
 93
-1056964608
 45
4.0
292
0
297
0
 46
4.0
343
0
 94
-1056964608
 47
1.0
 49
1.0
140
1.0
293
1
141
0.0
294
1
177
0
142
1.0
295
0
296
0
143
3.75
271
0
272
9
273
9
  0
MLINESTYLE
  5
59D
102
{ACAD_REACTORS
330
4A8
102
}
330
4A8
100
AcDbMlineStyle
  2
STANDARD
 70
0
  3

 62
256
 51
90.0
 52
90.0
 71
2
 49
0.5
 62
256
  6
BYLAYER
 49
-0.5
 62
256
  6
BYLAYER
  0
ENDSEC
  0
EOF
