  0
SECTION
  2
HEADER
  9
$ACADVER
  1
AC1015
  9
$ACADMAINTVER
 70
20
  9
$DWGCODEPAGE
  3
ANSI_1252
  9
$LASTSAVEDBY
  1
unknown
  9
$INSBASE
 10
0.0
 20
0.0
 30
0.0
  9
$EXTMIN
 10
1e+20
 20
1e+20
 30
1e+20
  9
$EXTMAX
 10
-1e+20
 20
-1e+20
 30
-1e+20
  9
$LIMMIN
 10
0.0
 20
0.0
  9
$LIMMAX
 10
12.0
 20
9.0
  9
$ORTHOMODE
 70
0
  9
$REGENMODE
 70
1
  9
$FILLMODE
 70
1
  9
$QTEXTMODE
 70
0
  9
$MIRRTEXT
 70
0
  9
$LTSCALE
 40
1.0
  9
$ATTMODE
 70
1
  9
$TEXTSIZE
 40
0.2
  9
$TRACEWID
 40
0.05
  9
$TEXTSTYLE
  7
Notes
  9
$CLAYER
  8
0
  9
$CELTYPE
  6
ByLayer
  9
$CECOLOR
 62
256
  9
$CELTSCALE
 40
1.0
  9
$DISPSILH
 70
0
  9
$DIMSCALE
 40
1.0
  9
$DIMASZ
 40
3.0
  9
$DIMEXO
 40
1.5
  9
$DIMDLI
 40
6.0
  9
$DIMRND
 40
0.0
  9
$DIMDLE
 40
0.0
  9
$DIMEXE
 40
3.0
  9
$DIMTP
 40
0.0
  9
$DIMTM
 40
0.0
  9
$DIMTXT
 40
3.0
  9
$DIMCEN
 40
3.0
  9
$DIMTSZ
 40
0.0
  9
$DIMTOL
 70
0
  9
$DIMLIM
 70
0
  9
$DIMTIH
 70
0
  9
$DIMTOH
 70
0
  9
$DIMSE1
 70
0
  9
$DIMSE2
 70
0
  9
$DIMTAD
 70
1
  9
$DIMZIN
 70
3
  9
$DIMBLK
  1

  9
$DIMASO
 70
1
  9
$DIMSHO
 70
1
  9
$DIMPOST
  1

  9
$DIMAPOST
  1

  9
$DIMALT
 70
0
  9
$DIMALTD
 70
2
  9
$DIMALTF
 40
25.4
  9
$DIMLFAC
 40
1.0
  9
$DIMTOFL
 70
0
  9
$DIMTVP
 40
0.0
  9
$DIMTIX
 70
0
  9
$DIMSOXD
 70
0
  9
$DIMSAH
 70
0
  9
$DIMBLK1
  1

  9
$DIMBLK2
  1

  9
$DIMSTYLE
  2
Civil-Metric
  9
$DIMCLRD
 70
0
  9
$DIMCLRE
 70
0
  9
$DIMCLRT
 70
0
  9
$DIMTFAC
 40
1.0
  9
$DIMGAP
 40
2.0
  9
$DIMJUST
 70
0
  9
$DIMSD1
 70
0
  9
$DIMSD2
 70
0
  9
$DIMTOLJ
 70
1
  9
$DIMTZIN
 70
0
  9
$DIMALTZ
 70
0
  9
$DIMALTTZ
 70
0
  9
$DIMUPT
 70
0
  9
$DIMDEC
 70
2
  9
$DIMTDEC
 70
2
  9
$DIMALTU
 70
2
  9
$DIMALTTD
 70
2
  9
$DIMTXSTY
  7
Standard
  9
$DIMAUNIT
 70
0
  9
$DIMADEC
 70
2
  9
$DIMALTRND
 40
0.0
  9
$DIMAZIN
 70
2
  9
$DIMDSEP
 70
46
  9
$DIMATFIT
 70
3
  9
$DIMFRAC
 70
1
  9
$DIMLDRBLK
  1

  9
$DIMLUNIT
 70
2
  9
$DIMLWD
 70
-2
  9
$DIMLWE
 70
-2
  9
$DIMTMOVE
 70
0
  9
$LUNITS
 70
2
  9
$LUPREC
 70
4
  9
$SKETCHINC
 40
0.1
  9
$FILLETRAD
 40
0.0
  9
$AUNITS
 70
4
  9
$AUPREC
 70
5
  9
$MENU
  1
.
  9
$ELEVATION
 40
0.0
  9
$PELEVATION
 40
0.0
  9
$THICKNESS
 40
0.0
  9
$LIMCHECK
 70
0
  9
$CHAMFERA
 40
0.0
  9
$CHAMFERB
 40
0.0
  9
$CHAMFERC
 40
0.0
  9
$CHAMFERD
 40
0.0
  9
$SKPOLY
 70
0
  9
$TDCREATE
 40
2459255.4289
  9
$TDUPDATE
 40
2459255.4289
  9
$TDINDWG
 40
0.0
  9
$TDUSRTIMER
 40
0.0
  9
$USRTIMER
 70
1
  9
$ANGBASE
 50
0.0
  9
$ANGDIR
 70
0
  9
$PDMODE
 70
0
  9
$PDSIZE
 40
0.0
  9
$PLINEWID
 40
0.0
  9
$SPLFRAME
 70
0
  9
$SPLINETYPE
 70
6
  9
$SPLINESEGS
 70
8
  9
$HANDSEED
  5
5D7
  9
$SURFTAB1
 70
6
  9
$SURFTAB2
 70
6
  9
$SURFTYPE
 70
6
  9
$SURFU
 70
6
  9
$SURFV
 70
6
  9
$UCSBASE
  2

  9
$UCSNAME
  2

  9
$UCSORG
 10
0.0
 20
0.0
 30
0.0
  9
$UCSXDIR
 10
1.0
 20
0.0
 30
0.0
  9
$UCSYDIR
 10
0.0
 20
1.0
 30
0.0
  9
$UCSORTHOREF
  2

  9
$UCSORTHOVIEW
 70
0
  9
$UCSORGTOP
 10
0.0
 20
0.0
 30
0.0
  9
$UCSORGBOTTOM
 10
0.0
 20
0.0
 30
0.0
  9
$UCSORGLEFT
 10
0.0
 20
0.0
 30
0.0
  9
$UCSORGRIGHT
 10
0.0
 20
0.0
 30
0.0
  9
$UCSORGFRONT
 10
0.0
 20
0.0
 30
0.0
  9
$UCSORGBACK
 10
0.0
 20
0.0
 30
0.0
  9
$PUCSBASE
  2

  9
$PUCSNAME
  2

  9
$PUCSORG
 10
0.0
 20
0.0
 30
0.0
  9
$PUCSXDIR
 10
1.0
 20
0.0
 30
0.0
  9
$PUCSYDIR
 10
0.0
 20
1.0
 30
0.0
  9
$PUCSORTHOREF
  2

  9
$PUCSORTHOVIEW
 70
0
  9
$PUCSORGTOP
 10
0.0
 20
0.0
 30
0.0
  9
$PUCSORGBOTTOM
 10
0.0
 20
0.0
 30
0.0
  9
$PUCSORGLEFT
 10
0.0
 20
0.0
 30
0.0
  9
$PUCSORGRIGHT
 10
0.0
 20
0.0
 30
0.0
  9
$PUCSORGFRONT
 10
0.0
 20
0.0
 30
0.0
  9
$PUCSORGBACK
 10
0.0
 20
0.0
 30
0.0
  9
$USERI1
 70
0
  9
$USERI2
 70
0
  9
$USERI3
 70
0
  9
$USERI4
 70
0
  9
$USERI5
 70
0
  9
$USERR1
 40
0.0
  9
$USERR2
 40
0.0
  9
$USERR3
 40
0.0
  9
$USERR4
 40
0.0
  9
$USERR5
 40
0.0
  9
$WORLDVIEW
 70
1
  9
$SHADEDGE
 70
3
  9
$SHADEDIF
 70
70
  9
$TILEMODE
 70
1
  9
$MAXACTVP
 70
64
  9
$PINSBASE
 10
0.0
 20
0.0
 30
0.0
  9
$PLIMCHECK
 70
0
  9
$PEXTMIN
 10
0.628866766397
 20
0.799999952316
 30
0.0
  9
$PEXTMAX
 10
9.02886638493
 20
7.19999957085
 30
0.0
  9
$PLIMMIN
 10
-0.700541819174
 20
-0.228100386192
  9
$PLIMMAX
 10
10.2994579405
 20
8.27189937351
  9
$UNITMODE
 70
0
  9
$VISRETAIN
 70
1
  9
$PLINEGEN
 70
0
  9
$PSLTSCALE
 70
1
  9
$TREEDEPTH
 70
3020
  9
$CMLSTYLE
  2
Standard
  9
$CMLJUST
 70
0
  9
$CMLSCALE
 40
1.0
  9
$PROXYGRAPHICS
 70
1
  9
$MEASUREMENT
 70
1
  9
$CELWEIGHT
370
-1
  9
$ENDCAPS
280
0
  9
$JOINSTYLE
280
0
  9
$LWDISPLAY
290
0
  9
$INSUNITS
 70
4
  9
$HYPERLINKBASE
  1

  9
$STYLESHEET
  1

  9
$XEDIT
290
1
  9
$CEPSNTYPE
380
0
  9
$PSTYLEMODE
290
1
  9
$FINGERPRINTGUID
  2
A707FC8F-6AB7-11EB-B259-B469211BEFD5
  9
$VERSIONGUID
  2
A7095C21-6AB7-11EB-8951-B469211BEFD5
  9
$EXTNAMES
290
1
  9
$PSVPSCALE
 40
0.0
  9
$OLESTARTUP
290
0
  0
ENDSEC
  0
SECTION
  2
CLASSES
  0
CLASS
  1
ACDBDICTIONARYWDFLT
  2
AcDbDictionaryWithDefault
  3
ObjectDBX Classes
 90
0
280
0
281
0
  0
CLASS
  1
ACDBPLACEHOLDER
  2
AcDbPlaceHolder
  3
ObjectDBX Classes
 90
0
280
0
281
0
  0
CLASS
  1
LAYOUT
  2
AcDbLayout
  3
ObjectDBX Classes
 90
0
280
0
281
0
  0
CLASS
  1
DICTIONARYVAR
  2
AcDbDictionaryVar
  3
ObjectDBX Classes
 90
0
280
0
281
0
  0
CLASS
  1
TABLESTYLE
  2
AcDbTableStyle
  3
ObjectDBX Classes
 90
4095
280
0
281
0
  0
CLASS
  1
MATERIAL
  2
AcDbMaterial
  3
ObjectDBX Classes
 90
1153
280
0
281
0
  0
CLASS
  1
VISUALSTYLE
  2
AcDbVisualStyle
  3
ObjectDBX Classes
 90
4095
280
0
281
0
  0
CLASS
  1
SCALE
  2
AcDbScale
  3
ObjectDBX Classes
 90
1153
280
0
281
0
  0
CLASS
  1
MLEADERSTYLE
  2
AcDbMLeaderStyle
  3
ACDB_MLEADERSTYLE_CLASS
 90
4095
280
0
281
0
  0
CLASS
  1
CELLSTYLEMAP
  2
AcDbCellStyleMap
  3
ObjectDBX Classes
 90
1152
280
0
281
0
  0
CLASS
  1
EXACXREFPANELOBJECT
  2
ExAcXREFPanelObject
  3
EXAC_ESW
 90
33793
280
0
281
0
  0
CLASS
  1
NPOCOLLECTION
  2
AcDbImpNonPersistentObjectsCollection
  3
ObjectDBX Classes
 90
33921
280
0
281
0
  0
CLASS
  1
LAYER_INDEX
  2
AcDbLayerIndex
  3
ObjectDBX Classes
 90
32768
280
0
281
0
  0
CLASS
  1
SPATIAL_INDEX
  2
AcDbSpatialIndex
  3
ObjectDBX Classes
 90
32768
280
0
281
0
  0
CLASS
  1
IDBUFFER
  2
AcDbIdBuffer
  3
ObjectDBX Classes
 90
32768
280
0
281
0
  0
CLASS
  1
DIMASSOC
  2
AcDbDimAssoc
  3
"AcDbDimAssoc|Product Desc:     AcDim ARX App For Dimension|Company:          Autodesk, Inc.|WEB Address:      www.autodesk.com"
 90
32768
280
0
281
0
  0
CLASS
  1
IMAGEDEF
  2
AcDbRasterImageDef
  3
ISM
 90
0
280
0
281
0
  0
CLASS
  1
RASTERVARIABLES
  2
AcDbRasterVariables
  3
ISM
 90
0
280
0
281
0
  0
CLASS
  1
IMAGEDEF_REACTOR
  2
AcDbRasterImageDefReactor
  3
ISM
 90
1
280
0
281
0
  0
CLASS
  1
IMAGE
  2
AcDbRasterImage
  3
ISM
 90
2175
280
0
281
1
  0
CLASS
  1
PDFDEFINITION
  2
AcDbPdfDefinition
  3
ObjectDBX Classes
 90
1153
280
0
281
0
  0
CLASS
  1
PDFUNDERLAY
  2
AcDbPdfReference
  3
ObjectDBX Classes
 90
4095
280
0
281
1
  0
CLASS
  1
DWFDEFINITION
  2
AcDbDwfDefinition
  3
ObjectDBX Classes
 90
1153
280
0
281
0
  0
CLASS
  1
DWFUNDERLAY
  2
AcDbDwfReference
  3
ObjectDBX Classes
 90
1153
280
0
281
1
  0
CLASS
  1
DGNDEFINITION
  2
AcDbDgnDefinition
  3
ObjectDBX Classes
 90
1153
280
0
281
0
  0
CLASS
  1
DGNUNDERLAY
  2
AcDbDgnReference
  3
ObjectDBX Classes
 90
1153
280
0
281
1
  0
ENDSEC
  0
SECTION
  2
TABLES
  0
TABLE
  2
VPORT
  5
8
330
0
100
AcDbSymbolTable
 70
0
  0
ENDTAB
  0
TABLE
  2
LTYPE
  5
5
330
0
100
AcDbSymbolTable
 70
7
  0
LTYPE
  5
14
330
5
100
AcDbSymbolTableRecord
100
AcDbLinetypeTableRecord
  2
ByBlock
 70
0
  3

 72
65
 73
0
 40
0.0
  0
LTYPE
  5
15
330
5
100
AcDbSymbolTableRecord
100
AcDbLinetypeTableRecord
  2
ByLayer
 70
0
  3

 72
65
 73
0
 40
0.0
  0
LTYPE
  5
16
330
5
100
AcDbSymbolTableRecord
100
AcDbLinetypeTableRecord
  2
Continuous
 70
0
  3
Solid line
 72
65
 73
0
 40
0.0
  0
LTYPE
  5
1B1
330
5
100
AcDbSymbolTableRecord
100
AcDbLinetypeTableRecord
  2
CENTER
 70
0
  3
Center ____ _ ____ _ ____ _ ____ _ ____ _ ____
 72
65
 73
4
 40
2.0
 49
1.25
 74
0
 49
-0.25
 74
0
 49
0.25
 74
0
 49
-0.25
 74
0
  0
LTYPE
  5
1B2
330
5
100
AcDbSymbolTableRecord
100
AcDbLinetypeTableRecord
  2
DASHED
 70
0
  3
Dashed __ __ __ __ __ __ __ __ __ __ __ __ __ _
 72
65
 73
2
 40
0.75
 49
0.5
 74
0
 49
-0.25
 74
0
  0
LTYPE
  5
1B3
330
5
100
AcDbSymbolTableRecord
100
AcDbLinetypeTableRecord
  2
PHANTOM
 70
0
  3
Phantom ______  __  __  ______  __  __  ______
 72
65
 73
6
 40
2.5
 49
1.25
 74
0
 49
-0.25
 74
0
 49
0.25
 74
0
 49
-0.25
 74
0
 49
0.25
 74
0
 49
-0.25
 74
0
  0
LTYPE
  5
39E
330
5
100
AcDbSymbolTableRecord
100
AcDbLinetypeTableRecord
  2
HIDDEN
 70
0
  3
Hidden __ __ __ __ __ __ __ __ __ __ __ __ __ __
 72
65
 73
2
 40
9.525
 49
6.35
 74
0
 49
-3.175
 74
0
  0
ENDTAB
  0
TABLE
  2
LAYER
  5
2
330
0
100
AcDbSymbolTable
 70
8
  0
LAYER
  5
10
330
2
100
AcDbSymbolTableRecord
100
AcDbLayerTableRecord
  2
0
 70
0
 62
7
  6
Continuous
370
-3
390
4AA
  0
LAYER
  5
1B4
330
2
100
AcDbSymbolTableRecord
100
AcDbLayerTableRecord
  2
View Port
 70
0
 62
7
  6
Continuous
290
0
370
-3
390
4AA
  0
LAYER
  5
21D
330
2
100
AcDbSymbolTableRecord
100
AcDbLayerTableRecord
  2
Defpoints
 70
0
 62
7
  6
Continuous
290
0
370
-3
390
4AA
  0
LAYER
  5
59E
330
2
100
AcDbSymbolTableRecord
100
AcDbLayerTableRecord
  2
cut
 70
0
 62
7
  6
CONTINUOUS
290
1
390
4AB
  0
LAYER
  5
59F
330
2
100
AcDbSymbolTableRecord
100
AcDbLayerTableRecord
  2
engrave
 70
0
 62
2
  6
CONTINUOUS
290
1
390
4AB
  0
LAYER
  5
5A0
330
2
100
AcDbSymbolTableRecord
100
AcDbLayerTableRecord
  2
bend
 70
0
 62
4
  6
DASHED
290
1
390
4AB
  0
LAYER
  5
5A1
330
2
100
AcDbSymbolTableRecord
100
AcDbLayerTableRecord
  2
description
 70
0
 62
0
  6
CONTINUOUS
290
1
390
4AB
  0
LAYER
  5
5A2
330
2
100
AcDbSymbolTableRecord
100
AcDbLayerTableRecord
  2
label
 70
0
 62
0
  6
CONTINUOUS
290
1
390
4AB
  0
ENDTAB
  0
TABLE
  2
STYLE
  5
3
330
0
100
AcDbSymbolTable
 70
3
  0
STYLE
  5
11
330
3
100
AcDbSymbolTableRecord
100
AcDbTextStyleTableRecord
  2
Standard
 70
0
 40
0.0
 41
1.0
 50
0.0
 71
0
 42
0.2
  3
arial.ttf
  4

  0
STYLE
  5
DC
330
3
100
AcDbSymbolTableRecord
100
AcDbTextStyleTableRecord
  2
Annotative
 70
0
 40
0.0
 41
1.0
 50
0.0
 71
0
 42
0.2
  3
arial.ttf
  4

  0
STYLE
  5
178
330
3
100
AcDbSymbolTableRecord
100
AcDbTextStyleTableRecord
  2
Notes
 70
0
 40
3.0
 41
1.0
 50
0.0
 71
0
 42
0.2
  3
arial.ttf
  4

  0
ENDTAB
  0
TABLE
  2
VIEW
  5
6
330
0
100
AcDbSymbolTable
 70
0
  0
ENDTAB
  0
TABLE
  2
UCS
  5
7
330
0
100
AcDbSymbolTable
 70
0
  0
ENDTAB
  0
TABLE
  2
APPID
  5
9
330
0
100
AcDbSymbolTable
 70
11
  0
APPID
  5
12
330
9
100
AcDbSymbolTableRecord
100
AcDbRegAppTableRecord
  2
ACAD
 70
0
  0
APPID
  5
DD
330
9
100
AcDbSymbolTableRecord
100
AcDbRegAppTableRecord
  2
AcadAnnoPO
 70
0
  0
APPID
  5
DE
330
9
100
AcDbSymbolTableRecord
100
AcDbRegAppTableRecord
  2
AcadAnnotative
 70
0
  0
APPID
  5
DF
330
9
100
AcDbSymbolTableRecord
100
AcDbRegAppTableRecord
  2
ACAD_DSTYLE_DIMJAG
 70
0
  0
APPID
  5
E0
330
9
100
AcDbSymbolTableRecord
100
AcDbRegAppTableRecord
  2
ACAD_DSTYLE_DIMTALN
 70
0
  0
APPID
  5
107
330
9
100
AcDbSymbolTableRecord
100
AcDbRegAppTableRecord
  2
ACAD_MLEADERVER
 70
0
  0
APPID
  5
1B5
330
9
100
AcDbSymbolTableRecord
100
AcDbRegAppTableRecord
  2
AcAecLayerStandard
 70
0
  0
APPID
  5
1BA
330
9
100
AcDbSymbolTableRecord
100
AcDbRegAppTableRecord
  2
ACAD_EXEMPT_FROM_CAD_STANDARDS
 70
0
  0
APPID
  5
237
330
9
100
AcDbSymbolTableRecord
100
AcDbRegAppTableRecord
  2
ACAD_DSTYLE_DIMBREAK
 70
0
  0
APPID
  5
28E
330
9
100
AcDbSymbolTableRecord
100
AcDbRegAppTableRecord
  2
ACAD_PSEXT
 70
0
  0
APPID
  5
482
330
9
100
AcDbSymbolTableRecord
100
AcDbRegAppTableRecord
  2
HATCHBACKGROUNDCOLOR
 70
0
  0
ENDTAB
  0
TABLE
  2
DIMSTYLE
  5
A
330
0
100
AcDbSymbolTable
 70
3
100
AcDbDimStyleTable
 71
3
340
242
340
27
340
E1
  0
DIMSTYLE
105
27
330
A
100
AcDbSymbolTableRecord
100
AcDbDimStyleTableRecord
  2
Standard
 70
0
 41
3.0
 42
2.0
 43
9.0
 44
5.0
140
3.0
141
2.0
147
2.0
340
11
1001
ACAD_DSTYLE_DIMJAG
1070
388
1040
38.0
1001
ACAD_DSTYLE_DIMBREAK
1070
391
1040
90.0
1001
ACAD_DSTYLE_DIMTALN
1070
392
1070
0
  0
DIMSTYLE
105
E1
330
A
100
AcDbSymbolTableRecord
100
AcDbDimStyleTableRecord
  2
Annotative
 70
0
 40
0.0
 41
3.0
 42
2.5
 43
10.0
 44
5.0
140
3.0
141
2.0
147
2.0
340
11
1001
AcadAnnotative
1000
AnnotativeData
1002
{
1070
1
1070
1
1002
}
1001
ACAD_DSTYLE_DIMJAG
1070
388
1040
38.0
1001
ACAD_DSTYLE_DIMBREAK
1070
391
1040
90.0
1001
ACAD_DSTYLE_DIMTALN
1070
392
1070
0
  0
DIMSTYLE
105
242
330
A
100
AcDbSymbolTableRecord
100
AcDbDimStyleTableRecord
  2
Civil-Metric
 70
0
 41
3.0
 42
1.5
 43
6.0
 44
3.0
 73
0
 74
0
 77
1
 78
3
 79
2
140
3.0
141
3.0
147
2.0
179
2
271
2
272
2
276
1
340
11
1001
ACAD_DSTYLE_DIMBREAK
1070
391
1040
3.0
1001
ACAD_DSTYLE_DIMJAG
1070
388
1040
38.0
1001
ACAD_DSTYLE_DIMTALN
1070
392
1070
0
  0
ENDTAB
  0
TABLE
  2
BLOCK_RECORD
  5
1
330
0
100
AcDbSymbolTable
 70
4
  0
BLOCK_RECORD
  5
1F
330
1
100
AcDbSymbolTableRecord
100
AcDbBlockTableRecord
  2
*Model_Space
340
4AF
  0
BLOCK_RECORD
  5
58
330
1
100
AcDbSymbolTableRecord
100
AcDbBlockTableRecord
  2
*Paper_Space
340
4B0
  0
BLOCK_RECORD
  5
238
330
1
100
AcDbSymbolTableRecord
100
AcDbBlockTableRecord
  2
_ArchTick
340
0
  0
BLOCK_RECORD
  5
23C
330
1
100
AcDbSymbolTableRecord
100
AcDbBlockTableRecord
  2
_Open30
340
0
  0
ENDTAB
  0
ENDSEC
  0
SECTION
  2
BLOCKS
  0
BLOCK
  5
23A
330
238
100
AcDbEntity
  8
0
100
AcDbBlockBegin
  2
_ArchTick
 70
0
 10
0.0
 20
0.0
 30
0.0
  3
_ArchTick
  1

  0
LWPOLYLINE
  5
239
330
238
100
AcDbEntity
  8
0
  6
ByBlock
 62
0
100
AcDbPolyline
 90
2
 70
0
 43
0.15
 10
-0.5
 20
-0.5
 10
0.5
 20
0.5
  0
ENDBLK
  5
23B
330
238
100
AcDbEntity
  8
0
100
AcDbBlockEnd
  0
BLOCK
  5
20
330
1F
100
AcDbEntity
  8
0
100
AcDbBlockBegin
  2
*Model_Space
 70
0
 10
0.0
 20
0.0
 30
0.0
  3
*Model_Space
  1

  0
ENDBLK
  5
21
330
1F
100
AcDbEntity
  8
0
100
AcDbBlockEnd
  0
BLOCK
  5
5A
330
58
100
AcDbEntity
 67
1
  8
0
100
AcDbBlockBegin
  2
*Paper_Space
 70
0
 10
0.0
 20
0.0
 30
0.0
  3
*Paper_Space
  1

  0
ENDBLK
  5
5B
330
58
100
AcDbEntity
 67
1
  8
0
100
AcDbBlockEnd
  0
BLOCK
  5
240
330
23C
100
AcDbEntity
  8
0
100
AcDbBlockBegin
  2
_Open30
 70
0
 10
0.0
 20
0.0
 30
0.0
  3
_Open30
  1

  0
LINE
  5
23D
330
23C
100
AcDbEntity
  8
0
  6
ByBlock
 62
0
370
-2
100
AcDbLine
 10
-1.0
 20
0.26794919
 30
0.0
 11
0.0
 21
0.0
 31
0.0
  0
LINE
  5
23E
330
23C
100
AcDbEntity
  8
0
  6
ByBlock
 62
0
370
-2
100
AcDbLine
 10
0.0
 20
0.0
 30
0.0
 11
-1.0
 21
-0.26794919
 31
0.0
  0
LINE
  5
23F
330
23C
100
AcDbEntity
  8
0
  6
ByBlock
 62
0
370
-2
100
AcDbLine
 10
0.0
 20
0.0
 30
0.0
 11
-1.0
 21
0.0
 31
0.0
  0
ENDBLK
  5
241
330
23C
100
AcDbEntity
  8
0
100
AcDbBlockEnd
  0
ENDSEC
  0
SECTION
  2
ENTITIES
  0
TEXT
  5
5A3
330
1F
100
AcDbEntity
  8
description
 67
0
100
AcDbText
 10
-561.920887
 20
1.91196120293
 40
1.0
  1
QUANTITY = 1
 50
0.0
 51
0.0
  7
STANDARD
 41
1.0
 71
0
 72
0
 11
-561.920887
 21
1.91196120293
100
AcDbText
 73
1
  0
TEXT
  5
5A4
330
1F
100
AcDbEntity
  8
description
 67
0
100
AcDbText
 10
-561.920887
 20
3.41196120293
 40
1.0
  1
THICKNESS = 1.20
 50
0.0
 51
0.0
  7
STANDARD
 41
1.0
 71
0
 72
0
 11
-561.920887
 21
3.41196120293
100
AcDbText
 73
1
  0
LWPOLYLINE
  5
5A5
330
1F
100
AcDbEntity
  8
cut
 67
0
100
AcDbPolyline
 90
53
 70
1
 43
0.0
 10
-561.508926
 20
-715.0
 42
0.414213562373
 10
-556.508926
 20
-720.0
 10
-543.508926
 20
-720.0
 10
-539.424855
 20
-720.0
 10
-526.912065
 20
-720.0
 10
-522.827995
 20
-720.0
 10
-508.829783
 20
-720.0
 10
-504.745712
 20
-720.0
 10
-2.0
 20
-720.0
 10
2.08407
 20
-720.0
 10
16.082283
 20
-720.0
 10
20.166353
 20
-720.0
 10
32.679143
 20
-720.0
 10
36.763214
 20
-720.0
 10
49.763214
 20
-720.0
 42
0.414213562373
 10
54.763214
 20
-715.0
 10
54.763214
 20
-5.0
 42
0.414213562373
 10
49.763214
 20
0.0
 10
36.763214
 20
0.0
 10
32.679143
 20
0.0
 10
20.166353
 20
0.0
 10
16.082283
 20
0.0
 10
2.08407
 20
0.0
 10
-2.0
 20
0.0
 10
-50.640805
 20
0.0
 42
0.267949192431
 10
-53.238881
 20
-1.5
 10
-59.470932
 20
-12.294229
 42
0.131652497587
 10
-59.872856
 20
-13.794229
 10
-59.872856
 20
-21.0
 42
-1.0
 10
-66.872856
 20
-21.0
 10
-66.872856
 20
-13.794229
 42
0.131652497587
 10
-67.27478
 20
-12.294229
 10
-73.506831
 20
-1.5
 42
0.267949192431
 10
-76.104907
 20
0.0
 10
-430.640805
 20
0.0
 42
0.267949192431
 10
-433.238881
 20
-1.5
 10
-439.470932
 20
-12.294229
 42
0.131652497587
 10
-439.872856
 20
-13.794229
 10
-439.872856
 20
-21.0
 42
-1.0
 10
-446.872856
 20
-21.0
 10
-446.872856
 20
-13.794229
 42
0.131652497587
 10
-447.27478
 20
-12.294229
 10
-453.506831
 20
-1.5
 42
0.267949192431
 10
-456.104907
 20
0.0
 10
-504.745712
 20
0.0
 10
-508.829783
 20
0.0
 10
-522.827995
 20
0.0
 10
-526.912065
 20
0.0
 10
-539.424855
 20
0.0
 10
-543.508926
 20
0.0
 10
-556.508926
 20
0.0
 42
0.414213562373
 10
-561.508926
 20
-5.0
 10
-561.508926
 20
-715.0
  0
LWPOLYLINE
  5
5A6
330
1F
100
AcDbEntity
  8
cut
 67
0
100
AcDbPolyline
 90
8
 70
1
 43
0.0
 10
-559.122741
 20
-620.307107
 10
-556.479312
 20
-620.307107
 42
-0.137385029276
 10
-553.622741
 20
-619.507107
 42
-0.137385029276
 10
-550.76617
 20
-620.307107
 10
-548.122741
 20
-620.307107
 10
-548.122741
 20
-625.007107
 42
-1.0
 10
-559.122741
 20
-625.007107
 10
-559.122741
 20
-620.307107
  0
LWPOLYLINE
  5
5A7
330
1F
100
AcDbEntity
  8
cut
 67
0
100
AcDbPolyline
 90
8
 70
1
 43
0.0
 10
-559.122741
 20
-120.307107
 10
-556.479312
 20
-120.307107
 42
-0.137385029276
 10
-553.622741
 20
-119.507107
 42
-0.137385029276
 10
-550.76617
 20
-120.307107
 10
-548.122741
 20
-120.307107
 10
-548.122741
 20
-125.007107
 42
-1.0
 10
-559.122741
 20
-125.007107
 10
-559.122741
 20
-120.307107
  0
CIRCLE
  5
5A8
330
1F
100
AcDbEntity
  8
cut
 67
0
100
AcDbCircle
 10
-515.629782531
 20
-706.0
 40
5.1
  0
LWPOLYLINE
  5
5A9
330
1F
100
AcDbEntity
  8
cut
 67
0
100
AcDbPolyline
 90
8
 70
1
 43
0.0
 10
52.377029
 20
-120.307107
 10
52.377029
 20
-125.007107
 42
-1.0
 10
41.377029
 20
-125.007107
 10
41.377029
 20
-120.307107
 10
44.020458
 20
-120.307107
 42
-0.137385029276
 10
46.877029
 20
-119.507107
 42
-0.137385029276
 10
49.7336
 20
-120.307107
 10
52.377029
 20
-120.307107
  0
LWPOLYLINE
  5
5AA
330
1F
100
AcDbEntity
  8
cut
 67
0
100
AcDbPolyline
 90
8
 70
1
 43
0.0
 10
44.020458
 20
-620.307107
 42
-0.137385029276
 10
46.877029
 20
-619.507107
 42
-0.137385029276
 10
49.7336
 20
-620.307107
 10
52.377029
 20
-620.307107
 10
52.377029
 20
-625.007107
 42
-1.0
 10
41.377029
 20
-625.007107
 10
41.377029
 20
-620.307107
 10
44.020458
 20
-620.307107
  0
LWPOLYLINE
  5
5AB
330
1F
100
AcDbEntity
  8
cut
 67
0
100
AcDbPolyline
 90
9
 70
1
 43
0.0
 10
-256.345838
 20
-467.938447
 42
0.40522849668
 10
-258.284299
 20
-465.939394
 42
-0.396299282265
 10
-382.285232
 20
-341.938462
 42
0.40522849668
 10
-384.284285
 20
-340.0
 10
-394.288683
 20
-340.0
 42
0.422608061749
 10
-396.287867
 20
-342.057143
 42
0.397571884468
 10
-258.402981
 20
-479.942029
 42
0.422608061749
 10
-256.345838
 20
-477.942845
 10
-256.345838
 20
-467.938447
  0
LWPOLYLINE
  5
5AC
330
1F
100
AcDbEntity
  8
cut
 67
0
100
AcDbPolyline
 90
9
 70
1
 43
0.0
 10
-384.284285
 20
-336.0
 42
0.40522849668
 10
-382.285232
 20
-334.061538
 42
-0.396299282265
 10
-258.284299
 20
-210.060606
 42
0.40522849668
 10
-256.345838
 20
-208.061553
 10
-256.345838
 20
-198.057155
 42
0.422608061749
 10
-258.402981
 20
-196.057971
 42
0.397571884468
 10
-396.287867
 20
-333.942857
 42
0.422608061749
 10
-394.288683
 20
-336.0
 10
-384.284285
 20
-336.0
  0
LWPOLYLINE
  5
5AD
330
1F
100
AcDbEntity
  8
cut
 67
0
100
AcDbPolyline
 90
10
 70
1
 43
0.0
 10
-252.345838
 20
-208.061553
 42
0.40522849668
 10
-250.407376
 20
-210.060606
 42
-0.396299282265
 10
-126.406444
 20
-334.061538
 42
0.40522849668
 10
-124.407391
 20
-336.0
 10
-114.402992
 20
-336.0
 42
0.414213562373
 10
-112.402992
 20
-334.0
 42
0.00714395084656
 10
-112.403809
 20
-333.942857
 42
0.397571884468
 10
-250.288695
 20
-196.057971
 42
0.422608061749
 10
-252.345838
 20
-198.057155
 10
-252.345838
 20
-208.061553
  0
LWPOLYLINE
  5
5AE
330
1F
100
AcDbEntity
  8
cut
 67
0
100
AcDbPolyline
 90
10
 70
1
 43
0.0
 10
-169.586532
 20
-428.508895
 42
0.207449040815
 10
-168.953618
 20
-427.049074
 42
0.19891236738
 10
-169.539404
 20
-425.634861
 10
-174.491976
 20
-420.682288
 42
0.404060239007
 10
-177.270358
 20
-420.633954
 42
-0.39397803068
 10
-331.421318
 20
-420.633954
 42
0.404060239007
 10
-334.199699
 20
-420.682288
 10
-339.152271
 20
-425.634861
 42
0.423851283786
 10
-339.105143
 20
-428.508895
 42
0.395131892094
 10
-169.586532
 20
-428.508895
  0
LWPOLYLINE
  5
5AF
330
1F
100
AcDbEntity
  8
cut
 67
0
100
AcDbPolyline
 90
10
 70
1
 43
0.0
 10
-190.830569
 20
-407.295098
 42
0.210240508929
 10
-190.181958
 20
-405.820734
 42
0.19891236738
 10
-190.767744
 20
-404.406521
 10
-195.722563
 20
-399.451702
 42
0.400491519817
 10
-198.482872
 20
-399.386717
 42
-0.386898231441
 10
-310.208803
 20
-399.386717
 42
0.400491519817
 10
-312.969112
 20
-399.451702
 10
-317.923931
 20
-404.406521
 42
0.42701020273
 10
-317.861106
 20
-407.295098
 42
0.38896004552
 10
-190.830569
 20
-407.295098
  0
LWPOLYLINE
  5
5B0
330
1F
100
AcDbEntity
  8
cut
 67
0
100
AcDbPolyline
 90
10
 70
1
 43
0.0
 10
-212.104951
 20
-386.08022
 42
0.215746725085
 10
-211.424979
 20
-384.577713
 42
0.19891236738
 10
-212.010766
 20
-383.163499
 10
-216.972167
 20
-378.202098
 42
0.393050600719
 10
-219.693997
 20
-378.102991
 42
-0.372188266144
 10
-288.997679
 20
-378.102991
 42
0.393050600719
 10
-291.719509
 20
-378.202098
 10
-296.68091
 20
-383.163499
 42
0.433251967124
 10
-296.586724
 20
-386.08022
 42
0.376880830476
 10
-212.104951
 20
-386.08022
  0
LWPOLYLINE
  5
5B1
330
1F
100
AcDbEntity
  8
cut
 67
0
100
AcDbPolyline
 90
10
 70
1
 43
0.0
 10
-233.497976
 20
-364.85827
 42
0.231699076058
 10
-232.72432
 20
-363.278371
 42
0.19891236738
 10
-233.310107
 20
-361.864158
 10
-238.310123
 20
-356.864142
 42
0.367894196835
 10
-240.894057
 20
-356.656087
 42
-0.322924741484
 10
-267.797619
 20
-356.656087
 42
0.367894196835
 10
-270.381552
 20
-356.864142
 10
-275.381568
 20
-361.864158
 42
0.451416229645
 10
-275.1937
 20
-364.85827
 42
0.342564159922
 10
-233.497976
 20
-364.85827
  0
LWPOLYLINE
  5
5B2
330
1F
100
AcDbEntity
  8
cut
 67
0
100
AcDbPolyline
 90
11
 70
1
 43
0.0
 10
-235.481696
 20
-321.964285
 42
0.367894196835
 10
-235.689751
 20
-324.548219
 42
-0.157459171122
 10
-231.345838
 20
-338.0
 42
-0.157459171122
 10
-235.689751
 20
-351.451781
 42
0.367894196835
 10
-235.481696
 20
-354.035715
 10
-230.48168
 20
-359.035731
 42
0.451416229645
 10
-227.487568
 20
-358.847862
 42
0.166531933742
 10
-220.345838
 20
-338.0
 42
0.166531933742
 10
-227.487568
 20
-317.152138
 42
0.451416229645
 10
-230.48168
 20
-316.964269
 10
-235.481696
 20
-321.964285
  0
LWPOLYLINE
  5
5B3
330
1F
100
AcDbEntity
  8
cut
 67
0
100
AcDbPolyline
 90
11
 70
1
 43
0.0
 10
-214.143739
 20
-300.626329
 42
0.393050600719
 10
-214.242846
 20
-303.348159
 42
-0.180060621225
 10
-201.345838
 20
-338.0
 42
-0.180060621225
 10
-214.242846
 20
-372.651841
 42
0.393050600719
 10
-214.143739
 20
-375.373671
 10
-209.182338
 20
-380.335072
 42
0.433251967124
 10
-206.265618
 20
-380.240886
 42
0.182185766282
 10
-190.345838
 20
-338.0
 42
0.182185766282
 10
-206.265618
 20
-295.759114
 42
0.433251967124
 10
-209.182338
 20
-295.664928
 10
-214.143739
 20
-300.626329
  0
LWPOLYLINE
  5
5B4
330
1F
100
AcDbEntity
  8
cut
 67
0
100
AcDbPolyline
 90
11
 70
1
 43
0.0
 10
-192.894136
 20
-279.376725
 42
0.400491519817
 10
-192.95912
 20
-282.137034
 42
-0.186705671493
 10
-171.345838
 20
-338.0
 42
-0.186705671493
 10
-192.95912
 20
-393.862966
 42
0.400491519817
 10
-192.894136
 20
-396.623275
 10
-187.939317
 20
-401.578094
 42
0.42701020273
 10
-185.05074
 20
-401.515269
 42
0.187633122396
 10
-160.345838
 20
-338.0
 42
0.187633122396
 10
-185.05074
 20
-274.484731
 42
0.42701020273
 10
-187.939317
 20
-274.421906
 10
-192.894136
 20
-279.376725
  0
LWPOLYLINE
  5
5B5
330
1F
100
AcDbEntity
  8
cut
 67
0
100
AcDbPolyline
 90
11
 70
1
 43
0.0
 10
-171.663549
 20
-258.146139
 42
0.404060239007
 10
-171.711883
 20
-260.92452
 42
-0.189886225984
 10
-141.345838
 20
-338.0
 42
-0.189886225984
 10
-171.711883
 20
-415.07548
 42
0.404060239006
 10
-171.663549
 20
-417.853861
 10
-166.710977
 20
-422.806434
 42
0.423851283786
 10
-163.836942
 20
-422.759306
 42
0.190403491111
 10
-130.345838
 20
-338.0
 42
0.190403491111
 10
-163.836942
 20
-253.240694
 42
0.423851283786
 10
-166.710977
 20
-253.193566
 10
-171.663549
 20
-258.146139
  0
LWPOLYLINE
  5
5B6
330
1F
100
AcDbEntity
  8
cut
 67
0
100
AcDbPolyline
 90
10
 70
1
 43
0.0
 10
-124.407391
 20
-340.0
 42
0.40522849668
 10
-126.406444
 20
-341.938462
 42
-0.396299282265
 10
-250.407376
 20
-465.939394
 42
0.40522849668
 10
-252.345838
 20
-467.938447
 10
-252.345838
 20
-477.942845
 42
0.422608061749
 10
-250.288695
 20
-479.942029
 42
0.397571884468
 10
-112.403809
 20
-342.057143
 42
0.00714395084658
 10
-112.402992
 20
-342.0
 42
0.414213562373
 10
-114.402992
 20
-340.0
 10
-124.407391
 20
-340.0
  0
LWPOLYLINE
  5
5B7
330
1F
100
AcDbEntity
  8
cut
 67
0
100
AcDbPolyline
 90
13
 70
1
 43
0.0
 10
-232.045838
 20
-163.833949
 10
-235.545838
 20
-167.333949
 42
-0.668178637919
 10
-237.252944
 20
-166.626842
 10
-237.252944
 20
-164.726842
 42
0.0510565240413
 10
-277.887151
 20
-167.647315
 42
-0.732938398809
 10
-278.767158
 20
-165.955269
 10
-276.645838
 20
-163.833949
 10
-278.767158
 20
-161.712628
 42
-0.732938398809
 10
-277.887151
 20
-160.020582
 42
0.0510565240413
 10
-237.252944
 20
-162.941055
 10
-237.252944
 20
-161.041055
 42
-0.668178637919
 10
-235.545838
 20
-160.333949
 10
-232.045838
 20
-163.833949
  0
CIRCLE
  5
5B8
330
1F
100
AcDbEntity
  8
cut
 67
0
100
AcDbCircle
 10
-216.372856041
 20
-573.0
 40
1.7
  0
CIRCLE
  5
5B9
330
1F
100
AcDbEntity
  8
cut
 67
0
100
AcDbCircle
 10
-290.372856041
 20
-573.0
 40
1.7
  0
CIRCLE
  5
5BA
330
1F
100
AcDbEntity
  8
cut
 67
0
100
AcDbCircle
 10
-216.372856041
 20
-528.0
 40
1.7
  0
CIRCLE
  5
5BB
330
1F
100
AcDbEntity
  8
cut
 67
0
100
AcDbCircle
 10
-290.372856041
 20
-528.0
 40
1.7
  0
LWPOLYLINE
  5
5BC
330
1F
100
AcDbEntity
  8
cut
 67
0
100
AcDbPolyline
 90
10
 70
1
 43
0.0
 10
-175.452504
 20
-342.103896
 42
0.0129935923944
 10
-175.449804
 20
-342.0
 42
0.414213562373
 10
-177.449804
 20
-340.0
 10
-184.460217
 20
-340.0
 42
0.397565119499
 10
-186.456949
 20
-341.885714
 42
-0.38110483301
 10
-250.460123
 20
-405.888889
 42
0.397565119499
 10
-252.345838
 20
-407.885621
 10
-252.345838
 20
-414.896034
 42
0.429518877853
 10
-250.241942
 20
-416.893333
 42
0.384086886086
 10
-175.452504
 20
-342.103896
  0
LWPOLYLINE
  5
5BD
330
1F
100
AcDbEntity
  8
cut
 67
0
100
AcDbPolyline
 90
10
 70
1
 43
0.0
 10
-205.523616
 20
-342.170213
 42
0.0213055874201
 10
-205.51636
 20
-342.0
 42
0.414213562373
 10
-207.51636
 20
-340.0
 10
-214.54634
 20
-340.0
 42
0.385170388215
 10
-216.536315
 20
-341.8
 42
-0.356682241595
 10
-250.545838
 20
-375.809523
 42
0.385170388215
 10
-252.345838
 20
-377.799497
 10
-252.345838
 20
-384.829478
 42
0.439396854835
 10
-250.175625
 20
-386.822222
 42
0.36513542317
 10
-205.523616
 20
-342.170213
  0
LWPOLYLINE
  5
5BE
330
1F
100
AcDbEntity
  8
cut
 67
0
100
AcDbPolyline
 90
10
 70
1
 43
0.0
 10
-145.422028
 20
-342.074766
 42
0.00934824485605
 10
-145.42063
 20
-342.0
 42
0.414213562373
 10
-147.42063
 20
-340.0
 10
-154.42587
 20
-340.0
 42
0.402542673241
 10
-156.424269
 20
-341.92
 42
-0.390965395995
 10
-250.425838
 20
-435.921569
 42
0.402542673241
 10
-252.345838
 20
-437.919968
 10
-252.345838
 20
-444.925208
 42
0.425208285914
 10
-250.271071
 20
-446.92381
 42
0.392475707828
 10
-145.422028
 20
-342.074766
  0
LWPOLYLINE
  5
5BF
330
1F
100
AcDbEntity
  8
cut
 67
0
100
AcDbPolyline
 90
11
 70
1
 43
0.0
 10
-281.204107
 20
-358.847862
 42
0.451416229645
 10
-278.209996
 20
-359.035731
 10
-273.20998
 20
-354.035715
 42
0.19891236738
 10
-272.624193
 20
-352.621501
 42
0.157459171122
 10
-273.001925
 20
-351.451781
 42
-0.322924741484
 10
-273.001925
 20
-324.548219
 42
0.157459171122
 10
-272.624193
 20
-323.378499
 42
0.19891236738
 10
-273.20998
 20
-321.964285
 10
-278.209996
 20
-316.964269
 42
0.451416229645
 10
-281.204107
 20
-317.152138
 42
0.342564159922
 10
-281.204107
 20
-358.847862
  0
LWPOLYLINE
  5
5C0
330
1F
100
AcDbEntity
  8
cut
 67
0
100
AcDbPolyline
 90
11
 70
1
 43
0.0
 10
-302.426057
 20
-380.240886
 42
0.433251967124
 10
-299.509337
 20
-380.335072
 10
-294.547936
 20
-375.373671
 42
0.19891236738
 10
-293.96215
 20
-373.959458
 42
0.180060621225
 10
-294.448829
 20
-372.651841
 42
-0.372188266144
 10
-294.448829
 20
-303.348159
 42
0.180060621225
 10
-293.96215
 20
-302.040542
 42
0.19891236738
 10
-294.547936
 20
-300.626329
 10
-299.509337
 20
-295.664928
 42
0.433251967124
 10
-302.426057
 20
-295.759114
 42
0.376880830476
 10
-302.426057
 20
-380.240886
  0
LWPOLYLINE
  5
5C1
330
1F
100
AcDbEntity
  8
cut
 67
0
100
AcDbPolyline
 90
11
 70
1
 43
0.0
 10
-323.640936
 20
-401.515269
 42
0.42701020273
 10
-320.752358
 20
-401.578094
 10
-315.79754
 20
-396.623275
 42
0.19891236738
 10
-315.211753
 20
-395.209061
 42
0.186705671493
 10
-315.732555
 20
-393.862966
 42
-0.386898231441
 10
-315.732555
 20
-282.137034
 42
0.186705671493
 10
-315.211753
 20
-280.790939
 42
0.19891236738
 10
-315.79754
 20
-279.376725
 10
-320.752358
 20
-274.421906
 42
0.42701020273
 10
-323.640936
 20
-274.484731
 42
0.38896004552
 10
-323.640936
 20
-401.515269
  0
LWPOLYLINE
  5
5C2
330
1F
100
AcDbEntity
  8
cut
 67
0
100
AcDbPolyline
 90
11
 70
1
 43
0.0
 10
-344.854733
 20
-422.759306
 42
0.423851283786
 10
-341.980698
 20
-422.806434
 10
-337.028126
 20
-417.853861
 42
0.19891236738
 10
-336.44234
 20
-416.439648
 42
0.189886225984
 10
-336.979792
 20
-415.07548
 42
-0.39397803068
 10
-336.979792
 20
-260.92452
 42
0.189886225984
 10
-336.44234
 20
-259.560352
 42
0.19891236738
 10
-337.028126
 20
-258.146139
 10
-341.980698
 20
-253.193566
 42
0.423851283786
 10
-344.854733
 20
-253.240694
 42
0.395131892094
 10
-344.854733
 20
-422.759306
  0
LWPOLYLINE
  5
5C3
330
1F
100
AcDbEntity
  8
cut
 67
0
100
AcDbPolyline
 90
9
 70
1
 43
0.0
 10
-258.449734
 20
-416.893333
 42
0.429518877853
 10
-256.345838
 20
-414.896034
 10
-256.345838
 20
-407.885621
 42
0.397565119499
 10
-258.231552
 20
-405.888889
 42
-0.38110483301
 10
-322.234726
 20
-341.885714
 42
0.397565119499
 10
-324.231459
 20
-340.0
 10
-331.241871
 20
-340.0
 42
0.429518877853
 10
-333.239171
 20
-342.103896
 42
0.384086886086
 10
-258.449734
 20
-416.893333
  0
LWPOLYLINE
  5
5C4
330
1F
100
AcDbEntity
  8
cut
 67
0
100
AcDbPolyline
 90
9
 70
1
 43
0.0
 10
-258.51605
 20
-386.822222
 42
0.439396854835
 10
-256.345838
 20
-384.829478
 10
-256.345838
 20
-377.799497
 42
0.385170388215
 10
-258.145838
 20
-375.809523
 42
-0.356682241595
 10
-292.15536
 20
-341.8
 42
0.385170388215
 10
-294.145335
 20
-340.0
 10
-301.175316
 20
-340.0
 42
0.439396854835
 10
-303.168059
 20
-342.170213
 42
0.36513542317
 10
-258.51605
 20
-386.822222
  0
LWPOLYLINE
  5
5C5
330
1F
100
AcDbEntity
  8
cut
 67
0
100
AcDbPolyline
 90
9
 70
1
 43
0.0
 10
-258.420604
 20
-446.92381
 42
0.425208285914
 10
-256.345838
 20
-444.925208
 10
-256.345838
 20
-437.919968
 42
0.402542673241
 10
-258.265838
 20
-435.921569
 42
-0.390965395995
 10
-352.267406
 20
-341.92
 42
0.402542673241
 10
-354.265806
 20
-340.0
 10
-361.271045
 20
-340.0
 42
0.425208285914
 10
-363.269647
 20
-342.074766
 42
0.392475707828
 10
-258.420604
 20
-446.92381
  0
LWPOLYLINE
  5
5C6
330
1F
100
AcDbEntity
  8
cut
 67
0
100
AcDbPolyline
 90
10
 70
1
 43
0.0
 10
-275.1937
 20
-311.14173
 42
0.451416229645
 10
-275.381568
 20
-314.135842
 10
-270.381552
 20
-319.135858
 42
0.367894196835
 10
-267.797619
 20
-319.343913
 42
-0.322924741484
 10
-240.894057
 20
-319.343913
 42
0.367894196835
 10
-238.310123
 20
-319.135858
 10
-233.310107
 20
-314.135842
 42
0.19891236738
 10
-232.72432
 20
-312.721629
 42
0.231699076058
 10
-233.497976
 20
-311.14173
 42
0.342564159922
 10
-275.1937
 20
-311.14173
  0
LWPOLYLINE
  5
5C7
330
1F
100
AcDbEntity
  8
cut
 67
0
100
AcDbPolyline
 90
10
 70
1
 43
0.0
 10
-296.586724
 20
-289.91978
 42
0.433251967124
 10
-296.68091
 20
-292.836501
 10
-291.719509
 20
-297.797902
 42
0.393050600719
 10
-288.997679
 20
-297.897009
 42
-0.372188266144
 10
-219.693997
 20
-297.897009
 42
0.393050600719
 10
-216.972167
 20
-297.797902
 10
-212.010766
 20
-292.836501
 42
0.19891236738
 10
-211.424979
 20
-291.422287
 42
0.215746725085
 10
-212.104951
 20
-289.91978
 42
0.376880830476
 10
-296.586724
 20
-289.91978
  0
LWPOLYLINE
  5
5C8
330
1F
100
AcDbEntity
  8
cut
 67
0
100
AcDbPolyline
 90
10
 70
1
 43
0.0
 10
-317.861106
 20
-268.704902
 42
0.42701020273
 10
-317.923931
 20
-271.593479
 10
-312.969112
 20
-276.548298
 42
0.400491519816
 10
-310.208803
 20
-276.613283
 42
-0.386898231441
 10
-198.482872
 20
-276.613283
 42
0.400491519817
 10
-195.722563
 20
-276.548298
 10
-190.767744
 20
-271.593479
 42
0.19891236738
 10
-190.181958
 20
-270.179266
 42
0.210240508929
 10
-190.830569
 20
-268.704902
 42
0.38896004552
 10
-317.861106
 20
-268.704902
  0
LWPOLYLINE
  5
5C9
330
1F
100
AcDbEntity
  8
cut
 67
0
100
AcDbPolyline
 90
10
 70
1
 43
0.0
 10
-339.105143
 20
-247.491105
 42
0.423851283786
 10
-339.152271
 20
-250.365139
 10
-334.199699
 20
-255.317712
 42
0.404060239006
 10
-331.421318
 20
-255.366046
 42
-0.39397803068
 10
-177.270358
 20
-255.366046
 42
0.404060239007
 10
-174.491976
 20
-255.317712
 10
-169.539404
 20
-250.365139
 42
0.19891236738
 10
-168.953618
 20
-248.950926
 42
0.207449040815
 10
-169.586532
 20
-247.491105
 42
0.395131892094
 10
-339.105143
 20
-247.491105
  0
LWPOLYLINE
  5
5CA
330
1F
100
AcDbEntity
  8
cut
 67
0
100
AcDbPolyline
 90
9
 70
1
 43
0.0
 10
-333.239171
 20
-333.896104
 42
0.429518877853
 10
-331.241871
 20
-336.0
 10
-324.231459
 20
-336.0
 42
0.397565119499
 10
-322.234726
 20
-334.114286
 42
-0.38110483301
 10
-258.231552
 20
-270.111111
 42
0.397565119499
 10
-256.345838
 20
-268.114379
 10
-256.345838
 20
-261.103966
 42
0.429518877853
 10
-258.449734
 20
-259.106667
 42
0.384086886086
 10
-333.239171
 20
-333.896104
  0
LWPOLYLINE
  5
5CB
330
1F
100
AcDbEntity
  8
cut
 67
0
100
AcDbPolyline
 90
9
 70
1
 43
0.0
 10
-303.168059
 20
-333.829787
 42
0.439396854835
 10
-301.175316
 20
-336.0
 10
-294.145335
 20
-336.0
 42
0.385170388215
 10
-292.15536
 20
-334.2
 42
-0.356682241595
 10
-258.145838
 20
-300.190477
 42
0.385170388215
 10
-256.345838
 20
-298.200503
 10
-256.345838
 20
-291.170522
 42
0.439396854835
 10
-258.51605
 20
-289.177778
 42
0.36513542317
 10
-303.168059
 20
-333.829787
  0
LWPOLYLINE
  5
5CC
330
1F
100
AcDbEntity
  8
cut
 67
0
100
AcDbPolyline
 90
9
 70
1
 43
0.0
 10
-363.269647
 20
-333.925234
 42
0.425208285914
 10
-361.271045
 20
-336.0
 10
-354.265806
 20
-336.0
 42
0.402542673241
 10
-352.267406
 20
-334.08
 42
-0.390965395995
 10
-258.265838
 20
-240.078431
 42
0.402542673241
 10
-256.345838
 20
-238.080032
 10
-256.345838
 20
-231.074792
 42
0.425208285914
 10
-258.420604
 20
-229.07619
 42
0.392475707828
 10
-363.269647
 20
-333.925234
  0
LWPOLYLINE
  5
5CD
330
1F
100
AcDbEntity
  8
cut
 67
0
100
AcDbPolyline
 90
10
 70
1
 43
0.0
 10
-250.241942
 20
-259.106667
 42
0.429518877853
 10
-252.345838
 20
-261.103966
 10
-252.345838
 20
-268.114379
 42
0.397565119499
 10
-250.460123
 20
-270.111111
 42
-0.38110483301
 10
-186.456949
 20
-334.114286
 42
0.397565119499
 10
-184.460217
 20
-336.0
 10
-177.449804
 20
-336.0
 42
0.414213562373
 10
-175.449804
 20
-334.0
 42
0.0129935923944
 10
-175.452504
 20
-333.896104
 42
0.384086886086
 10
-250.241942
 20
-259.106667
  0
LWPOLYLINE
  5
5CE
330
1F
100
AcDbEntity
  8
cut
 67
0
100
AcDbPolyline
 90
10
 70
1
 43
0.0
 10
-250.175625
 20
-289.177778
 42
0.439396854835
 10
-252.345838
 20
-291.170522
 10
-252.345838
 20
-298.200503
 42
0.385170388215
 10
-250.545838
 20
-300.190477
 42
-0.356682241595
 10
-216.536315
 20
-334.2
 42
0.385170388215
 10
-214.54634
 20
-336.0
 10
-207.51636
 20
-336.0
 42
0.414213562373
 10
-205.51636
 20
-334.0
 42
0.02130558742
 10
-205.523616
 20
-333.829787
 42
0.36513542317
 10
-250.175625
 20
-289.177778
  0
LWPOLYLINE
  5
5CF
330
1F
100
AcDbEntity
  8
cut
 67
0
100
AcDbPolyline
 90
10
 70
1
 43
0.0
 10
-250.271071
 20
-229.07619
 42
0.425208285914
 10
-252.345838
 20
-231.074792
 10
-252.345838
 20
-238.080032
 42
0.402542673241
 10
-250.425838
 20
-240.078431
 42
-0.390965395995
 10
-156.424269
 20
-334.08
 42
0.402542673241
 10
-154.42587
 20
-336.0
 10
-147.42063
 20
-336.0
 42
0.414213562373
 10
-145.42063
 20
-334.0
 42
0.00934824485603
 10
-145.422028
 20
-333.925234
 42
0.392475707828
 10
-250.271071
 20
-229.07619
  0
CIRCLE
  5
5D0
330
1F
100
AcDbEntity
  8
cut
 67
0
100
AcDbCircle
 10
8.88407044967
 20
-706.0
 40
5.1
  0
LINE
  5
5D1
330
1F
100
AcDbEntity
  8
bend
 67
0
100
AcDbLine
 10
0.042035
 20
0.0
 11
0.042035
 21
-720.0
  0
LINE
  5
5D2
330
1F
100
AcDbEntity
  8
bend
 67
0
100
AcDbLine
 10
18.124318
 20
0.0
 11
18.124318
 21
-720.0
  0
LINE
  5
5D3
330
1F
100
AcDbEntity
  8
bend
 67
0
100
AcDbLine
 10
34.721178
 20
0.0
 11
34.721178
 21
-720.0
  0
LINE
  5
5D4
330
1F
100
AcDbEntity
  8
bend
 67
0
100
AcDbLine
 10
-541.46689
 20
0.0
 11
-541.46689
 21
-720.0
  0
LINE
  5
5D5
330
1F
100
AcDbEntity
  8
bend
 67
0
100
AcDbLine
 10
-524.87003
 20
0.0
 11
-524.87003
 21
-720.0
  0
LINE
  5
5D6
330
1F
100
AcDbEntity
  8
bend
 67
0
100
AcDbLine
 10
-506.787747
 20
0.0
 11
-506.787747
 21
-720.0
  0
ENDSEC
  0
SECTION
  2
OBJECTS
  0
DICTIONARY
  5
C
330
0
100
AcDbDictionary
281
1
  3
ACAD_COLOR
350
4A3
  3
ACAD_GROUP
350
4A4
  3
ACAD_LAYOUT
350
4A5
  3
ACAD_MATERIAL
350
4A6
  3
ACAD_MLEADERSTYLE
350
4A7
  3
ACAD_MLINESTYLE
350
4A8
  3
ACAD_PLOTSETTINGS
350
4A9
  3
ACAD_PLOTSTYLENAME
350
4AB
  3
ACAD_SCALELIST
350
4AC
  3
ACAD_TABLESTYLE
350
4AD
  3
ACAD_VISUALSTYLE
350
4AE
  0
DICTIONARY
  5
4A3
330
C
100
AcDbDictionary
281
1
  0
DICTIONARY
  5
4A4
330
C
100
AcDbDictionary
281
1
  0
DICTIONARY
  5
4A5
330
C
100
AcDbDictionary
281
1
  3
Model
350
4AF
  3
Layout1
350
4B0
  0
DICTIONARY
  5
4A6
330
C
100
AcDbDictionary
281
1
  3
ByBlock
350
599
  3
ByLayer
350
59A
  3
Global
350
59B
  0
DICTIONARY
  5
4A7
330
C
100
AcDbDictionary
281
1
  3
Standard
350
59C
  0
DICTIONARY
  5
4A8
330
C
100
AcDbDictionary
281
1
  3
STANDARD
350
59D
  0
DICTIONARY
  5
4A9
330
C
100
AcDbDictionary
281
1
  0
ACDBPLACEHOLDER
  5
4AA
330
4AB
  0
ACDBDICTIONARYWDFLT
  5
4AB
330
C
100
AcDbDictionary
281
1
  3
Normal
350
4AA
100
AcDbDictionaryWithDefault
340
4AA
  0
DICTIONARY
  5
4AC
330
C
100
AcDbDictionary
281
1
  0
DICTIONARY
  5
4AD
330
C
100
AcDbDictionary
281
1
  0
DICTIONARY
  5
4AE
330
C
100
AcDbDictionary
281
1
  0
LAYOUT
  5
4AF
330
4A5
100
AcDbPlotSettings
  1

  2
DWFx ePlot (XPS Compatible).pc3
  4
ANSI_A_(8.50_x_11.00_Inches)
  6

 40
5.8
 41
17.8
 42
5.8
 43
17.8
 44
215.9
 45
279.4
 46
0.0
 47
0.0
 48
0.0
 49
0.0
140
0.0
141
0.0
142
1.0
143
14.53
 70
11952
 72
0
 73
1
 74
0
  7

 75
0
147
0.069
148
114.98
149
300.29
100
AcDbLayout
  1
Model
 70
1
 71
0
 10
0.0
 20
0.0
 11
12.0
 21
9.0
 12
0.0
 22
0.0
 32
0.0
 14
0.0
 24
0.0
 34
0.0
 15
0.0
 25
0.0
 35
0.0
146
0.0
 13
0.0
 23
0.0
 33
0.0
 16
1.0
 26
0.0
 36
0.0
 17
0.0
 27
1.0
 37
0.0
 76
0
330
1F
  0
LAYOUT
  5
4B0
330
4A5
100
AcDbPlotSettings
  1

  2
DWFx ePlot (XPS Compatible).pc3
  4
ANSI_A_(8.50_x_11.00_Inches)
  6

 40
5.8
 41
17.8
 42
5.8
 43
17.8
 44
215.9
 45
279.4
 46
0.0
 47
0.0
 48
0.0
 49
0.0
140
0.0
141
0.0
142
1.0
143
1.0
 70
688
 72
0
 73
1
 74
5
  7
acad.ctb
 75
16
147
1.0
148
0.0
149
0.0
100
AcDbLayout
  1
Layout1
 70
1
 71
1
 10
-0.7
 20
-0.23
 11
10.3
 21
8.27
 12
0.0
 22
0.0
 32
0.0
 14
0.63
 24
0.8
 34
0.0
 15
9.0
 25
7.2
 35
0.0
146
0.0
 13
0.0
 23
0.0
 33
0.0
 16
1.0
 26
0.0
 36
0.0
 17
0.0
 27
1.0
 37
0.0
 76
0
330
58
  0
MATERIAL
  5
599
102
{ACAD_REACTORS
330
4A6
102
}
330
4A6
100
AcDbMaterial
  1
ByBlock
 94
63
  0
MATERIAL
  5
59A
102
{ACAD_REACTORS
330
4A6
102
}
330
4A6
100
AcDbMaterial
  1
ByLayer
 94
63
  0
MATERIAL
  5
59B
102
{ACAD_REACTORS
330
4A6
102
}
330
4A6
100
AcDbMaterial
  1
Global
 94
63
  0
MLEADERSTYLE
  5
59C
102
{ACAD_REACTORS
330
4A7
102
}
330
4A7
100
AcDbMLeaderStyle
179
2
170
2
171
1
172
0
 90
2
 40
0.0
 41
0.0
173
1
 91
-1056964608
340
14
 92
-2
290
1
 42
2.0
291
1
 43
8.0
  3
Standard
341
0
 44
4.0
300

342
11
174
1
178
1
175
1
176
0
 93
-1056964608
 45
4.0
292
0
297
0
 46
4.0
343
0
 94
-1056964608
 47
1.0
 49
1.0
140
1.0
293
1
141
0.0
294
1
177
0
142
1.0
295
0
296
0
143
3.75
271
0
272
9
273
9
  0
MLINESTYLE
  5
59D
102
{ACAD_REACTORS
330
4A8
102
}
330
4A8
100
AcDbMlineStyle
  2
STANDARD
 70
0
  3

 62
256
 51
90.0
 52
90.0
 71
2
 49
0.5
 62
256
  6
BYLAYER
 49
-0.5
 62
256
  6
BYLAYER
  0
ENDSEC
  0
EOF
